<?xml version="1.0" encoding="UTF-8" standalone="no"?>
<!-- Generator: Adobe Illustrator 18.0.0, SVG Export Plug-In . SVG Version: 6.00 Build 0)  -->

<svg
   xmlns:dc="http://purl.org/dc/elements/1.1/"
   xmlns:cc="http://creativecommons.org/ns#"
   xmlns:rdf="http://www.w3.org/1999/02/22-rdf-syntax-ns#"
   xmlns:svg="http://www.w3.org/2000/svg"
   xmlns="http://www.w3.org/2000/svg"
   xmlns:sodipodi="http://sodipodi.sourceforge.net/DTD/sodipodi-0.dtd"
   xmlns:inkscape="http://www.inkscape.org/namespaces/inkscape"
   version="1.1"
   id="Capa_1"
   x="0px"
   y="0px"
   viewBox="0 0 45 45"
   enable-background="new 0 0 45 45"
   xml:space="preserve"
   sodipodi:docname="authors.svg"
   inkscape:version="0.92.3 (2405546, 2018-03-11)"><metadata
   id="metadata3814"><rdf:RDF><cc:Work
       rdf:about=""><dc:format>image/svg+xml</dc:format><dc:type
         rdf:resource="http://purl.org/dc/dcmitype/StillImage" /><dc:title></dc:title></cc:Work></rdf:RDF></metadata><defs
   id="defs3812" /><sodipodi:namedview
   pagecolor="#ffffff"
   bordercolor="#666666"
   borderopacity="1"
   objecttolerance="10"
   gridtolerance="10"
   guidetolerance="10"
   inkscape:pageopacity="0"
   inkscape:pageshadow="2"
   inkscape:window-width="2503"
   inkscape:window-height="1025"
   id="namedview3810"
   showgrid="false"
   inkscape:zoom="13.262181"
   inkscape:cx="36.83149"
   inkscape:cy="23.118803"
   inkscape:window-x="57"
   inkscape:window-y="27"
   inkscape:window-maximized="1"
   inkscape:current-layer="Capa_1" />

<path
   id="Shape_5_"
   fill="#A7A7A7"
   d="M22.4,0.7c-12.1,0-22,9.8-22,21.8s9.9,21.7,22,21.7s22-9.8,22-21.8S34.5,0.7,22.4,0.7z   M22.4,42c-11,0-19.8-8.8-19.8-19.6S11.4,2.7,22.4,2.7s19.8,8.8,19.8,19.6C42.2,33.2,33.4,42,22.4,42z"
   inkscape:export-xdpi="96"
   inkscape:export-ydpi="96" />
<path
   style="fill:#f73435;fill-opacity:1;stroke-width:0.08180347"
   d="m 8.0248621,33.033108 c 0.0098,-1.423464 0.228328,-3.014388 0.521651,-3.797778 0.290224,-0.775113 1.141556,-1.604046 2.1181709,-2.062441 0.255592,-0.119967 1.199456,-0.460467 2.097477,-0.756667 2.34357,-0.772994 3.173382,-1.212232 3.649703,-1.931871 0.226719,-0.342533 0.277999,-0.507054 0.309533,-0.993043 0.03262,-0.502665 0.01558,-0.603704 -0.124326,-0.737262 -0.08917,-0.08512 -0.398556,-0.502561 -0.687536,-0.927643 -0.288979,-0.425082 -0.73438,-0.965039 -0.989781,-1.199902 -0.442621,-0.407031 -0.976085,-1.170986 -1.102813,-1.579301 -0.03248,-0.104648 -0.100785,-0.241657 -0.151804,-0.304466 -0.05478,-0.06746 -0.09275,-0.443297 -0.09275,-0.918217 0,-0.626987 0.02716,-0.820592 0.123381,-0.879296 0.09731,-0.05937 0.134604,-0.346689 0.176494,-1.359736 0.05255,-1.270851 0.186164,-2.343977 0.311722,-2.503642 0.03568,-0.04537 0.09059,-0.19233 0.122015,-0.326565 0.03143,-0.134237 0.185918,-0.507537 0.343317,-0.829555 0.313937,-0.642275 0.74107,-1.071011 1.402453,-1.407719 0.219729,-0.111863 0.418016,-0.221693 0.440635,-0.244066 0.119326,-0.118022 1.357417,-0.6508429 1.512334,-0.6508429 0.06767,0 0.143924,-0.033426 0.169451,-0.074275 0.02553,-0.040849 0.203529,-0.0999 0.395561,-0.1312315 0.192032,-0.031322 0.389951,-0.089423 0.439821,-0.1291029 0.04987,-0.039684 0.319371,-0.095789 0.598894,-0.1246888 0.279522,-0.028894 0.527765,-0.083813 0.551651,-0.1220411 0.06176,-0.098843 1.986735,-0.087708 2.048944,0.011858 0.02796,0.044744 0.124711,0.081353 0.215002,0.081353 0.557991,0 1.533038,0.7318417 1.854256,1.3917482 0.105236,0.216191 0.221035,0.326724 0.378627,0.361402 0.358705,0.07892 0.738323,0.288686 1.017503,0.56221 0.267599,0.262179 0.606186,0.819986 0.606186,0.998666 0,0.05659 0.03096,0.102899 0.0688,0.102899 0.105716,0 0.343034,1.590301 0.342735,2.296779 -1.63e-4,0.345947 -0.04491,0.886524 -0.09949,1.201279 -0.08971,0.517459 -0.08464,0.596701 0.05298,0.827129 0.08907,0.149136 0.168347,0.478023 0.191125,0.792904 0.06988,0.96601 -0.494049,2.164801 -1.408773,2.994736 -0.235694,0.213847 -0.57377,0.626775 -0.751279,0.917621 -0.177512,0.290846 -0.351491,0.565421 -0.386621,0.610166 -0.502125,0.639559 -1.00039,1.225948 -1.05998,1.247448 -0.09656,0.03484 -0.09816,0.396673 -0.002,0.455444 0.04023,0.02459 0.09735,0.140086 0.126924,0.256654 0.09018,0.355401 1.118602,1.169861 1.640892,1.299517 0.119321,0.02962 0.237289,0.08641 0.262152,0.126198 0.02486,0.03979 0.102203,0.07234 0.171863,0.07234 0.06966,0 0.243296,0.04923 0.385852,0.109414 0.142556,0.06017 0.481279,0.173896 0.752717,0.252707 0.271439,0.07882 0.585838,0.1793 0.698666,0.223309 0.112827,0.04401 0.469596,0.165397 0.792816,0.269755 0.323222,0.104356 0.656573,0.22571 0.74078,0.269672 0.0842,0.04397 0.495593,0.247094 0.914188,0.451405 2.239597,1.093119 2.620361,1.817484 2.710205,5.155896 l 0.03557,1.322025 H 20.240498 8.0202401 Z M 31.527773,31.410263 c -0.02701,-1.017993 -0.06901,-1.490276 -0.134461,-1.511854 -0.05235,-0.01726 -0.09543,-0.110704 -0.09572,-0.207652 -0.0016,-0.518165 -0.917026,-1.277691 -2.287292,-1.897744 -1.079824,-0.488626 -1.14711,-0.515799 -1.277229,-0.515799 -0.06966,0 -0.147545,-0.03343 -0.173071,-0.07428 -0.02553,-0.04085 -0.194082,-0.09895 -0.374567,-0.129111 -0.180485,-0.03016 -0.3464,-0.08404 -0.3687,-0.119725 -0.0223,-0.03569 -0.206705,-0.08953 -0.409784,-0.119654 -0.203081,-0.03012 -0.388199,-0.08511 -0.411374,-0.122198 -0.02317,-0.03709 -0.176651,-0.09239 -0.341059,-0.122898 -0.164408,-0.0305 -0.359142,-0.08647 -0.432742,-0.124366 -0.0736,-0.03789 -0.429933,-0.208895 -0.791851,-0.380003 -0.762463,-0.360477 -0.752558,-0.353796 -1.281799,-0.86456 -0.550463,-0.531246 -0.734091,-0.933099 -0.730732,-1.599143 0.0026,-0.522299 0.01069,-0.541798 0.371083,-0.899828 0.202614,-0.201278 0.388968,-0.430091 0.41412,-0.508471 0.02516,-0.07838 0.07669,-0.142511 0.114522,-0.142511 0.06756,0 0.761396,-1.045438 0.985397,-1.484735 0.06275,-0.12305 0.148055,-0.223728 0.189578,-0.223728 0.193063,0 0.968904,-0.914631 1.243521,-1.465977 0.357162,-0.71707 0.400229,-1.282584 0.131929,-1.732352 -0.157151,-0.263442 -0.161709,-0.33911 -0.08254,-1.370608 0.08459,-1.102209 0.0023,-2.673022 -0.15016,-2.865689 -0.03949,-0.04991 -0.0957,-0.182272 -0.124919,-0.294136 -0.06098,-0.233478 -0.237929,-0.452001 -0.576997,-0.71256 -0.177469,-0.136379 -0.347073,-0.182349 -0.672759,-0.182349 h -0.435475 l -0.130789,-0.444975 c -0.329605,-1.1214 -1.476541,-1.6398249 -3.171051,-1.4333425 -0.705917,0.08601 -1.38127,0.2265225 -1.56599,0.3257975 -0.0696,0.03741 -0.282431,0.09406 -0.472961,0.125896 -0.190528,0.03184 -0.346416,0.09128 -0.346416,0.132091 0,0.04082 -0.06072,0.0742 -0.134935,0.0742 -0.139917,0 -0.861402,0.324479 -0.935191,0.420591 -0.02307,0.03005 -0.143371,0.07982 -0.267326,0.110589 -0.123956,0.03077 -0.225374,0.08462 -0.225374,0.119663 0,0.03504 -0.08427,0.08463 -0.187276,0.110206 -0.241886,0.06004 -0.740012,0.512667 -0.908363,0.825382 -0.243741,0.452749 -0.467187,1.007039 -0.467187,1.158919 0,0.08299 -0.03949,0.189956 -0.08775,0.237689 -0.10409,0.102964 -0.254577,1.939735 -0.225841,2.756631 0.01623,0.461583 -0.01371,0.630417 -0.153368,0.864525 -0.261892,0.439024 -0.297238,0.722833 -0.146001,1.172297 0.176023,0.52313 0.459904,1.091246 0.545282,1.091246 0.03722,0 0.06768,0.0499 0.06768,0.1109 0,0.120342 0.767343,0.865364 0.891291,0.865364 0.04169,0 0.121794,0.10983 0.178011,0.244066 0.05621,0.134237 0.134735,0.244067 0.174486,0.244067 0.03975,0 0.07227,0.03809 0.07227,0.08464 0,0.08478 0.279775,0.506061 0.47296,0.712181 0.05655,0.06033 0.102815,0.135893 0.102815,0.167904 0,0.03201 0.166564,0.232606 0.370143,0.445763 0.336313,0.352136 0.370143,0.424454 0.370143,0.791246 0,0.567007 -0.268231,1.459316 -0.577695,1.921784 -0.376615,0.562822 -1.084057,1.101475 -1.889926,1.439009 -0.158338,0.06632 -0.461676,0.196447 -0.674082,0.289172 -0.212407,0.09273 -0.425742,0.168591 -0.474077,0.168591 -0.04834,0 -0.152156,0.03389 -0.230712,0.07532 -0.07855,0.04143 -0.587,0.212213 -1.129876,0.379524 -0.542877,0.16731 -1.042569,0.332254 -1.110429,0.36654 -0.06786,0.03429 -0.371165,0.176739 -0.674011,0.316562 -0.722306,0.33349 -1.3618769,1.002515 -1.6151389,1.689524 -0.237379,0.643922 -0.510156,2.77524 -0.393629,3.075588 0.0393,0.101292 1.5853949,0.117238 11.3690759,0.117238 h 11.323589 z"
   id="path3881"
   inkscape:connector-curvature="0"
   inkscape:export-xdpi="96"
   inkscape:export-ydpi="96" /><path
   style="fill:#f73435;fill-opacity:1;stroke-width:0.07540238"
   d="m 33.807855,29.255549 v -0.377011 h 1.394944 c 1.062258,0 1.396477,-0.02248 1.401372,-0.09425 0.0265,-0.388487 -0.03392,-0.99599 -0.136853,-1.376094 -0.27095,-1.000554 -0.713656,-1.38977 -2.395555,-2.10611 -0.165885,-0.07065 -0.369472,-0.158243 -0.452414,-0.194645 -0.08294,-0.0364 -0.320461,-0.137299 -0.527817,-0.224214 -0.207357,-0.08691 -0.467075,-0.207526 -0.577152,-0.268026 -0.110077,-0.0605 -0.254284,-0.109997 -0.32046,-0.109997 -0.06618,0 -0.12032,-0.03123 -0.12032,-0.06941 0,-0.03818 -0.101793,-0.09177 -0.226207,-0.119096 -0.124414,-0.02732 -0.226208,-0.08092 -0.226208,-0.119095 0,-0.03818 -0.0387,-0.06941 -0.08599,-0.06941 -0.0871,0 -0.749461,-0.306152 -0.818834,-0.378477 -0.02074,-0.02162 -0.122529,-0.08078 -0.226207,-0.131477 -0.20449,-0.09999 -0.467559,-0.259214 -0.527817,-0.319473 -0.07949,-0.07949 -0.523697,-0.377012 -0.562886,-0.377012 -0.0442,0 -0.847344,-0.804321 -0.998657,-1.000119 -0.05016,-0.0649 -0.113296,-0.20606 -0.140307,-0.31368 -0.02701,-0.10762 -0.07928,-0.21432 -0.11616,-0.237112 -0.101479,-0.06272 -0.08026,-1.105058 0.0272,-1.336459 l 0.09425,-0.202951 2.427277,-6.03e-4 c 1.335002,-3.02e-4 2.4457,-0.0304 2.468218,-0.06683 0.03602,-0.05828 -0.06444,-0.331812 -0.253511,-0.690255 -0.03353,-0.06357 -0.08494,-0.224741 -0.114244,-0.358161 -0.0293,-0.133406 -0.08452,-0.242568 -0.122692,-0.242568 -0.03818,0 -0.06941,-0.05425 -0.06941,-0.120559 0,-0.06631 -0.04731,-0.22748 -0.105137,-0.358161 -0.399559,-0.902976 -0.714679,-2.50431 -0.877693,-4.460136 -0.04148,-0.497656 -0.106098,-0.989656 -0.143597,-1.093335 -0.0375,-0.103678 -0.08999,-0.374278 -0.116645,-0.601334 -0.02665,-0.227055 -0.07579,-0.447607 -0.109186,-0.490115 -0.0334,-0.04251 -0.08425,-0.207709 -0.112999,-0.367112 -0.170274,-0.944039 -1.28068,-2.2446472 -2.379104,-2.7866222 -0.452535,-0.223286 -0.545775,-0.241257 -1.251744,-0.241257 -0.819099,0 -1.002195,0.05501 -1.453428,0.436665 -0.362912,0.306954 -0.564559,0.365102 -1.345888,0.388109 l -0.694494,0.02045 -0.04844,-0.323005 c -0.02664,-0.177653 -0.02598,-0.359346 0.0015,-0.403762 0.02943,-0.04763 0.325416,-0.08076 0.721458,-0.08076 0.62579,0 0.688424,-0.01436 0.919229,-0.21067 0.453628,-0.385842 0.661013,-0.47325 1.311656,-0.552837 1.48441,-0.181573 2.499705,0.20357 3.669518,1.391997 0.99813,1.014012 1.463889,2.1658962 1.651408,4.0841582 0.04054,0.414713 0.105006,0.812942 0.143258,0.884955 0.03825,0.07201 0.07241,0.34346 0.07591,0.603219 0.0143,1.061066 0.407497,2.821586 0.871713,3.902998 0.319351,0.743943 0.845739,1.886258 1.016366,2.205618 l 0.151072,0.282759 -2.738161,0.0012 c -1.505988,6.03e-4 -2.785048,0.03085 -2.842354,0.06715 -0.07598,0.04812 -0.08958,0.144801 -0.05022,0.357006 0.07191,0.387731 0.284274,0.718956 0.62685,0.977698 0.154873,0.116974 0.322824,0.247842 0.373224,0.290816 0.220335,0.187873 0.310727,0.250089 0.747654,0.5146 0.254253,0.153922 0.497425,0.279858 0.540383,0.279858 0.04296,0 0.08942,0.02545 0.103241,0.05655 0.04305,0.09686 1.869005,0.957484 2.216515,1.044703 0.101086,0.02537 0.183794,0.07638 0.183794,0.113358 0,0.03697 0.03579,0.06723 0.07954,0.06723 0.04375,0 0.23885,0.07031 0.433563,0.156254 0.194714,0.08594 0.472784,0.207203 0.617934,0.269472 1.881897,0.80734 2.404597,1.555658 2.563441,3.669924 0.04305,0.573019 0.05871,1.073502 0.03481,1.112185 -0.02489,0.04027 -0.798924,0.07033 -1.810974,0.07033 h -1.767505 z"
   id="path3883"
   inkscape:connector-curvature="0"
   inkscape:export-xdpi="96"
   inkscape:export-ydpi="96" /></svg>