<?xml version="1.0" encoding="utf-8"?>
<!-- Generator: Adobe Illustrator 18.0.0, SVG Export Plug-In . SVG Version: 6.00 Build 0)  -->
<!DOCTYPE svg PUBLIC "-//W3C//DTD SVG 1.1//EN" "http://www.w3.org/Graphics/SVG/1.1/DTD/svg11.dtd">
<svg version="1.1" id="Capa_1" xmlns="http://www.w3.org/2000/svg" xmlns:xlink="http://www.w3.org/1999/xlink" x="0px" y="0px"
	 viewBox="0 0 45 45" enable-background="new 0 0 45 45" xml:space="preserve">
<path id="Shape_7_" fill="#A7A7A7" d="M23,2.7c-10.7,0-19.4,8.6-19.4,19.2S12.3,41,23,41s19.4-8.6,19.4-19.2S33.7,2.7,23,2.7z
	 M23,39.1c-9.7,0-17.5-7.8-17.5-17.3S13.3,4.5,23,4.5s17.5,7.8,17.5,17.3C40.5,31.4,32.7,39.1,23,39.1z"/>
<path id="Fill-16" fill="#F73435" d="M22.8,33.9c-0.5,0-0.9-0.4-0.9-0.8s0.4-0.8,0.9-0.8s0.9,0.4,0.9,0.8S23.3,33.9,22.8,33.9
	 M22.8,30.6c-1.4,0-2.5,1.1-2.5,2.4s1.1,2.4,2.5,2.4s2.5-1.1,2.5-2.4C25.2,31.7,24.1,30.6,22.8,30.6"/>
<path id="Fill-12" fill="#F73435" d="M21.8,21.8l-5.9,5.4c-0.5,0.5-0.5,1.4,0,1.9s1.5,0.5,2.1,0l4.8-4.4l5.1,4.6
	c0.5,0.5,1.5,0.5,2.1,0c0.5-0.5,0.5-1.4,0-1.9l-6.2-5.6C23.4,21.2,22.4,21.2,21.8,21.8"/>
<path id="Fill-12_1_" fill="#F73435" d="M21.8,14.3l-5.9,5.4c-0.5,0.5-0.5,1.4,0,1.9s1.5,0.5,2.1,0l4.8-4.4l5.1,4.6
	c0.5,0.5,1.5,0.5,2.1,0c0.5-0.5,0.5-1.4,0-1.9l-6.2-5.6C23.4,13.7,22.4,13.7,21.8,14.3"/>
<path id="Fill-12_2_" fill="#F73435" d="M21.8,6.8l-5.9,5.4c-0.5,0.5-0.5,1.4,0,1.9s1.5,0.5,2.1,0l4.8-4.4l5.1,4.6
	c0.5,0.5,1.5,0.5,2.1,0c0.5-0.5,0.5-1.4,0-1.9l-6.2-5.6C23.4,6.2,22.4,6.2,21.8,6.8"/>
</svg>
