<?xml version="1.0" encoding="UTF-8"?>
<svg width="41px" height="38px" viewBox="0 0 41 38" version="1.1" xmlns="http://www.w3.org/2000/svg" xmlns:xlink="http://www.w3.org/1999/xlink">
    <!-- Generator: Sketch 52.2 (67145) - http://www.bohemiancoding.com/sketch -->
    <title>Days_from_the_Oldest_Open_Finding</title>
    <desc>Created with Sketch.</desc>
    <g id="Page-1" stroke="none" stroke-width="1" fill="none" fill-rule="evenodd">
        <g id="Days_from_the_Oldest_Open_Finding" transform="translate(1.000000, 0.300000)">
            <g id="Group" fill="#A7A7A7" stroke="#A7A7A7" stroke-width="0.65">
                <path d="M35.1239487,2.45869565 L30.9746184,2.45869565 L30.9746184,0.687377279 C30.9746184,0.34368864 30.7367587,0.105750351 30.3931836,0.105750351 L28.0145866,0.105750351 C27.6710115,0.105750351 27.4331518,0.34368864 27.4331518,0.687377279 L27.4331518,2.45869565 L19.7159261,2.45869565 L19.7159261,0.687377279 C19.7159261,0.34368864 19.4780664,0.105750351 19.1344913,0.105750351 L16.7558943,0.105750351 C16.4123192,0.105750351 16.1744595,0.34368864 16.1744595,0.687377279 L16.1744595,2.45869565 L8.4572337,2.45869565 L8.4572337,0.687377279 C8.4572337,0.34368864 8.21937401,0.105750351 7.87579889,0.105750351 L5.49720191,0.105750351 C5.15362679,0.105750351 4.91576709,0.34368864 4.91576709,0.687377279 L4.91576709,2.45869565 L0.687150238,2.45869565 C0.343575119,2.45869565 0.105715421,2.69663394 0.105715421,3.04032258 L0.105715421,12.5578541 L0.105715421,35.135554 C0.105715421,35.4792426 0.343575119,35.7171809 0.687150238,35.7171809 L27.221721,35.7171809 L27.221721,34.5274895 L1.26858506,34.5274895 L1.26858506,13.1394811 L34.5425139,13.1394811 L34.5425139,19.6695652 L35.7318124,19.6695652 L35.7318124,12.5314165 L35.7318124,3.01388499 C35.7318124,2.69663394 35.4939527,2.45869565 35.1239487,2.45869565 Z M28.5960215,1.26900421 L29.78532,1.26900421 L29.78532,6.02776999 L28.5960215,6.02776999 L28.5960215,1.26900421 Z M17.3109002,1.26900421 L18.5001987,1.26900421 L18.5001987,6.02776999 L17.3109002,6.02776999 L17.3109002,1.26900421 Z M6.02577901,1.26900421 L7.2150775,1.26900421 L7.2150775,6.02776999 L6.02577901,6.02776999 L6.02577901,1.26900421 Z M1.26858506,11.9762272 L1.26858506,3.6483871 L4.83648052,3.6483871 L4.83648052,6.60939691 C4.83648052,6.95308555 5.07434022,7.19102384 5.41791534,7.19102384 L7.79651232,7.19102384 C8.14008744,7.19102384 8.37794714,6.95308555 8.37794714,6.60939691 L8.37794714,3.6483871 L16.1216017,3.6483871 L16.1216017,6.60939691 C16.1216017,6.95308555 16.3594614,7.19102384 16.7030366,7.19102384 L19.0816335,7.19102384 C19.4252087,7.19102384 19.6630684,6.95308555 19.6630684,6.60939691 L19.6630684,3.6483871 L27.3802941,3.6483871 L27.3802941,6.60939691 C27.3802941,6.95308555 27.6181538,7.19102384 27.9617289,7.19102384 L30.3403259,7.19102384 C30.683901,7.19102384 30.9217607,6.95308555 30.9217607,6.60939691 L30.9217607,3.6483871 L34.4896562,3.6483871 L34.4896562,11.9762272 L1.26858506,11.9762272 Z" id="Shape" fill-rule="nonzero"></path>
                <path d="M10.1751093,15.5453015 C10.1751093,15.2016129 9.9372496,14.9636746 9.59367448,14.9636746 L4.83648052,14.9636746 C4.49290541,14.9636746 4.25504571,15.2016129 4.25504571,15.5453015 L4.25504571,20.3040673 C4.25504571,20.647756 4.49290541,20.8856942 4.83648052,20.8856942 L9.59367448,20.8856942 C9.9372496,20.8856942 10.1751093,20.647756 10.1751093,20.3040673 L10.1751093,15.5453015 Z M8.98581081,19.6960028 L5.41791534,19.6960028 L5.41791534,16.1269285 L8.98581081,16.1269285 L8.98581081,19.6960028 Z" id="Shape" fill-rule="nonzero"></path>
                <path d="M17.3109002,15.5453015 C17.3109002,15.2016129 17.0730405,14.9636746 16.7294654,14.9636746 L11.9722715,14.9636746 C11.6286963,14.9636746 11.3908366,15.2016129 11.3908366,15.5453015 L11.3908366,20.3040673 C11.3908366,20.647756 11.6286963,20.8856942 11.9722715,20.8856942 L16.7294654,20.8856942 C17.0730405,20.8856942 17.3109002,20.647756 17.3109002,20.3040673 L17.3109002,15.5453015 Z M16.1216017,19.6960028 L12.5537063,19.6960028 L12.5537063,16.1269285 L16.1216017,16.1269285 L16.1216017,19.6960028 Z" id="Shape" fill-rule="nonzero"></path>
                <path d="M10.1751093,29.7951613 L10.1751093,25.0363955 C10.1751093,24.6927069 9.9372496,24.4547686 9.59367448,24.4547686 L4.83648052,24.4547686 C4.49290541,24.4547686 4.25504571,24.6927069 4.25504571,25.0363955 L4.25504571,29.7951613 C4.25504571,30.1388499 4.49290541,30.3767882 4.83648052,30.3767882 L9.59367448,30.3767882 C9.9372496,30.4032258 10.1751093,30.1652875 10.1751093,29.7951613 Z M8.98581081,29.2135344 L5.41791534,29.2135344 L5.41791534,25.64446 L8.98581081,25.64446 L8.98581081,29.2135344 Z" id="Shape" fill-rule="nonzero"></path>
                <path d="M17.3109002,29.7951613 L17.3109002,25.0363955 C17.3109002,24.6927069 17.0730405,24.4547686 16.7294654,24.4547686 L11.9722715,24.4547686 C11.6286963,24.4547686 11.3908366,24.6927069 11.3908366,25.0363955 L11.3908366,29.7951613 C11.3908366,30.1388499 11.6286963,30.3767882 11.9722715,30.3767882 L16.7294654,30.3767882 C17.0730405,30.4032258 17.3109002,30.1652875 17.3109002,29.7951613 Z M16.1216017,29.2135344 L12.5537063,29.2135344 L12.5537063,25.64446 L16.1216017,25.64446 L16.1216017,29.2135344 Z" id="Shape" fill-rule="nonzero"></path>
                <rect id="Rectangle-path" x="4.22861685" y="22.0753857" width="1.18929849" height="1.18969144"></rect>
                <rect id="Rectangle-path" x="6.60721383" y="22.0753857" width="1.18929849" height="1.18969144"></rect>
                <rect id="Rectangle-path" x="11.3644078" y="22.0753857" width="1.18929849" height="1.18969144"></rect>
                <rect id="Rectangle-path" x="13.7430048" y="22.0753857" width="1.18929849" height="1.18969144"></rect>
                <rect id="Rectangle-path" x="4.22861685" y="31.5929173" width="1.18929849" height="1.18969144"></rect>
                <rect id="Rectangle-path" x="6.60721383" y="31.5929173" width="1.18929849" height="1.18969144"></rect>
                <rect id="Rectangle-path" x="11.3644078" y="31.5929173" width="1.18929849" height="1.18969144"></rect>
                <rect id="Rectangle-path" x="13.7430048" y="31.5929173" width="1.18929849" height="1.18969144"></rect>
            </g>
            <g id="Group" transform="translate(21.143084, 18.506311)">
                <ellipse id="Oval" stroke="#A7A7A7" stroke-width="1.48083936" fill="#FFFFFF" cx="8.9329531" cy="9.04165498" rx="8.85366653" ry="8.85659187"></ellipse>
                <g id="Shape" transform="translate(3.964328, 5.551893)" fill="#F73435" stroke="#F73435" stroke-width="0.74041968">
                    <path d="M4.14933029,5.84270687 L1.32144277,3.04032258 C1.05715421,2.7759467 0.607863672,2.7759467 0.317146264,3.04032258 C0.0264288553,3.30469846 0.0528577107,3.75413745 0.317146264,4.04495091 L3.11860493,6.8473352 C3.25074921,6.97952314 3.43575119,7.0588359 3.62075318,7.0588359 C3.80575517,7.0588359 3.99075715,6.97952314 4.12290143,6.8473352 C4.41361884,6.58295933 4.41361884,6.13352034 4.14933029,5.84270687 Z" id="Path"></path>
                    <path d="M9.75224762,0.237938289 C9.48795906,-0.0264375877 9.03866852,-0.0264375877 8.74795111,0.237938289 L3.11860493,5.86914446 C2.85431638,6.13352034 2.85431638,6.58295933 3.11860493,6.87377279 C3.25074921,7.00596073 3.43575119,7.08527349 3.62075318,7.08527349 C3.80575517,7.08527349 3.99075715,7.00596073 4.12290143,6.87377279 L9.75224762,1.24256662 C10.042965,0.951753156 10.042965,0.502314165 9.75224762,0.237938289 Z" id="Path"></path>
                </g>
            </g>
        </g>
    </g>
</svg>