<?xml version="1.0" encoding="utf-8"?>
<!-- Generator: Adobe Illustrator 18.0.0, SVG Export Plug-In . SVG Version: 6.00 Build 0)  -->
<!DOCTYPE svg PUBLIC "-//W3C//DTD SVG 1.1//EN" "http://www.w3.org/Graphics/SVG/1.1/DTD/svg11.dtd">
<svg version="1.1" id="Capa_1" xmlns="http://www.w3.org/2000/svg" xmlns:xlink="http://www.w3.org/1999/xlink" x="0px" y="0px"
	 viewBox="0 0 43.3 43.9" enable-background="new 0 0 43.3 43.9" xml:space="preserve">
<g>
	<path fill="#FF3435" d="M17.8,25.5c0,1.6,1.4,2.8,3.3,2.8c1.8,0,3.3-1.2,3.3-2.8V14l2.2-1.6V9H15.8v3.4l2,1.7
		C17.8,14.1,17.8,25.5,17.8,25.5z M23.1,22.9h-4v-5.3h4V22.9z M21.8,16.6v-2.1h-1.3v2.1h-1.3V14l2-3.2l2,3.2v2.6
		C23.1,16.6,21.8,16.6,21.8,16.6z M21.1,27.1c-1.1,0-2-0.8-2-1.7v-1.7h4v1.7C23.1,26.4,22.3,27.1,21.1,27.1z M25.1,10.3v2L24,13.1
		l-1.9-2.9H25.1z M17,10.3h3L18.1,13L17,12.1V10.3z"/>
</g>
<g>
	<path id="Shape_10_" fill="#434343" d="M26.6,30.7l0,3c0,0.3,0.2,0.5,0.5,0.5c0.3,0,0.5-0.3,0.5-0.5l0-2.5l2.6,0
		c0.3,0,0.5-0.3,0.5-0.5c0-0.3-0.2-0.5-0.5-0.5l-3.2,0C26.9,30.1,26.6,30.4,26.6,30.7z"/>
</g>
<g>
	<path id="Shape_2_" fill="#FF3435" d="M21.4,5.1L23.6,3c0.2-0.2,0.2-0.6,0-0.8C23.3,2,23,2,22.8,2.2L21,4l-1.9-1.8
		c-0.2-0.2-0.6-0.2-0.8,0c-0.2,0.2-0.2,0.6,0,0.8l2.3,2.2C20.8,5.3,21.2,5.3,21.4,5.1z"/>
	<path id="Shape_1_" fill="#FF3435" d="M21.5,7.8l2.1-2.1c0.2-0.2,0.2-0.6,0-0.8c-0.2-0.2-0.6-0.2-0.8,0l-1.8,1.8l-1.9-1.8
		c-0.2-0.2-0.6-0.2-0.8,0c-0.2,0.2-0.2,0.6,0,0.8l2.3,2.2C20.9,8,21.3,8,21.5,7.8z"/>
</g>
<g id="Page-1">
	<g id="Open_Vulnerabilities">
		<path id="Fill-4" fill="#A8A9A8" d="M35.4,40.4H7.5c-0.9,0-1.8-0.6-2.1-1.5h32.1C37.2,39.8,36.3,40.4,35.4,40.4 M38.2,37.4H4.5
			c-0.4,0-0.8,0.3-0.8,0.8c0,2.1,1.7,3.8,3.6,3.8h27.9c2,0,3.6-1.7,3.6-3.8C39,37.7,38.7,37.4,38.2,37.4"/>
		<path id="Fill-6" fill="#A8A9A8" d="M8.4,17.7c-1.2,0-2.3,0.9-2.3,2V38h1.5V19.7c0-0.3,0.3-0.6,0.8-0.6h4.1v-1.4
			C12.5,17.8,8.4,17.8,8.4,17.7z"/>
		<path id="Fill-8" fill="#A8A9A8" d="M34.6,17.7h-4v1.4h4c0.5,0,0.8,0.3,0.8,0.6V38h1.5V19.7C36.9,18.5,35.9,17.7,34.6,17.7"/>
		<polygon id="Fill-10" fill="#A8A9A8" points="18.6,39.7 24.5,39.7 24.5,38.2 18.6,38.2 		"/>
	</g>
</g>
</svg>
