<?xml version="1.0" encoding="utf-8"?>
<!-- Generator: Adobe Illustrator 18.0.0, SVG Export Plug-In . SVG Version: 6.00 Build 0)  -->
<!DOCTYPE svg PUBLIC "-//W3C//DTD SVG 1.1//EN" "http://www.w3.org/Graphics/SVG/1.1/DTD/svg11.dtd">
<svg version="1.1" id="Capa_1" xmlns="http://www.w3.org/2000/svg" xmlns:xlink="http://www.w3.org/1999/xlink" x="0px" y="0px"
	 viewBox="1.1 0 43.9 45" enable-background="new 1.1 0 43.9 45" xml:space="preserve">
<g id="Page-1">
	<g id="Open_Vulnerabilities">
		<path id="Fill-4" fill="#A8A9A8" d="M36.6,42H8.7c-0.9,0-1.8-0.6-2.1-1.5h32.1C38.4,41.4,37.5,42,36.6,42 M39.4,39H5.7
			c-0.4,0-0.8,0.3-0.8,0.8c0,2.1,1.7,3.8,3.6,3.8h27.9c2,0,3.6-1.7,3.6-3.8C40.2,39.3,39.9,39,39.4,39"/>
		<path id="Fill-6" fill="#A8A9A8" d="M9.6,19.3c-1.2,0-2.3,0.9-2.3,2v18.3h1.5V21.3c0-0.3,0.3-0.6,0.8-0.6h4.1v-1.4
			C13.7,19.4,9.6,19.4,9.6,19.3z"/>
		<path id="Fill-8" fill="#A8A9A8" d="M35.8,19.3h-4v1.4h4c0.5,0,0.8,0.3,0.8,0.6v18.3h1.5V21.3C38.1,20.1,37.1,19.3,35.8,19.3"/>
		<polygon id="Fill-10" fill="#A8A9A8" points="19.8,41.3 25.7,41.3 25.7,39.8 19.8,39.8 		"/>
	</g>
</g>
<path fill="#FF3435" d="M17.1,12.6c-0.4,0-0.9,0.2-1.2,0.6c-0.3,0.3-0.4,0.8-0.3,1.1l0.4,2.3c0.2,0.5,0.5,0.9,0.9,1.3l2.4,1.7v3.9
	c0,1,0.3,2.3,0.8,3.1l0.9,1.8c0.3,0.8,1.2,1.2,1.9,1.2c0.9,0,1.7-0.4,2-1.2l0.9-1.8c0.5-1.1,0.7-2.1,0.7-3.1v-3.9l2.4-1.7
	c0.5-0.3,0.8-0.8,0.9-1.3l0.4-2.1c0.1-0.4,0-0.9-0.3-1.2s-0.8-0.6-1.2-0.6h-3.3c0.1-0.4,0.3-0.9,0.3-1.3c0-1.7-2.3-3.8-2.4-4.1
	C23,7,22.5,7,22.2,7.3c-0.3,0.3-2.4,2.4-2.4,4c0,0.5,0.1,0.9,0.3,1.3C20.1,12.6,17.1,12.6,17.1,12.6z M25.2,14.3v1.3h-4.5v-1.3H25.2
	z M20.7,18.5v-1.4h4.5v1.4H20.7z M17.4,16.3l-0.4-2h2.3v3.6l-1.5-1C17.5,16.7,17.5,16.5,17.4,16.3z M24.6,26.1l-0.9,2
	c-0.1,0.3-0.5,0.4-0.6,0.4s-0.6-0.1-0.6-0.4l-0.9-2c-0.4-0.9-0.6-1.8-0.6-2.7v-3.9h4.5v3.9C25.2,24.3,25,25.2,24.6,26.1z M28.9,14.3
	l-0.4,2.1c0,0.2-0.2,0.3-0.3,0.5l-1.5,1v-3.6C26.7,14.3,28.9,14.3,28.9,14.3z M21.2,11.5c0-0.8,0.9-1.8,1.6-2.7
	c0.9,0.9,1.6,2.1,1.6,2.7c0,1.2-0.4,1.5-1.6,1.5C21.8,13.2,21.2,12.8,21.2,11.5z"/>
<g>
	<rect x="17.3" y="7.9" fill="#FF3435" width="1" height="4"/>
</g>
<g>
	<rect x="27.2" y="8.2" fill="#FF3435" width="1" height="4"/>
</g>
<g>
	<path id="Shape_10_" fill="#434343" d="M27,31.4l0,3c0,0.3,0.2,0.5,0.5,0.5c0.3,0,0.5-0.3,0.5-0.5l0-2.5l2.6,0
		c0.3,0,0.5-0.3,0.5-0.5c0-0.3-0.2-0.5-0.5-0.5l-3.2,0C27.3,30.8,27,31.1,27,31.4z"/>
</g>
<g>
	<path id="Shape_2_" fill="#FF3435" d="M22.3,4.1l-2.1,2.1C20,6.5,20,6.8,20.2,7c0.2,0.2,0.6,0.2,0.8,0l1.8-1.8l1.9,1.8
		c0.2,0.2,0.6,0.2,0.8,0c0.2-0.2,0.2-0.6,0-0.8l-2.3-2.2C22.9,3.9,22.6,3.9,22.3,4.1z"/>
	<path id="Shape_1_" fill="#FF3435" d="M22.3,1.8L20.2,4c-0.2,0.2-0.2,0.6,0,0.8C20.4,5,20.8,5,21,4.8L22.7,3l1.9,1.8
		c0.2,0.2,0.6,0.2,0.8,0c0.2-0.2,0.2-0.6,0-0.8l-2.3-2.2C22.9,1.6,22.6,1.6,22.3,1.8z"/>
</g>
</svg>
