<?xml version="1.0" encoding="utf-8"?>
<!-- Generator: Adobe Illustrator 18.0.0, SVG Export Plug-In . SVG Version: 6.00 Build 0)  -->
<!DOCTYPE svg PUBLIC "-//W3C//DTD SVG 1.1//EN" "http://www.w3.org/Graphics/SVG/1.1/DTD/svg11.dtd">
<svg version="1.1" id="Capa_1" xmlns="http://www.w3.org/2000/svg" xmlns:xlink="http://www.w3.org/1999/xlink" x="0px" y="0px"
	 viewBox="0 0 45 45" enable-background="new 0 0 45 45" xml:space="preserve">
<path id="Shape_5_" fill="#A7A7A7" d="M23,2.7c-10.7,0-19.4,8.6-19.4,19.2S12.3,41,23,41s19.4-8.6,19.4-19.2S33.7,2.7,23,2.7z
	 M23,39.1c-9.7,0-17.5-7.8-17.5-17.3S13.3,4.5,23,4.5s17.5,7.8,17.5,17.3C40.5,31.4,32.7,39.1,23,39.1z"/>
<g>
	<path fill="#FF3435" d="M11.1,20.7c0,0.1-0.1,0.2-0.2,0.2c0,0.2,0,0.4,0.1,0.5l0.1,0.1c0.1,0,0.1,0,0.1,0.1l0.1,0.1
		c0.2,0.1,0.5,0.1,0.7-0.1c12-8.4,20.7-0.4,21.1-0.1c0.2,0.2,0.4,0.2,0.7,0.2c0.1-0.1,0.2-0.1,0.3-0.1c0,0,0.1,0,0.1-0.1
		c0.3-0.3,0.3-0.8,0-1.1c0,0-0.3-0.3-0.8-0.6l0,0c-0.2-0.1-0.3-0.2-0.3-0.2c-0.3-0.2-0.7-0.4-1-0.6l0,0c-0.8-0.5-1.9-1.1-3.2-1.5
		v-0.1c-5.8-1.8-13-0.6-17.5,3.1c-0.1,0.1-0.2,0.1-0.3,0.1C11.2,20.7,11.2,20.7,11.1,20.7z"/>
	<path fill="#FF3435" d="M35.4,23.5l-1.2-1.6l0.2-0.1c0.3-0.2,0.4-0.7,0.2-1.1l-0.1-0.1c-0.1,0-0.1,0-0.1-0.1l-0.1-0.1
		c-0.2-0.1-0.5-0.1-0.7,0.1c-12,8.4-20.7,0.4-21.1,0.1c-0.2-0.2-0.4-0.2-0.7-0.2c-0.1,0.1-0.2,0.1-0.3,0.1c0,0-0.1,0-0.1,0.1
		c-0.3,0.3-0.3,0.8,0,1.1c0,0,0.3,0.3,0.8,0.6l-1.5,2.5c-0.2,0.4-0.1,0.8,0.3,1.1c0.1,0.1,0.3,0.1,0.4,0.1c0.3,0,0.5-0.1,0.7-0.4
		l1.5-2.5c0.8,0.5,1.9,1.1,3.2,1.5l-0.7,2.5c-0.1,0.4,0.1,0.8,0.5,1h0.2c0.3,0,0.6-0.2,0.7-0.5l0.7-2.4c1.2,0.3,2.5,0.5,3.9,0.6v2.4
		c0,0.4,0.3,0.8,0.8,0.8c0.4,0,0.8-0.3,0.8-0.8v-2.5c1.2-0.1,2.6-0.3,4-0.7l0.9,2.5c0.1,0.3,0.4,0.5,0.7,0.5h0.3
		c0.4-0.2,0.6-0.6,0.4-1l-1-2.3c1.3-0.5,2.6-1.1,3.9-1.9l1.2,1.7c0.2,0.2,0.4,0.3,0.6,0.3c0.2,0,0.3,0,0.5-0.2
		C35.6,24.3,35.6,23.8,35.4,23.5z"/>
</g>
</svg>
