<?xml version="1.0" encoding="utf-8"?>
<!-- Generator: Adobe Illustrator 18.0.0, SVG Export Plug-In . SVG Version: 6.00 Build 0)  -->
<!DOCTYPE svg PUBLIC "-//W3C//DTD SVG 1.1//EN" "http://www.w3.org/Graphics/SVG/1.1/DTD/svg11.dtd">
<svg version="1.1" id="Capa_1" xmlns="http://www.w3.org/2000/svg" xmlns:xlink="http://www.w3.org/1999/xlink" x="0px" y="0px"
	 viewBox="0 0 45 45" enable-background="new 0 0 45 45" xml:space="preserve">
<path id="Shape_5_" fill="#A7A7A7" d="M23,2.7c-10.7,0-19.4,8.6-19.4,19.2S12.3,41,23,41s19.4-8.6,19.4-19.2S33.7,2.7,23,2.7z
	 M23,39.1c-9.7,0-17.5-7.8-17.5-17.3S13.3,4.5,23,4.5s17.5,7.8,17.5,17.3C40.5,31.4,32.7,39.1,23,39.1z"/>
<path fill="#FF3435" d="M18.1,21.8c0,2.6,2.1,4.7,4.7,4.7s4.7-2.1,4.7-4.7s-2.1-4.7-4.7-4.7C20.2,17.2,18.1,19.3,18.1,21.8z
	 M22.8,18.3c1.9,0,3.5,1.6,3.5,3.5s-1.6,3.5-3.5,3.5s-3.5-1.6-3.5-3.5S20.8,18.3,22.8,18.3z M22.2,24.2c0-0.3,0.3-0.6,0.6-0.6
	c1,0,1.8-0.8,1.8-1.8c0-0.3,0.3-0.6,0.6-0.6c0.3,0,0.6,0.3,0.6,0.6c0,1.6-1.3,2.9-2.9,2.9C22.5,24.8,22.2,24.5,22.2,24.2z
	 M22.8,15.6c-6.8,0-12.1,5.6-12.3,5.9c-0.2,0.2-0.2,0.6,0,0.8c0.2,0.2,5.6,5.9,12.3,5.9c6.8,0,12.1-5.6,12.3-5.9
	c0.2-0.2,0.2-0.6,0-0.8C34.9,21.2,29.5,15.6,22.8,15.6z M22.8,27c-5.3,0-9.8-3.9-11.1-5.1c1.3-1.3,5.9-5.1,11.1-5.1
	c5.3,0,9.8,3.9,11.1,5.1C32.6,23.1,28,27,22.8,27z"/>
</svg>
