<?xml version="1.0" encoding="UTF-8"?>
<svg width="24px" height="29px" viewBox="0 0 24 29" version="1.1" xmlns="http://www.w3.org/2000/svg" xmlns:xlink="http://www.w3.org/1999/xlink">
    <!-- Generator: Sketch 52.2 (67145) - http://www.bohemiancoding.com/sketch -->
    <title>delete</title>
    <desc>Created with Sketch.</desc>
    <g id="Page-1" stroke="none" stroke-width="1" fill="none" fill-rule="evenodd">
        <g id="delete" fill="#F73435">
            <path d="M20.6095884,3.4744408 L15.9898287,3.4744408 C15.759376,1.52180735 14.0591563,0 11.9999692,0 C9.94084369,0 8.24087009,1.52174724 8.01041733,3.4744408 L3.39041164,3.4744408 C1.52082826,3.4744408 0,4.96090202 0,6.78765995 L0,6.95765802 C0,8.35364997 0.88957472,9.54850558 2.14273081,10.0353565 L2.14273081,25.6867809 C2.14273081,27.5135989 3.66374363,29 5.53320397,29 L18.4668575,29 C20.3363794,29 21.8572692,27.5134787 21.8572692,25.6867809 L21.8572692,10.0354166 C23.1103638,9.54850558 24,8.35364997 24,6.95771813 L24,6.78772006 C24,4.96090202 22.4790487,3.4744408 20.6095884,3.4744408 Z M11.9999692,1.57127992 C13.1711196,1.57127992 14.1486675,2.39151461 14.3649707,3.4744408 L9.63539843,3.4744408 C9.85164014,2.39145449 10.8292495,1.57127992 11.9999692,1.57127992 Z M20.249206,25.6867809 C20.249206,26.6472579 19.44945,27.4287802 18.466796,27.4287802 L5.53314245,27.4287802 C4.55048844,27.4287802 3.75073247,26.6471978 3.75073247,25.6867809 L3.75073247,10.2708772 L20.249206,10.2708772 L20.249206,25.6867809 Z M22.3919368,6.95765802 C22.3919368,7.9181351 21.5921808,8.69965736 20.6095268,8.69965736 L3.39041164,8.69965736 C2.40775763,8.69965736 1.60800166,7.9181351 1.60800166,6.95765802 L1.60800166,6.78765995 C1.60800166,5.82718286 2.40775763,5.0456606 3.39041164,5.0456606 L20.6095884,5.0456606 C21.5922424,5.0456606 22.3919983,5.82718286 22.3919983,6.78765995 L22.3919983,6.95765802 L22.3919368,6.95765802 Z" id="Shape" fill-rule="nonzero"></path>
            <path d="M8,26 C8.55229933,26 9,25.628471 9,25.1704868 L9,15.8296401 C9,15.3715925 8.55222282,15 8,15 C7.44777718,15 7,15.3715925 7,15.8296401 L7,25.1704868 C6.99992348,25.628598 7.44770067,26 8,26 Z" id="Path"></path>
            <path d="M11.9999617,26 C12.5522399,26 13,25.628471 13,25.1704868 L13,15.8296401 C13,15.3715925 12.5520869,15 11.9999617,15 C11.4477601,15 11,15.3715925 11,15.8296401 L11,25.1704868 C11,25.628598 11.4476835,26 11.9999617,26 Z" id="Path"></path>
            <path d="M16.0000765,26 C16.5522993,26 17,25.628471 17,25.1704868 L17,15.8296401 C17,15.3715925 16.5522228,15 16.0000765,15 C15.4477007,15 15,15.3715925 15,15.8296401 L15,25.1704868 C14.9999235,25.628598 15.4478537,26 16.0000765,26 Z" id="Path"></path>
        </g>
    </g>
</svg>