<?xml version="1.0" encoding="UTF-8"?>
<svg width="28px" height="28px" viewBox="0 0 28 28" version="1.1" xmlns="http://www.w3.org/2000/svg" xmlns:xlink="http://www.w3.org/1999/xlink">
    <!-- Generator: Sketch 52.2 (67145) - http://www.bohemiancoding.com/sketch -->
    <title>edit</title>
    <desc>Created with Sketch.</desc>
    <g id="Page-1" stroke="none" stroke-width="1" fill="none" fill-rule="evenodd">
        <g id="edit" fill="#F73435">
            <path d="M25.3168499,17.1079589 C24.9395161,17.1079589 24.6336997,17.4145951 24.6336997,17.7929402 L24.6336997,23.8748256 C24.6323654,25.009326 23.7157168,25.9286994 22.5842494,25.9297697 L3.41575063,25.9297697 C2.28428323,25.9286994 1.36763451,25.009326 1.36630025,23.8748256 L1.36630025,6.02490684 C1.36763451,4.890674 2.28428323,3.97130057 3.41575063,3.96996274 L9.48137652,3.96996274 C9.85871026,3.96996274 10.1645266,3.66332651 10.1645266,3.28498137 C10.1645266,2.90690378 9.85871026,2.6 9.48137652,2.6 L3.41575063,2.6 C1.53014957,2.60214057 0.00213484414,4.1342512 0,6.02490684 L0,23.8750932 C0.00213484414,25.7657488 1.53014957,27.2978594 3.41575063,27.3 L22.5842494,27.3 C24.4698504,27.2978594 25.9978652,25.7657488 26,23.8750932 L26,17.7929402 C26,17.4145951 25.6941835,17.1079589 25.3168499,17.1079589 Z" id="Path"></path>
            <path d="M25.6450813,0.876135826 C24.4767965,-0.292045275 22.5827157,-0.292045275 21.4144308,0.876135826 L9.55448302,12.735031 C9.47320427,12.8163026 9.41451734,12.9170482 9.38387554,13.0276606 L7.82425816,18.6577277 C7.76011803,18.8885596 7.8252968,19.1357498 7.99460598,19.3053035 C8.16417476,19.4745976 8.41138684,19.5397706 8.64223929,19.4758958 L14.2728061,17.9161572 C14.3834283,17.8855181 14.4841828,17.8268364 14.5654616,17.7455648 L26.4251497,5.88641 C27.5916168,4.71744992 27.5916168,2.82509512 26.4251497,1.65613498 L25.6450813,0.876135826 Z M11.0029589,13.1670945 L20.7094089,3.46124619 L23.8398099,6.5913693 L14.1331001,16.2972176 L11.0029589,13.1670945 Z M10.3776577,14.4217402 L12.8786027,16.9227229 L9.41919155,17.881104 L10.3776577,14.4217402 Z M25.4851205,4.94646428 L24.7800987,5.65142359 L21.6494381,2.52104084 L22.3547196,1.81608154 C23.0036513,1.1672074 24.0558608,1.1672074 24.7047925,1.81608154 L25.4851205,2.59608069 C26.1330136,3.24573381 26.1330136,4.29707087 25.4851205,4.94646428 Z" id="Shape" fill-rule="nonzero"></path>
        </g>
    </g>
</svg>