<?xml version="1.0" encoding="UTF-8"?>
<svg width="28px" height="26px" viewBox="0 0 28 26" version="1.1" xmlns="http://www.w3.org/2000/svg" xmlns:xlink="http://www.w3.org/1999/xlink">
    <!-- Generator: Sketch 52.2 (67145) - http://www.bohemiancoding.com/sketch -->
    <title>export</title>
    <desc>Created with Sketch.</desc>
    <g id="Page-1" stroke="none" stroke-width="1" fill="none" fill-rule="evenodd">
        <g id="export" fill="#F73435" fill-rule="nonzero">
            <g id="download-arrow" transform="translate(0.000000, 0.000000)">
                <path d="M20.6726554,13.6052177 C20.963248,13.3205602 20.963248,12.872417 20.6726554,12.5877595 C20.39188,12.303102 19.9245757,12.303102 19.6444548,12.5877595 L14.3777906,17.7372392 L14.3777906,0.722542782 C14.3777906,0.325689205 14.0557825,0 13.6506545,0 C13.2455265,0 12.9130466,0.325689205 12.9130466,0.722542782 L12.9130466,17.7372392 L7.65685414,12.5877595 C7.36626151,12.303102 6.89830265,12.303102 6.61818182,12.5877595 C6.32758918,12.872417 6.32758918,13.3205602 6.61818182,13.6052177 L13.1316456,19.9856488 C13.4124209,20.2606895 13.8797253,20.2606895 14.1703179,19.9856488 L20.6726554,13.6052177 Z M25.835256,18.2764216 C25.835256,17.879568 26.1572641,17.5641367 26.5623921,17.5641367 C26.9675201,17.5641367 27.3,17.879568 27.3,18.2764216 L27.3,25.2774572 C27.3,25.6743108 26.9675201,26 26.5623921,26 L0.727136076,26 C0.322008055,26 0,25.6743108 0,25.2774572 L0,18.2764216 C0,17.879568 0.322008055,17.5641367 0.727136076,17.5641367 C1.1322641,17.5641367 1.46474396,17.879568 1.46474396,18.2764216 L1.46474396,24.5651724 L25.835256,24.5651724 L25.835256,18.2764216 Z" id="Shape"></path>
            </g>
        </g>
    </g>
</svg>