<?xml version="1.0" encoding="UTF-8"?>
<svg width="45px" height="45px" viewBox="0 0 45 45" version="1.1" xmlns="http://www.w3.org/2000/svg" xmlns:xlink="http://www.w3.org/1999/xlink">
    <!-- Generator: Sketch 52.2 (67145) - http://www.bohemiancoding.com/sketch -->
    <title>Findings</title>
    <desc>Created with Sketch.</desc>
    <g id="Page-1" stroke="none" stroke-width="1" fill="none" fill-rule="evenodd">
        <g id="Findings" transform="translate(0.000000, 0.000000)">
            <path d="M22.51504,3.15800458 C11.7994546,3.15800458 3.11512024,11.741744 3.11512024,22.3332055 C3.11512024,32.924667 11.7994546,41.5084065 22.51504,41.5084065 C33.2306255,41.5084065 41.8855214,32.924667 41.9149598,22.3332055 C41.8855214,11.741744 33.2011871,3.15800458 22.51504,3.15800458 Z M22.51504,39.6461715 C12.8297994,39.6461715 4.9697408,31.8771599 4.9697408,22.3041081 C4.9697408,12.7310563 12.8297994,4.96204473 22.51504,4.96204473 C32.2002807,4.96204473 40.0309009,12.7310563 40.0603393,22.3041081 C40.0309009,31.9062573 32.2002807,39.6461715 22.51504,39.6461715 Z" id="Shape" fill="#A7A7A7" fill-rule="nonzero"></path>
            <rect id="Rectangle-path" fill="#A7A7A7" x="21.5730105" y="0.422846936" width="1.85462056" height="7.30345286"></rect>
            <rect id="Rectangle-path" fill="#A7A7A7" x="21.5730105" y="36.9110138" width="1.85462056" height="7.30345286"></rect>
            <rect id="Rectangle-path" fill="#A7A7A7" x="0.347908618" y="21.402088" width="7.38904381" height="1.83313757"></rect>
            <rect id="Rectangle-path" fill="#A7A7A7" x="37.2636892" y="21.402088" width="7.38904381" height="1.83313757"></rect>
            <path d="M34.0843397,20.7910422 L29.9923991,16.775598 C29.5802612,16.3682341 28.9326159,16.3682341 28.520478,16.775598 C28.1083401,17.1829619 28.1083401,17.8231051 28.520478,18.2304691 L31.8764581,21.5184777 L28.3732859,25.0101683 C27.961148,25.4175322 27.961148,26.0576755 28.3732859,26.4650394 C28.7854238,26.8724033 29.4330691,26.8724033 29.845207,26.4650394 L34.0843397,22.2459133 C34.4964776,21.8385494 34.4964776,21.1693087 34.0843397,20.7910422 Z" id="Shape" fill="#F73435"></path>
            <path d="M11.6522625,20.7910422 L15.7442031,16.775598 C16.156341,16.3682341 16.8039863,16.3682341 17.2161242,16.775598 C17.6282621,17.1829619 17.6282621,17.8231051 17.2161242,18.2304691 L13.8601441,21.5184777 L17.3633163,25.0101683 C17.7754542,25.4175322 17.7754542,26.0576755 17.3633163,26.4650394 C16.9511784,26.8724033 16.3035331,26.8724033 15.8913952,26.4650394 L11.6522625,22.2459133 C11.2401246,21.8385494 11.2401246,21.1693087 11.6522625,20.7910422 Z" id="Shape" fill="#F73435"></path>
            <path d="M25.6649511,17.2411567 L20.7781732,26.9305982" id="Shape" stroke="#F73435" stroke-width="1.69570674" stroke-linecap="round" stroke-linejoin="round"></path>
        </g>
    </g>
</svg>