<?xml version="1.0" encoding="UTF-8"?>
<svg width="45px" height="42px" viewBox="0 0 45 42" version="1.1" xmlns="http://www.w3.org/2000/svg" xmlns:xlink="http://www.w3.org/1999/xlink">
    <!-- Generator: Sketch 52.2 (67145) - http://www.bohemiancoding.com/sketch -->
    <title>Fixed_vulnerabilities</title>
    <desc>Created with Sketch.</desc>
    <g id="Page-1" stroke="none" stroke-width="1" fill="none" fill-rule="evenodd">
        <g id="Fixed_vulnerabilities" transform="translate(0.000000, 1.000000)">
            <g id="02Cobertura">
                <g id="Group" transform="translate(0.000000, 3.565714)" fill="#ACACAC">
                    <path d="M36.5255935,0.1664 L0.601937929,0.1664 C0.264852689,0.1664 0,0.427885714 0,0.760685714 L0,32.7094857 C0,33.0422857 0.264852689,33.3037714 0.601937929,33.3037714 L36.5255935,33.3037714 C36.8626788,33.3037714 37.1275315,33.0422857 37.1275315,32.7094857 L37.1275315,18.0662857 C37.1275315,17.7334857 36.8626788,17.472 36.5255935,17.472 C36.1885083,17.472 35.9236556,17.7334857 35.9236556,18.0662857 L35.9236556,32.1152 L1.20387586,32.1152 L1.20387586,6.01417143 L35.9477331,6.01417143 L35.9477331,24.128 C35.9477331,24.4608 36.2125858,24.7222857 36.5496711,24.7222857 C36.8867563,24.7222857 37.151609,24.4608 37.151609,24.128 L37.151609,0.736914286 C37.1275315,0.427885714 36.8626788,0.1664 36.5255935,0.1664 Z M1.20387586,1.3312 L23.1144165,1.3312 L23.1144165,4.84937143 L1.20387586,4.84937143 L1.20387586,1.3312 Z M24.2942148,4.8256 L24.2942148,1.3312 L35.9477331,1.3312 L35.9477331,4.84937143 L24.2942148,4.84937143 L24.2942148,4.8256 Z" id="Shape" fill-rule="nonzero"></path>
                    <path d="M30.1450515,2.44845714 C29.8079662,2.44845714 29.519036,2.73371429 29.519036,3.06651429 C29.519036,3.39931429 29.8079662,3.68457143 30.1450515,3.68457143 C30.4821367,3.68457143 30.7710669,3.39931429 30.7710669,3.06651429 C30.7710669,2.73371429 30.4821367,2.44845714 30.1450515,2.44845714 Z" id="Shape"></path>
                    <path d="M26.8945867,2.44845714 C26.5575014,2.44845714 26.2685712,2.73371429 26.2685712,3.06651429 C26.2685712,3.39931429 26.5575014,3.68457143 26.8945867,3.68457143 C27.2316719,3.68457143 27.5206021,3.39931429 27.5206021,3.06651429 C27.5206021,2.73371429 27.2557494,2.44845714 26.8945867,2.44845714 Z" id="Shape"></path>
                    <path d="M33.3714388,2.44845714 C33.0343535,2.44845714 32.7454233,2.73371429 32.7454233,3.06651429 C32.7454233,3.39931429 33.0343535,3.68457143 33.3714388,3.68457143 C33.708524,3.68457143 33.9974542,3.39931429 33.9974542,3.06651429 C33.9974542,2.73371429 33.7326015,2.44845714 33.3714388,2.44845714 Z" id="Shape"></path>
                </g>
                <path d="M28.2910827,21.0139429 L24.2701373,17.0916571 C23.884897,16.7113143 23.2348041,16.7113143 22.8495638,17.0916571 C22.4643235,17.472 22.4643235,18.1138286 22.8495638,18.4941714 L26.1481836,21.7270857 L22.7291762,25.1501714 C22.3439359,25.5305143 22.3439359,26.1723429 22.7291762,26.5526857 C23.1144165,26.9330286 23.7645094,26.9330286 24.1497497,26.5526857 L28.2910827,22.4164571 C28.7004005,22.0361143 28.7004005,21.3942857 28.2910827,21.0139429 Z" id="Shape" fill="#F73435"></path>
                <path d="M6.33238701,21.0139429 L10.3533324,17.0916571 C10.7385727,16.7113143 11.3886656,16.7113143 11.7739059,17.0916571 C12.1591462,17.472 12.1591462,18.1138286 11.7739059,18.4941714 L8.47528604,21.7270857 L11.8942935,25.1501714 C12.2795338,25.5305143 12.2795338,26.1723429 11.8942935,26.5526857 C11.5090532,26.9330286 10.8589602,26.9330286 10.47372,26.5526857 L6.33238701,22.4164571 C5.94714674,22.0361143 5.94714674,21.3942857 6.33238701,21.0139429 Z" id="Shape" fill="#F73435"></path>
                <path d="M20.0565718,17.5433143 L15.2651459,27.0281143" id="Shape" stroke="#F73435" stroke-width="1.65732112" stroke-linecap="round" stroke-linejoin="round"></path>
                <g id="Group" transform="translate(32.745423, 0.000000)">
                    <ellipse id="Oval" stroke="#A7A7A7" stroke-width="0.9568" fill="#FFFFFF" cx="5.80268164" cy="5.824" rx="5.73044908" ry="5.6576"></ellipse>
                    <g id="Shape" transform="translate(2.648527, 3.565714)" fill="#F73435" stroke="#F73435" stroke-width="0.65">
                        <path d="M2.62444937,3.77965714 L0.794558066,1.97302857 C0.626015446,1.80662857 0.33708524,1.80662857 0.144465103,1.97302857 C-0.0240775172,2.13942857 -0.0240775172,2.42468571 0.144465103,2.61485714 L1.97435641,4.42148571 C2.07066648,4.51657143 2.19105406,4.56411429 2.28736413,4.56411429 C2.40775172,4.56411429 2.5281393,4.51657143 2.60037185,4.42148571 C2.79299199,4.23131429 2.79299199,3.94605714 2.62444937,3.77965714 Z" id="Path"></path>
                        <path d="M6.26015446,0.1664 C6.09161184,6.9388939e-18 5.80268164,6.9388939e-18 5.6100615,0.1664 L1.97435641,3.75588571 C1.80581379,3.92228571 1.80581379,4.20754286 1.97435641,4.39771429 C2.07066648,4.4928 2.19105406,4.54034286 2.28736413,4.54034286 C2.40775172,4.54034286 2.5281393,4.4928 2.60037185,4.39771429 L6.26015446,0.808228571 C6.42869708,0.641828571 6.42869708,0.356571429 6.26015446,0.1664 Z" id="Path"></path>
                    </g>
                </g>
                <g id="Group-Copy-2" transform="translate(32.745423, 14.025143)">
                    <ellipse id="Oval" stroke="#A7A7A7" stroke-width="0.9568" fill="#FFFFFF" cx="5.80268164" cy="5.824" rx="5.73044908" ry="5.6576"></ellipse>
                    <g id="Group" transform="translate(2.648527, 3.565714)" fill="#F73435" stroke="#F73435" stroke-width="0.65">
                        <path d="M2.62444937,3.77965714 L0.794558066,1.97302857 C0.626015446,1.80662857 0.33708524,1.80662857 0.144465103,1.97302857 C-0.0240775172,2.13942857 -0.0240775172,2.42468571 0.144465103,2.61485714 L1.97435641,4.42148571 C2.07066648,4.51657143 2.19105406,4.56411429 2.28736413,4.56411429 C2.40775172,4.56411429 2.5281393,4.51657143 2.60037185,4.42148571 C2.79299199,4.23131429 2.79299199,3.94605714 2.62444937,3.77965714 Z" id="Shape"></path>
                        <path d="M6.26015446,0.1664 C6.09161184,-6.9388939e-18 5.80268164,-6.9388939e-18 5.6100615,0.1664 L1.97435641,3.75588571 C1.80581379,3.92228571 1.80581379,4.20754286 1.97435641,4.39771429 C2.07066648,4.4928 2.19105406,4.54034286 2.28736413,4.54034286 C2.40775172,4.54034286 2.5281393,4.4928 2.60037185,4.39771429 L6.26015446,0.808228571 C6.42869708,0.641828571 6.42869708,0.356571429 6.26015446,0.1664 Z" id="Shape"></path>
                    </g>
                </g>
                <g id="Group-Copy-3" transform="translate(32.745423, 28.763429)">
                    <ellipse id="Oval" stroke="#A7A7A7" stroke-width="0.9568" fill="#FFFFFF" cx="5.80268164" cy="5.824" rx="5.73044908" ry="5.6576"></ellipse>
                    <g id="Group" transform="translate(2.648527, 3.565714)" fill="#F73435" stroke="#F73435" stroke-width="0.65">
                        <path d="M2.62444937,3.77965714 L0.794558066,1.97302857 C0.626015446,1.80662857 0.33708524,1.80662857 0.144465103,1.97302857 C-0.0240775172,2.13942857 -0.0240775172,2.42468571 0.144465103,2.61485714 L1.97435641,4.42148571 C2.07066648,4.51657143 2.19105406,4.56411429 2.28736413,4.56411429 C2.40775172,4.56411429 2.5281393,4.51657143 2.60037185,4.42148571 C2.79299199,4.23131429 2.79299199,3.94605714 2.62444937,3.77965714 Z" id="Shape"></path>
                        <path d="M6.26015446,0.1664 C6.09161184,6.9388939e-18 5.80268164,6.9388939e-18 5.6100615,0.1664 L1.97435641,3.75588571 C1.80581379,3.92228571 1.80581379,4.20754286 1.97435641,4.39771429 C2.07066648,4.4928 2.19105406,4.54034286 2.28736413,4.54034286 C2.40775172,4.54034286 2.5281393,4.4928 2.60037185,4.39771429 L6.26015446,0.808228571 C6.42869708,0.641828571 6.42869708,0.356571429 6.26015446,0.1664 Z" id="Shape"></path>
                    </g>
                </g>
            </g>
        </g>
    </g>
</svg>