<?xml version="1.0" encoding="UTF-8"?>
<svg width="48px" height="36px" viewBox="0 0 48 36" version="1.1" xmlns="http://www.w3.org/2000/svg" xmlns:xlink="http://www.w3.org/1999/xlink">
    <!-- Generator: Sketch 52.2 (67145) - http://www.bohemiancoding.com/sketch -->
    <title>Total_Severity_Found</title>
    <desc>Created with Sketch.</desc>
    <g id="Page-1" stroke="none" stroke-width="1" fill="none" fill-rule="evenodd">
        <g id="Total_Severity_Found" transform="translate(1.000000, -0.000000)">
            <g id="14Seguimiento_hallazgos">
                <path d="M39.0080412,4.72034483 L34.7381443,0.484137931 C34.3039175,0.0726206897 33.6284536,0.0726206897 33.2183505,0.484137931 C32.8082474,0.919862069 32.8082474,1.59765517 33.2183505,2.00917241 L36.7162887,5.49496552 L33.0736082,9.19862069 C32.6635052,9.63434483 32.6635052,10.3121379 33.0736082,10.7236552 C33.5078351,11.1351724 34.183299,11.1351724 34.5934021,10.7236552 L39.0080412,6.24537931 C39.442268,5.83386207 39.4181443,5.15606897 39.0080412,4.72034483 Z" id="Shape" fill="#F73435"></path>
                <path d="M46.2451546,4.72034483 L41.9752577,0.484137931 C41.5410309,0.0726206897 40.865567,0.0726206897 40.4554639,0.484137931 C40.0453608,0.919862069 40.0453608,1.59765517 40.4554639,2.00917241 L43.9534021,5.49496552 L40.3107216,9.19862069 C39.9006186,9.63434483 39.9006186,10.3121379 40.3107216,10.7236552 C40.7449485,11.1351724 41.4204124,11.1351724 41.8305155,10.7236552 L46.2451546,6.24537931 C46.6793814,5.83386207 46.6552577,5.15606897 46.2451546,4.72034483 Z" id="Shape" fill="#F73435"></path>
                <path d="M30.6612371,11.0625517 C30.4682474,10.772069 30.0098969,10.7478621 29.7204124,10.9415172 L23.1587629,16.1702069 L14.7154639,12.636 C14.5224742,12.5633793 14.2812371,12.5875862 14.1123711,12.7086207 L5.04185567,19.196069 C4.75237113,19.3897241 4.68,19.8012414 4.87298969,20.0917241 C4.99360825,20.2853793 5.18659794,20.3822069 5.40371134,20.3822069 C5.5243299,20.3822069 5.64494845,20.3337931 5.76556701,20.2611724 L14.5465979,13.9673793 L23.0381443,17.5015862 C23.231134,17.5742069 23.5206186,17.55 23.6894845,17.4289655 L30.5406186,11.9824138 C30.8301031,11.7887586 30.8542268,11.3530345 30.6612371,11.0625517 Z" id="Shape" stroke="#A7A7A7" stroke-width="0.65" fill="#A7A7A7"></path>
                <path d="M42.3129897,33.5507586 L39.3216495,33.5507586 L39.3216495,14.7662069 C39.3216495,14.4031034 39.0321649,14.1126207 38.6703093,14.1126207 L32.7117526,14.1126207 C32.3498969,14.1126207 32.0604124,14.4031034 32.0604124,14.7662069 L32.0604124,33.5749655 L29.8651546,33.5749655 L29.8651546,21.2778621 C29.8651546,20.9147586 29.5756701,20.6242759 29.2138144,20.6242759 L23.231134,20.6242759 C22.8692784,20.6242759 22.5797938,20.9147586 22.5797938,21.2778621 L22.5797938,33.5749655 L20.3845361,33.5749655 L20.3845361,20.2853793 C20.3845361,19.9222759 20.0950515,19.6317931 19.7331959,19.6317931 L13.7746392,19.6317931 C13.4127835,19.6317931 13.123299,19.9222759 13.123299,20.2853793 L13.123299,33.5749655 L10.9280412,33.5749655 L10.9280412,24.110069 C10.9280412,23.7469655 10.6385567,23.4564828 10.276701,23.4564828 L4.34226804,23.4564828 C3.98041237,23.4564828 3.69092784,23.7469655 3.69092784,24.110069 L3.69092784,33.5749655 L0.651340206,33.5749655 C0.289484536,33.5749655 0,33.8654483 0,34.2285517 C0,34.5916552 0.289484536,34.8821379 0.651340206,34.8821379 L4.29402062,34.8821379 L10.2525773,34.8821379 L13.8228866,34.8821379 L19.7814433,34.8821379 L23.2552577,34.8821379 L29.1896907,34.8821379 L32.6635052,34.8821379 L38.6220619,34.8821379 L42.2647423,34.8821379 C42.6265979,34.8821379 42.9160825,34.5916552 42.9160825,34.2285517 C42.9402062,33.8412414 42.6748454,33.5507586 42.3129897,33.5507586 Z M9.62536082,33.5507586 L4.96948454,33.5507586 L4.96948454,24.7394483 L9.62536082,24.7394483 L9.62536082,33.5507586 Z M19.1059794,33.5507586 L14.4501031,33.5507586 L14.4501031,20.9147586 L19.1059794,20.9147586 L19.1059794,33.5507586 Z M28.5383505,33.5507586 L23.8824742,33.5507586 L23.8824742,21.8830345 L28.5383505,21.8830345 L28.5383505,33.5507586 Z M38.0189691,33.5507586 L33.3630928,33.5507586 L33.3630928,15.3955862 L38.0189691,15.3955862 L38.0189691,33.5507586 Z" id="Shape" stroke="#A7A7A7" stroke-width="0.65" fill="#A7A7A7" fill-rule="nonzero"></path>
            </g>
        </g>
    </g>
</svg>