<?xml version="1.0" encoding="UTF-8" standalone="no"?>
<svg xmlns:dc="http://purl.org/dc/elements/1.1/" xmlns:cc="http://creativecommons.org/ns#" xmlns:rdf="http://www.w3.org/1999/02/22-rdf-syntax-ns#" xmlns:svg="http://www.w3.org/2000/svg" xmlns="http://www.w3.org/2000/svg" xmlns:sodipodi="http://sodipodi.sourceforge.net/DTD/sodipodi-0.dtd" xmlns:inkscape="http://www.inkscape.org/namespaces/inkscape" width="28px" height="26px" viewBox="0 0 28 26" version="1.1" id="svg10" sodipodi:docname="upload.svg" inkscape:version="0.92.3 (2405546, 2018-03-11)">
  <metadata id="metadata16">
    <rdf:RDF>
      <cc:Work rdf:about="">
        <dc:format>image/svg+xml</dc:format>
        <dc:type rdf:resource="http://purl.org/dc/dcmitype/StillImage" />
      </cc:Work>
    </rdf:RDF>
  </metadata>
  <defs id="defs14" />
  <sodipodi:namedview pagecolor="#ffffff" bordercolor="#666666" borderopacity="1" objecttolerance="10" gridtolerance="10" guidetolerance="10" inkscape:pageopacity="0" inkscape:pageshadow="2" inkscape:window-width="2505" inkscape:window-height="1040" id="namedview12" showgrid="false" inkscape:zoom="12.677414" inkscape:cx="3.2670672" inkscape:cy="9.4052458" inkscape:window-x="55" inkscape:window-y="0" inkscape:window-maximized="1" inkscape:current-layer="download-arrow" />
  <!-- Generator: Sketch 52.2 (67145) - http://www.bohemiancoding.com/sketch -->
  <title id="title2">export</title>
  <desc id="desc4">Created with Sketch.</desc>
  <g id="Page-1" style="fill:none;fill-rule:evenodd;stroke:none;stroke-width:1">
    <g id="export" style="fill:#f73435;fill-rule:nonzero">
      <g id="download-arrow">
        <path d="m 7.012584,6.5867114 c -0.290593,0.284658 -0.290593,0.732801 0,1.017458 0.280775,0.284658 0.748079,0.284658 1.0282,0 L 13.307448,2.4546908 V 19.469387 c 0,0.396853 0.322009,0.722542 0.727136,0.722542 0.405128,0 0.737608,-0.325689 0.737608,-0.722542 V 2.4546908 l 5.256193,5.1494786 c 0.290592,0.284658 0.758551,0.284658 1.038672,0 0.290593,-0.284657 0.290593,-0.7328 0,-1.017458 L 14.553593,0.20628078 c -0.280775,-0.275041 -0.748079,-0.275041 -1.038672,0 z" id="path3743" inkscape:connector-curvature="0" />
        <path d="m 26.229658,18.276422 c 0,-0.396854 0.322008,-0.712285 0.727136,-0.712285 0.405128,0 0.737608,0.315431 0.737608,0.712285 v 7.001035 C 27.694402,25.674311 27.361922,26 26.956794,26 H 1.121538 C 0.71641,26 0.394402,25.674311 0.394402,25.277457 v -7.001035 c 0,-0.396854 0.322008,-0.712285 0.727136,-0.712285 0.405128,0 0.737608,0.315431 0.737608,0.712285 v 6.28875 h 24.370512 z" id="Shape" inkscape:connector-curvature="0" />
      </g>
    </g>
  </g>
</svg>
