<?xml version="1.0" encoding="utf-8"?>
<!-- Generator: Adobe Illustrator 18.0.0, SVG Export Plug-In . SVG Version: 6.00 Build 0)  -->
<!DOCTYPE svg PUBLIC "-//W3C//DTD SVG 1.1//EN" "http://www.w3.org/Graphics/SVG/1.1/DTD/svg11.dtd">
<svg version="1.1" id="Capa_1" xmlns="http://www.w3.org/2000/svg" xmlns:xlink="http://www.w3.org/1999/xlink" x="0px" y="0px"
	 viewBox="0 0 45 45" enable-background="new 0 0 45 45" xml:space="preserve">
<g id="_x30_4Rigurosidad">
	<g id="Group">
		<path id="Shape" fill="#A7A7A7" stroke="#A7A7A7" stroke-width="0.65" d="M37.9,3.6h-2.1c-0.2,0-0.3,0.1-0.3,0.3s0.1,0.3,0.3,0.3
			h1.8v39.1H6.3v-39h1.8c0.1,0,0.3-0.2,0.3-0.3c0-0.1-0.2-0.3-0.3-0.3H6C5.7,3.7,5.6,3.8,5.6,4v39.8c0,0.2,0.1,0.3,0.3,0.3H38
			c0.2,0,0.3-0.1,0.3-0.3V4C38.3,3.8,38.1,3.6,37.9,3.6z"/>
		<path id="Shape_1_" fill="#A7A7A7" stroke="#A7A7A7" stroke-width="0.65" d="M33,3.6h-2.1c-0.2,0-0.3,0.1-0.3,0.3s0.1,0.3,0.3,0.3
			H33c0.2,0,0.3-0.1,0.3-0.3C33.3,3.8,33.2,3.6,33,3.6z"/>
		<path id="Shape_2_" fill="#A7A7A7" stroke="#A7A7A7" stroke-width="0.65" d="M28,3.6h-2.1c-0.2,0-0.3,0.1-0.3,0.3s0.1,0.3,0.3,0.3
			H28c0.2,0,0.3-0.1,0.3-0.3C28.4,3.8,28.1,3.6,28,3.6z"/>
		<path id="Shape_3_" fill="#A7A7A7" stroke="#A7A7A7" stroke-width="0.65" d="M22.9,3.6h-2.1c-0.2,0-0.3,0.1-0.3,0.3
			s0.1,0.3,0.3,0.3h2.1c0.2,0,0.3-0.1,0.3-0.3C23.3,3.8,23.2,3.6,22.9,3.6z"/>
		<path id="Shape_4_" fill="#A7A7A7" stroke="#A7A7A7" stroke-width="0.65" d="M18,3.6h-2.1c-0.2,0-0.3,0.1-0.3,0.3s0.1,0.3,0.3,0.3
			H18c0.2,0,0.3-0.1,0.3-0.3C18.3,3.8,18.2,3.6,18,3.6z"/>
		<path id="Shape_5_" fill="#A7A7A7" stroke="#A7A7A7" stroke-width="0.65" d="M13.1,3.6h-2.2c-0.2,0-0.3,0.2-0.3,0.4
			c0,0.2,0.1,0.3,0.3,0.3H13c0.2,0,0.3-0.1,0.3-0.3C13.4,3.8,13.3,3.6,13.1,3.6z"/>
		<path id="Shape_8_" fill="#A7A7A7" stroke="#A7A7A7" stroke-width="0.65" d="M19.5,0.8c-0.6,0-1,0.4-1,1.1v4.4
			c0,0.6,0.4,1.1,1,1.1s1-0.4,1-1.1V1.8C20.5,1.2,20,0.8,19.5,0.8z M19.8,6.2c0,0.2-0.1,0.3-0.3,0.3c-0.2,0-0.3-0.1-0.3-0.3V1.8
			c0-0.2,0.1-0.3,0.3-0.3c0.2,0,0.3,0.1,0.3,0.3V6.2z"/>
		<path id="Shape_9_" fill="#A7A7A7" stroke="#A7A7A7" stroke-width="0.65" d="M24.4,0.8c-0.6,0-1,0.4-1,1.1v4.4
			c0,0.6,0.4,1.1,1,1.1s1-0.4,1-1.1V1.8C25.4,1.2,25,0.8,24.4,0.8z M24.8,6.2c0,0.2-0.1,0.3-0.3,0.3c-0.2,0-0.3-0.1-0.3-0.3V1.8
			c0-0.2,0.1-0.3,0.3-0.3c0.2,0,0.3,0.1,0.3,0.3V6.2z"/>
		<path id="Shape_10_" fill="#A7A7A7" stroke="#A7A7A7" stroke-width="0.65" d="M29.4,0.8c-0.6,0-1,0.4-1,1.1v4.4
			c0,0.6,0.5,1.1,1,1.1s1-0.4,1-1.1V1.8C30.5,1.2,30,0.8,29.4,0.8z M29.8,6.2c0,0.2-0.1,0.3-0.3,0.3c-0.2,0-0.3-0.1-0.3-0.3V1.8
			c0-0.2,0.1-0.3,0.3-0.3c0.2,0,0.3,0.1,0.3,0.3V6.2z"/>
		<path id="Shape_11_" fill="#A7A7A7" stroke="#A7A7A7" stroke-width="0.65" d="M34.4,0.8c-0.6,0-1,0.4-1,1.1v4.4
			c0,0.6,0.4,1.1,1,1.1s1-0.4,1-1.1V1.8C35.4,1.2,35,0.8,34.4,0.8z M34.8,6.2c0,0.2-0.1,0.3-0.3,0.3s-0.3-0.1-0.3-0.3V1.8
			c0-0.2,0.1-0.3,0.3-0.3s0.3,0.1,0.3,0.3V6.2z"/>
		<path id="Shape_14_" fill="#A7A7A7" stroke="#A7A7A7" stroke-width="0.65" d="M33,13.1H18.7c-0.2,0-0.3,0.1-0.3,0.3
			s0.1,0.3,0.3,0.3H33c0.2,0,0.3-0.1,0.3-0.3C33.3,13.3,33.2,13.1,33,13.1z"/>
		<path id="Shape_15_" fill="#A7A7A7" stroke="#A7A7A7" stroke-width="0.65" d="M33,15.3H18.7c-0.2,0-0.3,0.1-0.3,0.3
			s0.1,0.3,0.3,0.3H33c0.2,0,0.3-0.1,0.3-0.3C33.3,15.4,33.2,15.3,33,15.3z"/>
		<path id="Shape_16_" fill="#A7A7A7" stroke="#A7A7A7" stroke-width="0.65" d="M25.9,17.4h-7.1c-0.2,0-0.3,0.1-0.3,0.3
			c0,0.2,0.1,0.3,0.3,0.3h7.1c0.2,0,0.3-0.1,0.3-0.3C26.2,17.6,26,17.4,25.9,17.4z"/>
		<path id="Shape_17_" fill="#A7A7A7" stroke="#A7A7A7" stroke-width="0.65" d="M33,22.5H18.7c-0.2,0-0.3,0.1-0.3,0.3
			s0.1,0.3,0.3,0.3H33c0.2,0,0.3-0.1,0.3-0.3S33.2,22.5,33,22.5z"/>
		<path id="Shape_18_" fill="#A7A7A7" stroke="#A7A7A7" stroke-width="0.65" d="M33,24.6H18.7c-0.2,0-0.3,0.1-0.3,0.3
			s0.1,0.3,0.3,0.3H33c0.2,0,0.3-0.1,0.3-0.3S33.2,24.6,33,24.6z"/>
		<path id="Shape_19_" fill="#A7A7A7" stroke="#A7A7A7" stroke-width="0.65" d="M25.9,26.9h-7.1c-0.2,0-0.3,0.1-0.3,0.3
			s0.1,0.3,0.3,0.3h7.1c0.2,0,0.3-0.1,0.3-0.3S26,26.9,25.9,26.9z"/>
		<path id="Shape_20_" fill="#A7A7A7" stroke="#A7A7A7" stroke-width="0.65" d="M33,31.9H18.7c-0.2,0-0.3,0.1-0.3,0.3
			c0,0.2,0.2,0.3,0.3,0.3H33c0.2,0,0.3-0.1,0.3-0.3C33.3,32,33.2,31.9,33,31.9z"/>
		<path id="Shape_21_" fill="#A7A7A7" stroke="#A7A7A7" stroke-width="0.65" d="M33,34.1H18.7c-0.2,0-0.3,0.1-0.3,0.3
			s0.1,0.3,0.3,0.3H33c0.2,0,0.3-0.1,0.3-0.3S33.2,34.1,33,34.1z"/>
		<path id="Shape_22_" fill="#A7A7A7" stroke="#A7A7A7" stroke-width="0.65" d="M25.9,36.2h-7.1c-0.2,0-0.3,0.1-0.3,0.3
			s0.1,0.3,0.3,0.3h7.1c0.2,0,0.3-0.1,0.3-0.3C26.2,36.5,26,36.2,25.9,36.2z"/>
		<path id="Shape_6_" fill="#A7A7A7" stroke="#A7A7A7" stroke-width="0.65" d="M14.4,0.8c-0.6,0-1,0.4-1,1.1v4.4
			c0,0.6,0.4,1.1,1,1.1s1-0.4,1-1.1V1.8C15.4,1.2,14.9,0.8,14.4,0.8z M14.7,6.2c0,0.2-0.1,0.3-0.3,0.3c-0.2,0-0.3-0.1-0.3-0.3V1.8
			c0-0.2,0.1-0.3,0.3-0.3c0.2,0,0.3,0.1,0.3,0.3V6.2z"/>
		<path id="Shape_7_" fill="#A7A7A7" stroke="#A7A7A7" stroke-width="0.65" d="M9.3,0.8c-0.6,0-1,0.4-1,1.1v4.4c0,0.6,0.4,1.1,1,1.1
			s1-0.4,1-1.1V1.8C10.3,1.2,9.8,0.8,9.3,0.8z M9.6,6.2c0,0.2-0.1,0.3-0.3,0.3C9.1,6.5,9,6.4,9,6.2V1.8c0-0.2,0.1-0.3,0.3-0.3
			c0.2,0,0.3,0.1,0.3,0.3V6.2z"/>
	</g>
	<g>
		<path id="Shape-Copy-8" fill="#A7A7A7" stroke="#A7A7A7" stroke-width="0.65" d="M13,16.7l-1.7-1.2c-0.2-0.1-0.4-0.1-0.5,0.1
			c-0.1,0.2-0.1,0.4,0.1,0.5l1.7,1.2c0.1,0.1,0.2,0.1,0.3,0.1c0.1,0,0.2-0.1,0.2-0.1C13.2,17,13.1,16.8,13,16.7z"/>
		<path id="Shape-Copy-9" fill="#A7A7A7" stroke="#A7A7A7" stroke-width="0.65" d="M15.6,13.1c-0.2-0.1-0.4-0.1-0.5,0.1l-2.5,3.4
			c-0.1,0.2-0.1,0.4,0.1,0.5c0.1,0.1,0.2,0.1,0.3,0.1c0.1,0,0.2-0.1,0.2-0.1l2.5-3.4C15.8,13.5,15.8,13.2,15.6,13.1z"/>
	</g>
	<g>
		<path id="Shape-Copy-8_1_" fill="#A7A7A7" stroke="#A7A7A7" stroke-width="0.65" d="M12.9,26.4l-1.7-1.2c-0.2-0.1-0.4-0.1-0.5,0.1
			s-0.1,0.4,0.1,0.5l1.7,1.2c0.1,0.1,0.2,0.1,0.3,0.1c0.1,0,0.2-0.1,0.2-0.1C13.1,26.7,13.1,26.5,12.9,26.4z"/>
		<path id="Shape-Copy-9_1_" fill="#A7A7A7" stroke="#A7A7A7" stroke-width="0.65" d="M15.5,22.8c-0.2-0.1-0.4-0.1-0.5,0.1l-2.5,3.4
			c-0.1,0.2-0.1,0.4,0.1,0.5c0.1,0.1,0.2,0.1,0.3,0.1c0.1,0,0.2-0.1,0.2-0.1l2.5-3.4C15.7,23.2,15.7,22.9,15.5,22.8z"/>
	</g>
	<g>
		<path id="Shape-Copy-8_2_" fill="#A7A7A7" stroke="#A7A7A7" stroke-width="0.65" d="M13.5,35.8l-1.7-1.2c-0.2-0.1-0.4-0.1-0.5,0.1
			c-0.1,0.2-0.1,0.4,0.1,0.5l1.7,1.2c0.1,0.1,0.2,0.1,0.3,0.1s0.2-0.1,0.2-0.1C13.7,36.2,13.6,35.9,13.5,35.8z"/>
		<path id="Shape-Copy-9_2_" fill="#A7A7A7" stroke="#A7A7A7" stroke-width="0.65" d="M16.1,32.2c-0.2-0.1-0.4-0.1-0.5,0.1l-2.5,3.4
			c-0.1,0.2-0.1,0.4,0.1,0.5c0.1,0.1,0.2,0.1,0.3,0.1c0.1,0,0.2-0.1,0.2-0.1l2.5-3.4C16.3,32.6,16.3,32.3,16.1,32.2z"/>
	</g>
</g>
</svg>
