<?xml version="1.0" encoding="utf-8"?>
<!-- Generator: Adobe Illustrator 18.0.0, SVG Export Plug-In . SVG Version: 6.00 Build 0)  -->
<!DOCTYPE svg PUBLIC "-//W3C//DTD SVG 1.1//EN" "http://www.w3.org/Graphics/SVG/1.1/DTD/svg11.dtd">
<svg version="1.1" id="Capa_1" xmlns="http://www.w3.org/2000/svg" xmlns:xlink="http://www.w3.org/1999/xlink" x="0px" y="0px"
	 viewBox="0 0 45 45" enable-background="new 0 0 45 45" xml:space="preserve">
<g id="_x30_4Rigurosidad">
	<g id="Group">
		<path id="Shape" fill="#A7A7A7" stroke="#A7A7A7" stroke-width="0.65" d="M38.9,3.6h-2.1c-0.2,0-0.3,0.1-0.3,0.3s0.1,0.3,0.3,0.3
			h1.8v39.1H7.3v-39h1.8c0.1,0,0.3-0.2,0.3-0.3c0-0.1-0.2-0.3-0.3-0.3H7C6.7,3.7,6.6,3.8,6.6,4v39.8c0,0.2,0.1,0.3,0.3,0.3H39
			c0.2,0,0.3-0.1,0.3-0.3V4C39.3,3.8,39.1,3.6,38.9,3.6z"/>
		<path id="Shape_1_" fill="#A7A7A7" stroke="#A7A7A7" stroke-width="0.65" d="M34,3.6h-2.1c-0.2,0-0.3,0.1-0.3,0.3s0.1,0.3,0.3,0.3
			H34c0.2,0,0.3-0.1,0.3-0.3C34.3,3.8,34.2,3.6,34,3.6z"/>
		<path id="Shape_2_" fill="#A7A7A7" stroke="#A7A7A7" stroke-width="0.65" d="M29,3.6h-2.1c-0.2,0-0.3,0.1-0.3,0.3s0.1,0.3,0.3,0.3
			H29c0.2,0,0.3-0.1,0.3-0.3C29.4,3.8,29.1,3.6,29,3.6z"/>
		<path id="Shape_3_" fill="#A7A7A7" stroke="#A7A7A7" stroke-width="0.65" d="M23.9,3.6h-2.1c-0.2,0-0.3,0.1-0.3,0.3
			s0.1,0.3,0.3,0.3h2.1c0.2,0,0.3-0.1,0.3-0.3C24.3,3.8,24.2,3.6,23.9,3.6z"/>
		<path id="Shape_4_" fill="#A7A7A7" stroke="#A7A7A7" stroke-width="0.65" d="M19,3.6h-2.1c-0.2,0-0.3,0.1-0.3,0.3s0.1,0.3,0.3,0.3
			H19c0.2,0,0.3-0.1,0.3-0.3C19.3,3.8,19.2,3.6,19,3.6z"/>
		<path id="Shape_5_" fill="#A7A7A7" stroke="#A7A7A7" stroke-width="0.65" d="M14.1,3.6h-2.2c-0.2,0-0.3,0.2-0.3,0.4
			c0,0.2,0.1,0.3,0.3,0.3H14c0.2,0,0.3-0.1,0.3-0.3C14.4,3.8,14.3,3.6,14.1,3.6z"/>
		<path id="Shape_8_" fill="#A7A7A7" stroke="#A7A7A7" stroke-width="0.65" d="M20.5,0.8c-0.6,0-1,0.4-1,1.1v4.4
			c0,0.6,0.4,1.1,1,1.1s1-0.4,1-1.1V1.8C21.5,1.2,21,0.8,20.5,0.8z M20.8,6.2c0,0.2-0.1,0.3-0.3,0.3c-0.2,0-0.3-0.1-0.3-0.3V1.8
			c0-0.2,0.1-0.3,0.3-0.3c0.2,0,0.3,0.1,0.3,0.3V6.2z"/>
		<path id="Shape_9_" fill="#A7A7A7" stroke="#A7A7A7" stroke-width="0.65" d="M25.4,0.8c-0.6,0-1,0.4-1,1.1v4.4
			c0,0.6,0.4,1.1,1,1.1s1-0.4,1-1.1V1.8C26.4,1.2,26,0.8,25.4,0.8z M25.8,6.2c0,0.2-0.1,0.3-0.3,0.3c-0.2,0-0.3-0.1-0.3-0.3V1.8
			c0-0.2,0.1-0.3,0.3-0.3c0.2,0,0.3,0.1,0.3,0.3V6.2z"/>
		<path id="Shape_10_" fill="#A7A7A7" stroke="#A7A7A7" stroke-width="0.65" d="M30.4,0.8c-0.6,0-1,0.4-1,1.1v4.4
			c0,0.6,0.5,1.1,1,1.1s1-0.4,1-1.1V1.8C31.5,1.2,31,0.8,30.4,0.8z M30.8,6.2c0,0.2-0.1,0.3-0.3,0.3c-0.2,0-0.3-0.1-0.3-0.3V1.8
			c0-0.2,0.1-0.3,0.3-0.3c0.2,0,0.3,0.1,0.3,0.3V6.2z"/>
		<path id="Shape_11_" fill="#A7A7A7" stroke="#A7A7A7" stroke-width="0.65" d="M35.4,0.8c-0.6,0-1,0.4-1,1.1v4.4
			c0,0.6,0.4,1.1,1,1.1s1-0.4,1-1.1V1.8C36.4,1.2,36,0.8,35.4,0.8z M35.8,6.2c0,0.2-0.1,0.3-0.3,0.3s-0.3-0.1-0.3-0.3V1.8
			c0-0.2,0.1-0.3,0.3-0.3s0.3,0.1,0.3,0.3V6.2z"/>
		<path id="Shape_14_" fill="#A7A7A7" stroke="#A7A7A7" stroke-width="0.65" d="M34,13.1H19.7c-0.2,0-0.3,0.1-0.3,0.3
			s0.1,0.3,0.3,0.3H34c0.2,0,0.3-0.1,0.3-0.3C34.3,13.3,34.2,13.1,34,13.1z"/>
		<path id="Shape_15_" fill="#A7A7A7" stroke="#A7A7A7" stroke-width="0.65" d="M34,15.3H19.7c-0.2,0-0.3,0.1-0.3,0.3
			s0.1,0.3,0.3,0.3H34c0.2,0,0.3-0.1,0.3-0.3C34.3,15.4,34.2,15.3,34,15.3z"/>
		<path id="Shape_16_" fill="#A7A7A7" stroke="#A7A7A7" stroke-width="0.65" d="M26.9,17.4h-7.1c-0.2,0-0.3,0.1-0.3,0.3
			c0,0.2,0.1,0.3,0.3,0.3h7.1c0.2,0,0.3-0.1,0.3-0.3C27.2,17.6,27,17.4,26.9,17.4z"/>
		<path id="Shape_17_" fill="#A7A7A7" stroke="#A7A7A7" stroke-width="0.65" d="M34,22.5H19.7c-0.2,0-0.3,0.1-0.3,0.3
			s0.1,0.3,0.3,0.3H34c0.2,0,0.3-0.1,0.3-0.3S34.2,22.5,34,22.5z"/>
		<path id="Shape_18_" fill="#A7A7A7" stroke="#A7A7A7" stroke-width="0.65" d="M34,24.6H19.7c-0.2,0-0.3,0.1-0.3,0.3
			s0.1,0.3,0.3,0.3H34c0.2,0,0.3-0.1,0.3-0.3S34.2,24.6,34,24.6z"/>
		<path id="Shape_19_" fill="#A7A7A7" stroke="#A7A7A7" stroke-width="0.65" d="M26.9,26.9h-7.1c-0.2,0-0.3,0.1-0.3,0.3
			s0.1,0.3,0.3,0.3h7.1c0.2,0,0.3-0.1,0.3-0.3S27,26.9,26.9,26.9z"/>
		<path id="Shape_20_" fill="#A7A7A7" stroke="#A7A7A7" stroke-width="0.65" d="M34,31.9H19.7c-0.2,0-0.3,0.1-0.3,0.3
			c0,0.2,0.2,0.3,0.3,0.3H34c0.2,0,0.3-0.1,0.3-0.3C34.3,32,34.2,31.9,34,31.9z"/>
		<path id="Shape_21_" fill="#A7A7A7" stroke="#A7A7A7" stroke-width="0.65" d="M34,34.1H19.7c-0.2,0-0.3,0.1-0.3,0.3
			s0.1,0.3,0.3,0.3H34c0.2,0,0.3-0.1,0.3-0.3S34.2,34.1,34,34.1z"/>
		<path id="Shape_22_" fill="#A7A7A7" stroke="#A7A7A7" stroke-width="0.65" d="M26.9,36.2h-7.1c-0.2,0-0.3,0.1-0.3,0.3
			s0.1,0.3,0.3,0.3h7.1c0.2,0,0.3-0.1,0.3-0.3C27.2,36.5,27,36.2,26.9,36.2z"/>
		<path id="Shape_6_" fill="#A7A7A7" stroke="#A7A7A7" stroke-width="0.65" d="M15.4,0.8c-0.6,0-1,0.4-1,1.1v4.4
			c0,0.6,0.4,1.1,1,1.1s1-0.4,1-1.1V1.8C16.4,1.2,15.9,0.8,15.4,0.8z M15.7,6.2c0,0.2-0.1,0.3-0.3,0.3c-0.2,0-0.3-0.1-0.3-0.3V1.8
			c0-0.2,0.1-0.3,0.3-0.3c0.2,0,0.3,0.1,0.3,0.3V6.2z"/>
		<path id="Shape_7_" fill="#A7A7A7" stroke="#A7A7A7" stroke-width="0.65" d="M10.3,0.8c-0.6,0-1,0.4-1,1.1v4.4
			c0,0.6,0.4,1.1,1,1.1s1-0.4,1-1.1V1.8C11.3,1.2,10.8,0.8,10.3,0.8z M10.6,6.2c0,0.2-0.1,0.3-0.3,0.3c-0.2,0-0.3-0.1-0.3-0.3V1.8
			c0-0.2,0.1-0.3,0.3-0.3c0.2,0,0.3,0.1,0.3,0.3V6.2z"/>
	</g>
	<g>
		<path id="Shape-Copy-9_2_" fill="#FF3435" stroke="#FF3435" stroke-width="0.65" d="M15.9,32.3c-0.2-0.2-0.5-0.2-0.6,0l-3.5,3.5
			c-0.2,0.2-0.2,0.5,0,0.6c0.1,0.1,0.2,0.1,0.3,0.1c0.1,0,0.2,0,0.3-0.1l3.5-3.5C16,32.7,16,32.4,15.9,32.3z"/>
		<path id="Shape-Copy-9_3_" fill="#FF3435" stroke="#FF3435" stroke-width="0.65" d="M11.7,32.9l3.5,3.5c0.1,0.1,0.2,0.1,0.3,0.1
			c0.1,0,0.2,0,0.3-0.1c0.2-0.2,0.2-0.5,0-0.6l-3.5-3.5c-0.2-0.2-0.5-0.2-0.6,0C11.6,32.5,11.6,32.7,11.7,32.9z"/>
	</g>
	<g>
		<path id="Shape-Copy-9_4_" fill="#FF3435" stroke="#FF3435" stroke-width="0.65" d="M15.9,23c-0.2-0.2-0.5-0.2-0.6,0l-3.5,3.5
			c-0.2,0.2-0.2,0.5,0,0.6c0.1,0.1,0.2,0.1,0.3,0.1c0.1,0,0.2,0,0.3-0.1l3.5-3.5C16,23.4,16,23.1,15.9,23z"/>
		<path id="Shape-Copy-9_1_" fill="#FF3435" stroke="#FF3435" stroke-width="0.65" d="M11.7,23.6l3.5,3.5c0.1,0.1,0.2,0.1,0.3,0.1
			s0.2,0,0.3-0.1c0.2-0.2,0.2-0.5,0-0.6L12.4,23c-0.2-0.2-0.5-0.2-0.6,0C11.6,23.1,11.6,23.4,11.7,23.6z"/>
	</g>
	<g>
		<path id="Shape-Copy-9_6_" fill="#FF3435" stroke="#FF3435" stroke-width="0.65" d="M15.9,13.6c-0.2-0.2-0.5-0.2-0.6,0l-3.5,3.5
			c-0.2,0.2-0.2,0.5,0,0.6c0.1,0.1,0.2,0.1,0.3,0.1c0.1,0,0.2,0,0.3-0.1l3.5-3.5C16,14.1,16,13.8,15.9,13.6z"/>
		<path id="Shape-Copy-9_5_" fill="#FF3435" stroke="#FF3435" stroke-width="0.65" d="M11.7,14.2l3.5,3.5c0.1,0.1,0.2,0.1,0.3,0.1
			s0.2,0,0.3-0.1c0.2-0.2,0.2-0.5,0-0.6l-3.5-3.5c-0.2-0.2-0.5-0.2-0.6,0C11.6,13.8,11.6,14.1,11.7,14.2z"/>
	</g>
</g>
</svg>
