<?xml version="1.0" encoding="UTF-8" standalone="no"?>
<!-- Generator: Adobe Illustrator 18.0.0, SVG Export Plug-In . SVG Version: 6.00 Build 0)  -->

<svg xmlns:dc="http://purl.org/dc/elements/1.1/" xmlns:cc="http://creativecommons.org/ns#" xmlns:rdf="http://www.w3.org/1999/02/22-rdf-syntax-ns#" xmlns:svg="http://www.w3.org/2000/svg" xmlns="http://www.w3.org/2000/svg" xmlns:sodipodi="http://sodipodi.sourceforge.net/DTD/sodipodi-0.dtd" xmlns:inkscape="http://www.inkscape.org/namespaces/inkscape" version="1.1" id="Capa_1" x="0px" y="0px" viewBox="0 0 794.00281 711.59998" enable-background="new 0 0 794 1100" xml:space="preserve" sodipodi:docname="loading.svg" width="794.00281" height="711.59998" inkscape:version="0.92.3 (2405546, 2018-03-11)"><metadata id="metadata17"><rdf:RDF><cc:Work rdf:about=""><dc:format>image/svg+xml</dc:format><dc:type rdf:resource="http://purl.org/dc/dcmitype/StillImage" /><dc:title></dc:title></cc:Work></rdf:RDF></metadata><defs id="defs15" /><sodipodi:namedview pagecolor="#ffffff" bordercolor="#666666" borderopacity="1" objecttolerance="10" gridtolerance="10" guidetolerance="10" inkscape:pageopacity="0" inkscape:pageshadow="2" inkscape:window-width="2505" inkscape:window-height="1040" id="namedview13" showgrid="false" fit-margin-top="0" fit-margin-left="0" fit-margin-right="0" fit-margin-bottom="0" inkscape:pagecheckerboard="false" inkscape:zoom="0.30341309" inkscape:cx="107.0943" inkscape:cy="612.01942" inkscape:window-x="55" inkscape:window-y="0" inkscape:window-maximized="1" inkscape:current-layer="Capa_1" />
<g id="g10" transform="translate(0,-194.2)">
	<g id="g4">
		<path d="M 355.8,905.8 C 159.6,905.8 0,746.2 0,550 0,353.8 159.6,194.2 355.8,194.2 c 196.2,0 355.8,159.6 355.8,355.8 0,11.2 -9.1,20.3 -20.3,20.3 C 680.1,570.3 671,561.2 671,550 671,376.2 529.6,234.8 355.8,234.8 182,234.8 40.6,376.2 40.6,550 c 0,173.8 141.4,315.2 315.2,315.2 111.2,0 215.3,-59.6 271.8,-155.5 5.7,-9.7 18.2,-12.9 27.8,-7.2 9.7,5.7 12.9,18.1 7.2,27.8 -63.7,108.3 -181.3,175.5 -306.8,175.5 z" id="path2" inkscape:connector-curvature="0" style="fill:#ff3435" />
	</g>
	<g id="g8">
		<path d="m 691.3,570.3 c -3.5,0 -7.1,-0.9 -10.3,-2.8 L 553.6,492.3 c -9.7,-5.7 -12.9,-18.2 -7.2,-27.8 5.7,-9.7 18.2,-12.9 27.9,-7.1 L 685.5,523 757,420.4 c 6.4,-9.2 19.1,-11.5 28.3,-5 9.2,6.4 11.5,19.1 5,28.3 L 708,561.6 c -4,5.7 -10.3,8.7 -16.7,8.7 z" id="path6" inkscape:connector-curvature="0" style="fill:#ff3435" />
	</g>
</g>
</svg>