<?xml version="1.0" encoding="UTF-8"?>
<svg width="44px" height="42px" viewBox="0 0 44 42" version="1.1" xmlns="http://www.w3.org/2000/svg" xmlns:xlink="http://www.w3.org/1999/xlink">
    <!-- Generator: Sketch 52.2 (67145) - http://www.bohemiancoding.com/sketch -->
    <title>Open_Vulnerabilities</title>
    <desc>Created with Sketch.</desc>
    <g id="Page-1" stroke="none" stroke-width="1" fill="none" fill-rule="evenodd">
        <g id="Open_Vulnerabilities">
            <path d="M39.3663111,39.5413622 L4.57744444,39.5413622 C3.4138,39.5399568 2.37668889,38.8268541 1.98755556,37.7598703 L41.9562,37.7598703 C41.5667778,38.8268541 40.5299556,39.5399568 39.3663111,39.5413622 M43.0282667,35.9783784 L0.915488889,35.9783784 C0.409933333,35.9783784 -8.52651283e-14,36.3772324 -8.52651283e-14,36.8691243 C0.00288888889,39.3274595 2.05053333,41.3200432 4.57744444,41.3228541 L39.3663111,41.3228541 C41.8932222,41.3200432 43.9405778,39.3274595 43.9437556,36.8691243 C43.9437556,36.3772324 43.5338222,35.9783784 43.0282667,35.9783784" id="Fill-4" fill="#A8A9A8" fill-rule="nonzero"></path>
            <path d="M5.63535556,8.99459459 C4.11868889,8.99459459 2.88888889,10.1908757 2.88888889,11.6668324 L2.88888889,36.608 L4.71986667,36.608 L4.71986667,11.6668324 C4.71986667,11.1749405 5.1298,10.7760865 5.63535556,10.7760865 L10.6002,10.7760865 L10.6002,8.99459459 L5.63535556,8.99459459 Z" id="Fill-6" fill="#A8A9A8"></path>
            <path d="M38.4759556,8.99459459 L33.5111111,8.99459459 L33.5111111,10.7760865 L38.4759556,10.7760865 C38.9815111,10.7760865 39.3914444,11.1749405 39.3914444,11.6668324 L39.3914444,36.608 L41.2224222,36.608 L41.2224222,11.6668324 C41.2224222,10.1908757 39.9929111,8.99459459 38.4759556,8.99459459" id="Fill-8" fill="#A8A9A8"></path>
            <polygon id="Fill-10" fill="#A8A9A8" points="18.4888889 38.6031135 25.8128 38.6031135 25.8128 36.8216216 18.4888889 36.8216216"></polygon>
            <path d="M21.7841861,24.0135086 L16.2938528,29.4035195 C15.7504528,29.9370114 15.7544972,30.7974005 16.3025194,31.3261141 C16.8508305,31.8548276 17.7356972,31.8511735 18.2788083,31.3176816 L22.7857639,26.8934654 L27.5639861,31.5009465 C28.1120083,32.0293789 28.9965861,32.0254438 29.5399861,31.492233 C30.0830972,30.9587411 30.0793416,30.0980708 29.5310305,29.5696384 L23.7601861,24.0047951 C23.211875,23.4760816 22.3275861,23.4800168 21.7841861,24.0135086" id="Fill-12" fill="#F73435"></path>
            <g id="Group-5" transform="translate(11.945946, 0.000000)" fill="#F73435" fill-rule="nonzero">
                <path d="M17.7151429,10.7738378 C17.7151429,12.3186595 16.8328763,13.7077622 15.4126985,14.3986595 L14.3828096,14.8995459 L14.3828096,17.021427 C14.3828096,17.4680649 14.0098541,17.8320649 13.5499429,17.8320649 L12.7167874,17.8320649 L12.7167874,14.5897946 L11.0507652,14.5897946 L11.0507652,17.8320649 L9.38474294,17.8320649 L9.38474294,14.5897946 L7.71843183,14.5897946 L7.71843183,17.8320649 L6.88527628,17.8320649 C6.42565405,17.8320649 6.05240961,17.4680649 6.05240961,17.021427 L6.05240961,14.8995459 L5.02280961,14.3986595 C3.60234294,13.7077622 2.72007628,12.3186595 2.72007628,10.7738378 L2.72007628,8.91617297 C2.72007628,4.89418378 6.08332072,1.62099459 10.2176096,1.62099459 C14.3521874,1.62099459 17.7151429,4.89418378 17.7151429,8.91617297 L17.7151429,10.7738378 Z M2.72007628,14.7317405 C3.1666985,15.1750054 3.68323183,15.5592432 4.27718739,15.8476324 L4.38638739,15.9013189 L4.38638739,17.021427 C4.38638739,18.3621838 5.50756517,19.4530595 6.88527628,19.4530595 L13.5499429,19.4530595 C14.9276541,19.4530595 16.0491207,18.3621838 16.0491207,17.021427 L16.0491207,15.9013189 L16.1580318,15.8484757 C18.1467429,14.8807135 19.3811652,12.9361946 19.3811652,10.7738378 L19.3811652,8.91617297 C19.3811652,4.00006486 15.2699874,1.42108547e-14 10.2176096,1.42108547e-14 C5.16523183,1.42108547e-14 1.05405405,4.00006486 1.05405405,8.91617297 L1.05405405,10.7738378 C1.05405405,12.2222486 1.61796517,13.5652541 2.58112072,14.5897946 L2.72007628,14.7317405 Z" id="Fill-14"></path>
                <path d="M6.73100961,8.86389189 C6.2710985,8.86389189 5.89785405,8.49989189 5.89785405,8.05325405 C5.89785405,7.60661622 6.2710985,7.24261622 6.73100961,7.24261622 C7.19092072,7.24261622 7.56416517,7.60661622 7.56416517,8.05325405 C7.56416517,8.49989189 7.19092072,8.86389189 6.73100961,8.86389189 M6.73100961,5.62162162 C5.35300961,5.62162162 4.23183183,6.71277838 4.23183183,8.05325405 C4.23183183,9.39401081 5.35300961,10.4848865 6.73100961,10.4848865 C8.10900961,10.4848865 9.23018739,9.39401081 9.23018739,8.05325405 C9.23018739,6.71277838 8.10900961,5.62162162 6.73100961,5.62162162" id="Fill-15"></path>
                <path d="M13.4762763,8.99459459 C12.9978667,8.99459459 12.6096096,8.61595382 12.6096096,8.15135135 C12.6096096,7.68674888 12.9978667,7.30810811 13.4762763,7.30810811 C13.9546859,7.30810811 14.3429429,7.68674888 14.3429429,8.15135135 C14.3429429,8.61595382 13.9546859,8.99459459 13.4762763,8.99459459 M13.3318318,5.62162162 C11.9778843,5.62162162 10.8762763,6.69373264 10.8762763,8.01081081 C10.8762763,9.32816516 11.9778843,10.4 13.3318318,10.4 C14.6857794,10.4 15.7873874,9.32816516 15.7873874,8.01081081 C15.7873874,6.69373264 14.6857794,5.62162162 13.3318318,5.62162162" id="Fill-16"></path>
            </g>
        </g>
    </g>
</svg>