<?xml version="1.0" encoding="utf-8"?>
<!-- Generator: Adobe Illustrator 18.0.0, SVG Export Plug-In . SVG Version: 6.00 Build 0)  -->
<!DOCTYPE svg PUBLIC "-//W3C//DTD SVG 1.1//EN" "http://www.w3.org/Graphics/SVG/1.1/DTD/svg11.dtd">
<svg version="1.1" id="Capa_1" xmlns="http://www.w3.org/2000/svg" xmlns:xlink="http://www.w3.org/1999/xlink" x="0px" y="0px"
	 viewBox="0 0 45 45" enable-background="new 0 0 45 45" xml:space="preserve">
<path id="Shape_5_" fill="#A7A7A7" d="M22.7,1.6c-11.5,0-20.8,9.2-20.8,20.6s9.3,20.5,20.8,20.5s20.8-9.2,20.8-20.6
	S34.2,1.6,22.7,1.6z M22.7,40.6C12.3,40.6,4,32.3,4,22.1S12.3,3.5,22.7,3.5s18.8,8.4,18.8,18.5C41.5,32.4,33.1,40.6,22.7,40.6z"/>
<g id="Group-5" transform="translate(11.945946, 0.000000)">
	<path id="Fill-14" fill="#F73435" d="M19.8,23c0,1.8-1.1,3.4-2.7,4.3L16,27.9v2.5c0,0.5-0.4,1-1,1h-1v-3.8h-1.9v3.8h-2v-3.8H8.1
		v3.8h-1c-0.5,0-1-0.4-1-1v-2.5L5,27.3c-1.7-0.9-2.7-2.5-2.7-4.3v-2.1c0-4.7,4-8.6,8.8-8.6s8.8,3.9,8.8,8.6V23H19.8z M2.2,27.6
		c0.5,0.5,1.2,1,1.8,1.3L4.2,29v1.3c0,1.6,1.3,2.9,2.9,2.9h7.8c1.6,0,2.9-1.3,2.9-2.9V29l0.1-0.1c2.4-1.2,3.8-3.4,3.8-5.9v-2.1
		c0-5.8-4.8-10.4-10.7-10.4S0.2,15.2,0.2,20.9V23c0,1.7,0.6,3.2,1.8,4.5L2.2,27.6z"/>
	<path id="Fill-15" fill="#F73435" d="M7,20.8c-0.5,0-1-0.4-1-1c0-0.5,0.4-1,1-1s1,0.4,1,1C7.9,20.4,7.5,20.8,7,20.8 M7,17
		c-1.6,0-2.9,1.3-2.9,2.9c0,1.6,1.3,2.9,2.9,2.9s2.9-1.3,2.9-2.9C9.9,18.3,8.6,17,7,17"/>
	<path id="Fill-16" fill="#F73435" d="M14.9,21c-0.5,0-1-0.4-1-1c0-0.5,0.4-1,1-1s1,0.4,1,1C15.9,20.6,15.4,21,14.9,21 M14.7,17
		c-1.6,0-2.9,1.3-2.9,2.8s1.3,2.8,2.9,2.8c1.6,0,2.9-1.3,2.9-2.8S16.3,17,14.7,17"/>
</g>
</svg>
