<?xml version="1.0" encoding="utf-8"?>
<!-- Generator: Adobe Illustrator 18.0.0, SVG Export Plug-In . SVG Version: 6.00 Build 0)  -->
<!DOCTYPE svg PUBLIC "-//W3C//DTD SVG 1.1//EN" "http://www.w3.org/Graphics/SVG/1.1/DTD/svg11.dtd">
<svg version="1.1" id="Capa_1" xmlns="http://www.w3.org/2000/svg" xmlns:xlink="http://www.w3.org/1999/xlink" x="0px" y="0px"
	 viewBox="0 0 45 45" enable-background="new 0 0 45 45" xml:space="preserve">
<path id="Shape_5_" fill="#A7A7A7" d="M22.7,1.6c-11.5,0-20.8,9.2-20.8,20.6s9.3,20.5,20.8,20.5s20.8-9.2,20.8-20.6
	S34.2,1.6,22.7,1.6z M22.7,40.6C12.3,40.6,4,32.3,4,22.1S12.3,3.5,22.7,3.5S41.5,11.9,41.5,22C41.5,32.4,33.1,40.6,22.7,40.6z"/>
<path fill="#FF3435" d="M32,21.8c0.2,0,0.3-0.1,0.3-0.3l0.9-5.2c0-0.1,0-0.3-0.2-0.3c-0.1-0.1-0.3-0.1-0.4,0l-2.7,2l-1.8-2
	c-0.1-0.1-0.3-0.1-0.4-0.1l-2.6,1.5l-2.3-2.7c0.8-0.3,1.4-1,1.4-1.9c0-1.1-0.9-2-2-2s-2,0.9-2,2c0,0.9,0.6,1.6,1.4,1.9l-2.3,2.7
	L16.7,16c-0.1-0.1-0.3-0.1-0.4,0.1l-1.8,2l-2.7-2c-0.1-0.1-0.3-0.1-0.4,0c-0.1,0.1-0.2,0.2-0.2,0.3l0.4,2.2c0,0.2,0.2,0.3,0.4,0.3
	s0.3-0.2,0.3-0.4L12,17l5.1,3.7c0.1,0.1,0.3,0.1,0.4-0.1l4.7-5.6l4.7,5.6c0.1,0.1,0.3,0.2,0.4,0.1l5.1-3.7l-0.7,4.1
	c-1.1,0.2-1.9,1.1-1.9,2.2c0,0.8,0.4,1.5,1.2,1.9l-0.5,3H14l-0.5-3c0.7-0.4,1.2-1.1,1.2-1.9c0-1.1-0.8-2-1.9-2.2l-0.3-1.5
	c0-0.2-0.2-0.3-0.4-0.3s-0.3,0.2-0.3,0.4l0.3,1.7c0,0.1,0.2,0.3,0.3,0.3c0.8,0,1.5,0.7,1.5,1.6c0,0.6-0.4,1.2-1,1.4
	c-0.1,0.1-0.2,0.2-0.2,0.4l0.6,3.2c-0.8,0.2-1.4,0.9-1.4,1.7c0,1,0.8,1.8,1.8,1.8h14c0.2,0,0.3-0.1,0.3-0.3s-0.1-0.3-0.3-0.3h-14
	c-0.6,0-1.1-0.5-1.1-1.1s0.5-1.1,1.1-1.1h17c0.6,0,1.1,0.5,1.1,1.1s-0.5,1.1-1.1,1.1H29c-0.2,0-0.3,0.1-0.3,0.3s0.1,0.3,0.3,0.3h1.7
	c1,0,1.8-0.8,1.8-1.8c0-0.9-0.6-1.6-1.4-1.7l0.6-3.2c0-0.1-0.1-0.3-0.2-0.4c-0.6-0.2-1-0.8-1-1.4C30.5,22.5,31.1,21.8,32,21.8z
	 M20.8,12.9c0-0.7,0.6-1.3,1.4-1.3s1.4,0.6,1.4,1.3s-0.6,1.3-1.4,1.3S20.8,13.7,20.8,12.9z M17.2,20L15,18.4l1.6-1.7l2.3,1.3
	L17.2,20z M27.2,20l-1.7-2l2.3-1.3l1.6,1.7L27.2,20z"/>
<path id="Shape_1_" fill="#FF3435" d="M22.1,23.2l-2,2c-0.2,0.2-0.2,0.5,0,0.7c0.2,0.2,0.5,0.2,0.7,0l1.6-1.6l1.7,1.7
	c0.2,0.2,0.5,0.2,0.7,0c0.2-0.2,0.2-0.5,0-0.7l-2.1-2C22.6,23,22.3,23,22.1,23.2z"/>
<path id="Shape_2_" fill="#FF3435" d="M22.1,20.2l-2,2c-0.2,0.2-0.2,0.5,0,0.7c0.2,0.2,0.5,0.2,0.7,0l1.6-1.6l1.7,1.7
	c0.2,0.2,0.5,0.2,0.7,0c0.2-0.2,0.2-0.5,0-0.7l-2.1-2C22.6,20,22.3,20,22.1,20.2z"/>
</svg>
