<?xml version="1.0" encoding="utf-8"?>
<!-- Generator: Adobe Illustrator 18.0.0, SVG Export Plug-In . SVG Version: 6.00 Build 0)  -->
<!DOCTYPE svg PUBLIC "-//W3C//DTD SVG 1.1//EN" "http://www.w3.org/Graphics/SVG/1.1/DTD/svg11.dtd">
<svg version="1.1" id="Capa_1" xmlns="http://www.w3.org/2000/svg" xmlns:xlink="http://www.w3.org/1999/xlink" x="0px" y="0px"
	 viewBox="0 0 45 45" enable-background="new 0 0 45 45" xml:space="preserve">
<path id="Shape_5_" fill="#A7A7A7" d="M22.7,1.6c-11.5,0-20.8,9.2-20.8,20.6s9.3,20.5,20.8,20.5s20.8-9.2,20.8-20.6
	S34.2,1.6,22.7,1.6z M22.7,40.6C12.3,40.6,4,32.3,4,22.1S12.3,3.5,22.7,3.5s18.8,8.4,18.8,18.5C41.5,32.4,33.1,40.6,22.7,40.6z"/>
<path fill="#FF3435" d="M28.8,31.8c-0.4,0-1-0.3-1.4-1c-0.8-1.1-1.3-3.1-0.4-5.3c0.8-0.1,1.3-0.8,1.3-1.6c0-0.9-0.6-1.6-1.5-1.6
	c-0.5-0.2-0.9-0.5-1-0.9c-0.1-0.3,0-0.6,0.1-0.8c0.8-0.1,1.4-0.8,1.4-1.6c0-0.6-0.4-1.3-1.1-1.5c1.1-1.1,1.7-2.5,1.7-4
	c0-0.4-0.1-1-0.2-1.4c-0.1-0.2-0.3-0.3-0.5-0.3c-0.2,0.1-0.3,0.3-0.3,0.5C27,13,27,13.4,27,13.7c0,1.5-0.8,3-2,3.9h-5.4
	c-1.3-0.9-2-2.4-2-3.9c0-2.6,2.1-4.7,4.7-4.7c1.6,0,3,0.8,3.9,2c0.1,0.2,0.3,0.2,0.5,0.1c0.2-0.1,0.2-0.3,0.1-0.5
	c-1.1-1.5-2.7-2.5-4.5-2.5c-3,0-5.5,2.5-5.5,5.5c0,1.5,0.6,2.9,1.7,4c-0.6,0.2-1.1,0.9-1.1,1.5c0,0.8,0.6,1.5,1.4,1.6
	c0.1,0.2,0.2,0.4,0.1,0.8c-0.1,0.3-0.4,0.6-1,0.9c-0.9,0-1.5,0.8-1.5,1.6c0,0.8,0.5,1.4,1.3,1.6c0.8,2.1,0.3,4.2-0.4,5.3
	c-0.4,0.6-1,1-1.4,1c-0.9,0-1.6,0.8-1.6,1.6c0,0.9,0.8,1.6,1.6,1.6h0.6c0.2,0,0.4-0.2,0.4-0.4s-0.2-0.2-0.4-0.2H16
	c-0.4,0-0.9-0.3-0.9-0.9c0-0.4,0.3-0.9,0.9-0.9h12.9c0.4,0,0.9,0.3,0.9,0.9c0,0.4-0.3,0.9-0.9,0.9H18.1c-0.2,0-0.4,0.2-0.4,0.4
	s0.2,0.4,0.4,0.4h10.8c0.9,0,1.6-0.8,1.6-1.6C30.4,32.6,29.7,31.8,28.8,31.8z M19.7,20.8h5.4c-0.1,0.3-0.1,0.6,0,1
	c0.1,0.2,0.2,0.4,0.3,0.6h-6c0.2-0.2,0.3-0.4,0.3-0.6C19.8,21.4,19.8,21.1,19.7,20.8z M18.3,19.2c0-0.4,0.3-0.9,0.9-0.9h6.5
	c0.4,0,0.9,0.3,0.9,0.9c0,0.4-0.3,0.9-0.9,0.9h-6.5C18.6,20,18.3,19.6,18.3,19.2z M17.3,24c0-0.4,0.3-0.9,0.9-0.9h8.7
	c0.4,0,0.9,0.3,0.9,0.9c0,0.4-0.3,0.9-0.9,0.9h-8.7C17.6,24.9,17.3,24.4,17.3,24z M18,31.3c0.5-0.8,0.9-1.7,1-2.7c0.1-1,0-2-0.3-3
	h7.5c-0.3,1-0.4,1.9-0.3,3c0.1,1,0.4,1.9,1,2.7c0.1,0.2,0.3,0.4,0.4,0.5h-9.6C17.7,31.7,17.9,31.5,18,31.3z"/>
<path id="Shape_1_" fill="#FF3435" d="M21.9,12.4l-2,2c-0.2,0.2-0.2,0.5,0,0.7c0.2,0.2,0.5,0.2,0.7,0l1.6-1.6l1.7,1.7
	c0.2,0.2,0.5,0.2,0.7,0c0.2-0.2,0.2-0.5,0-0.7l-2.1-2C22.4,12.2,22.1,12.2,21.9,12.4z"/>
</svg>
