<?xml version="1.0" encoding="utf-8"?>
<!-- Generator: Adobe Illustrator 18.0.0, SVG Export Plug-In . SVG Version: 6.00 Build 0)  -->
<!DOCTYPE svg PUBLIC "-//W3C//DTD SVG 1.1//EN" "http://www.w3.org/Graphics/SVG/1.1/DTD/svg11.dtd">
<svg version="1.1" id="Capa_1" xmlns="http://www.w3.org/2000/svg" xmlns:xlink="http://www.w3.org/1999/xlink" x="0px" y="0px"
	 viewBox="0 0 45 45" enable-background="new 0 0 45 45" xml:space="preserve">
<path fill="#A7A7A7" d="M22.5,0.6c-12.1,0-22,9.8-22,22s9.8,22,22,22s22-9.8,22-22S34.6,0.6,22.5,0.6z M7.5,8.7l2.6,2.6
	C7.4,14.2,5.9,18,5.8,22H2C2.2,17,4.2,12.2,7.5,8.7z M12.1,26.5c0,0.1,0.1,0.2,0.1,0.3L12.1,26.5c0.5,1.3,1.3,2.4,2.1,3.3L11.1,33
	c-0.6-0.7-1.3-1.6-1.8-2.4l-0.1-0.1c-0.1-0.1-0.1-0.2-0.1-0.3c-0.4-0.7-0.7-1.5-1-2.2c-0.1-0.1-0.2-0.3-0.2-0.5v-0.1l0,0
	c0,0,0,0,0-0.1c-0.1-0.2-0.1-0.4-0.2-0.6c-0.3-1-0.4-2.2-0.5-3.2h4.4c0.1,1,0.3,2,0.6,2.9H12C12.1,26.4,12.1,26.5,12.1,26.5z
	 M13.1,23.3h4.4c0.1,0.8,0.4,1.7,0.9,2.3l-3.1,3.1C14,27.3,13.2,25.4,13.1,23.3z M17.5,21.9h-4.4c0.1-2,0.9-4,2.3-5.4l3.1,3.1
	C17.9,20.3,17.6,21,17.5,21.9z M11.6,21.9H7.2c0.2-3.6,1.6-7,4-9.6l3.1,3.1C12.7,17.3,11.7,19.5,11.6,21.9z M2,23.3h3.7
	c0.2,4,1.8,7.7,4.4,10.7l-2.5,2.6C4.2,33,2.2,28.3,2,23.3z M21.8,43.1c-4.9-0.2-9.6-2.1-13.2-5.5l2.6-2.6c2.9,2.7,6.7,4.3,10.7,4.4
	v3.8H21.8z M21.8,38c-3.6-0.2-7-1.6-9.6-4l3.1-3.1c1.8,1.6,4.1,2.5,6.5,2.7V38z M21.8,32.1c-2-0.1-4-0.9-5.4-2.3l3.1-3.1
	c0.7,0.5,1.5,0.8,2.3,0.9V32.1z M20.7,23.3l-1.3,1.3c-0.2-0.4-0.4-0.8-0.5-1.3H20.7z M18.9,21.9c0.1-0.4,0.3-0.9,0.5-1.3l1.3,1.3
	H18.9z M21.8,26.3c-0.4-0.1-0.9-0.3-1.3-0.5l1.3-1.3V26.3z M21.8,20.8l-1.3-1.3c0.4-0.2,0.8-0.4,1.3-0.5V20.8z M21.8,17.6
	c-0.8,0.1-1.7,0.4-2.3,0.9l-3.1-3.1c1.6-1.4,3.5-2.1,5.4-2.3V17.6z M21.8,11.7c-2.4,0.2-4.7,1.2-6.5,2.7l-3.1-3.1
	c1.3-1.2,2.7-2.1,4.4-2.8l0,0l0,0c0,0,0,0,0.1,0l0,0c0.2-0.1,0.5-0.2,0.7-0.2c0.1-0.1,0.2-0.1,0.3-0.1l0,0l0.1-0.1l0,0
	c1.4-0.4,2.6-0.7,4-0.7V11.7z M21.8,5.9c-4,0.1-7.7,1.7-10.6,4.4L8.6,7.6c3.6-3.3,8.3-5.3,13.2-5.4V5.9z M43,21.9h-3.7
	c-0.2-4-1.8-7.7-4.4-10.7l2.6-2.6C40.9,12.2,42.8,17,43,21.9z M27.6,23.3H32c-0.1,2-0.9,4-2.3,5.4l-3.1-3.1
	C27.1,25,27.5,24.2,27.6,23.3z M26.6,19.6l3.1-3.1c1.4,1.6,2.1,3.5,2.3,5.4h-4.4C27.5,21,27.1,20.3,26.6,19.6z M33.5,23.3h4.4
	c-0.2,3.6-1.6,7-4,9.6l-3.1-3.1C32.3,28,33.3,25.7,33.5,23.3z M33.5,21.9c-0.1-1-0.3-2-0.6-2.9l0,0c-0.1-0.1-0.1-0.2-0.1-0.3v0.1
	c-0.4-1.3-1.2-2.3-2-3.3l3.1-3.1c1.3,1.5,2.3,3.1,3,4.9c0.1,0.3,0.2,0.6,0.3,0.9V18c0.4,1.3,0.6,2.6,0.7,4h-4.5V21.9z M23.2,2.2
	c4.9,0.2,9.6,2.1,13.2,5.4l-2.6,2.6C31,7.5,27.2,6,23.2,5.9V2.2z M23.2,7.3c3.6,0.2,7,1.6,9.6,4l-3.1,3.1c-1.8-1.6-4.1-2.5-6.5-2.7
	V7.3z M23.2,13.2c2,0.1,4,0.9,5.4,2.3l-3.1,3.1c-0.7-0.5-1.5-0.8-2.3-0.9V13.2z M24.3,21.9l1.3-1.3c0.2,0.4,0.4,0.8,0.5,1.3H24.3z
	 M26.2,23.3c-0.1,0.4-0.3,0.9-0.5,1.3l-1.3-1.3H26.2z M23.2,19c0.4,0.1,0.9,0.3,1.3,0.5l-1.3,1.3V19z M23.2,24.4l1.3,1.3
	c-0.4,0.2-0.8,0.4-1.3,0.5V24.4z M23.2,27.7c0.8-0.1,1.7-0.4,2.3-0.9l3.1,3.1c-1.6,1.4-3.5,2.1-5.4,2.3V27.7z M23.2,33.6
	c2.4-0.2,4.7-1.2,6.5-2.7l3.1,3.1c-2.6,2.4-6.1,3.8-9.6,4V33.6z M29.8,41.8v-0.1h-0.1c-0.1,0.2-0.2,0.3-0.4,0.3c-0.1,0-0.1,0-0.2,0
	c-0.1,0.1-0.2,0.1-0.3,0.1c0,0,0,0-0.1,0c-0.1,0.1-0.2,0.2-0.3,0.2l0,0c-1.7,0.5-3.3,0.7-5.1,0.8v-3.7c1.8-0.1,3.5-0.4,5-1
	c0.1-0.1,0.2-0.1,0.3-0.1c0,0,0,0,0.1,0c0.1,0,0.1-0.1,0.2-0.1c0.1-0.1,0.2-0.2,0.4-0.2l0,0c0.1-0.1,0.2-0.2,0.4-0.2
	c1.6-0.7,2.9-1.7,4.2-2.8l2.6,2.6C34.5,39.5,32.3,40.8,29.8,41.8z M37.6,36.6L35,34c2.7-2.9,4.3-6.7,4.4-10.7H43
	C42.8,28.3,40.9,33,37.6,36.6z"/>
<path id="Shape_1_" fill="#FF3435" d="M22,22.8l-2.7,2.8c-0.3,0.3-0.3,0.7,0,1c0.3,0.3,0.7,0.3,1,0l2.2-2.3l2.4,2.3
	c0.3,0.3,0.7,0.3,1,0c0.3-0.3,0.3-0.7,0-1L23,22.8C22.7,22.5,22.3,22.5,22,22.8z"/>
<path id="Shape_2_" fill="#FF3435" d="M22,19.9l-2.7,2.8c-0.3,0.3-0.3,0.7,0,1c0.3,0.3,0.7,0.3,1,0l2.2-2.3l2.4,2.3
	c0.3,0.3,0.7,0.3,1,0c0.3-0.3,0.3-0.7,0-1L23,19.9C22.7,19.6,22.3,19.6,22,19.9z"/>
<path id="Shape_3_" fill="#FF3435" d="M22,16.7l-2.7,2.8c-0.3,0.3-0.3,0.7,0,1c0.3,0.3,0.7,0.3,1,0l2.2-2.3l2.4,2.3
	c0.3,0.3,0.7,0.3,1,0c0.3-0.3,0.3-0.7,0-1L23,16.7C22.7,16.4,22.3,16.4,22,16.7z"/>
</svg>
