<?xml version="1.0" encoding="UTF-8"?>
<svg width="38px" height="34px" viewBox="0 0 38 34" version="1.1" xmlns="http://www.w3.org/2000/svg" xmlns:xlink="http://www.w3.org/1999/xlink">
    <!-- Generator: Sketch 52.2 (67145) - http://www.bohemiancoding.com/sketch -->
    <title>Open_Eventualities</title>
    <desc>Created with Sketch.</desc>
    <g id="Page-1" stroke="none" stroke-width="1" fill="none" fill-rule="evenodd">
        <g id="Open_Eventualities">
            <g id="Group" transform="translate(-0.000000, 0.000000)" fill="#ACACAC">
                <path d="M36.8973548,0.167801418 L0.608064516,0.167801418 C0.267548387,0.167801418 0,0.431489362 0,0.767092199 L0,32.9849645 C0,33.3205674 0.267548387,33.5842553 0.608064516,33.5842553 L36.8973548,33.5842553 C37.237871,33.5842553 37.5054194,33.3205674 37.5054194,32.9849645 L37.5054194,18.2184397 C37.5054194,17.8828369 37.237871,17.6191489 36.8973548,17.6191489 C36.5568387,17.6191489 36.2892903,17.8828369 36.2892903,18.2184397 L36.2892903,32.3856738 L1.21612903,32.3856738 L1.21612903,6.0648227 L36.3136129,6.0648227 L36.3136129,24.3312057 C36.3136129,24.6668085 36.5811613,24.9304965 36.9216774,24.9304965 C37.2621935,24.9304965 37.5297419,24.6668085 37.5297419,24.3312057 L37.5297419,0.743120567 C37.5054194,0.431489362 37.237871,0.167801418 36.8973548,0.167801418 Z M1.21612903,1.34241135 L23.3496774,1.34241135 L23.3496774,4.89021277 L1.21612903,4.89021277 L1.21612903,1.34241135 Z M24.5414839,4.86624113 L24.5414839,1.34241135 L36.3136129,1.34241135 L36.3136129,4.89021277 L24.5414839,4.89021277 L24.5414839,4.86624113 Z" id="Shape" fill-rule="nonzero"></path>
                <path d="M30.451871,2.46907801 C30.1113548,2.46907801 29.8194839,2.75673759 29.8194839,3.09234043 C29.8194839,3.42794326 30.1113548,3.71560284 30.451871,3.71560284 C30.7923871,3.71560284 31.0842581,3.42794326 31.0842581,3.09234043 C31.0842581,2.75673759 30.7923871,2.46907801 30.451871,2.46907801 Z" id="Shape"></path>
                <path d="M27.1683226,2.46907801 C26.8278065,2.46907801 26.5359355,2.75673759 26.5359355,3.09234043 C26.5359355,3.42794326 26.8278065,3.71560284 27.1683226,3.71560284 C27.5088387,3.71560284 27.8007097,3.42794326 27.8007097,3.09234043 C27.8007097,2.75673759 27.5331613,2.46907801 27.1683226,2.46907801 Z" id="Shape"></path>
                <path d="M33.7110968,2.46907801 C33.3705806,2.46907801 33.0787097,2.75673759 33.0787097,3.09234043 C33.0787097,3.42794326 33.3705806,3.71560284 33.7110968,3.71560284 C34.0516129,3.71560284 34.3434839,3.42794326 34.3434839,3.09234043 C34.3434839,2.75673759 34.0759355,2.46907801 33.7110968,2.46907801 Z" id="Shape"></path>
            </g>
            <path d="M17.0987742,17.547234 L11.6505161,12.2255319 C11.1154194,11.698156 10.2398065,11.698156 9.70470968,12.2255319 C9.1696129,12.7529078 9.1696129,13.6158865 9.70470968,14.1432624 L14.1557419,18.5060993 L9.51012903,23.1326241 C8.97503226,23.66 8.97503226,24.5229787 9.51012903,25.0503546 C10.0452258,25.5777305 10.9208387,25.5777305 11.4559355,25.0503546 L17.0744516,19.4649645 C17.633871,18.9375887 17.633871,18.0746099 17.0987742,17.547234 Z" id="Shape" stroke="#FFFFFF" stroke-width="0.65" fill="#F73435"></path>
            <path d="M19.5310323,24.8585816 L29.0168387,24.8585816" id="Shape" stroke="#F73435" stroke-width="2.6312" stroke-linecap="round" stroke-linejoin="round"></path>
        </g>
    </g>
</svg>