<?xml version="1.0" encoding="UTF-8"?>
<svg width="38px" height="48px" viewBox="0 0 38 48" version="1.1" xmlns="http://www.w3.org/2000/svg" xmlns:xlink="http://www.w3.org/1999/xlink">
    <!-- Generator: Sketch 52.2 (67145) - http://www.bohemiancoding.com/sketch -->
    <title>Total_Vulnerabilities</title>
    <desc>Created with Sketch.</desc>
    <g id="Page-1" stroke="none" stroke-width="1" fill="none" fill-rule="evenodd">
        <g id="Total_Vulnerabilities" transform="translate(1.000000, 1.000000)">
            <g id="04Rigurosidad">
                <g id="Group">
                    <path d="M28.8143364,2.72673913 L26.9170962,2.72673913 C26.7510877,2.72673913 26.6087946,2.87152174 26.6087946,3.04043478 C26.6087946,3.20934783 26.7510877,3.35413043 26.9170962,3.35413043 L28.5060349,3.35413043 L28.5060349,38.1502174 L0.640318588,38.1502174 L0.640318588,3.37826087 L2.22925731,3.37826087 C2.39526583,3.37826087 2.53755885,3.23347826 2.53755885,3.06456522 C2.53755885,2.89565217 2.39526583,2.75086957 2.22925731,2.75086957 L0.332017045,2.75086957 C0.166008523,2.75086957 0.0237155032,2.89565217 0.0237155032,3.06456522 L0.0237155032,38.4880435 C0.0237155032,38.6569565 0.166008523,38.8017391 0.332017045,38.8017391 L28.8143364,38.8017391 C28.980345,38.8017391 29.122638,38.6569565 29.122638,38.4880435 L29.122638,3.06456522 C29.122638,2.87152174 28.980345,2.72673913 28.8143364,2.72673913 Z" id="Shape" stroke="#A7A7A7" stroke-width="0.65" fill="#A7A7A7"></path>
                    <path d="M24.3795373,2.72673913 L22.4822971,2.72673913 C22.3162886,2.72673913 22.1739955,2.87152174 22.1739955,3.04043478 C22.1739955,3.20934783 22.3162886,3.35413043 22.4822971,3.35413043 L24.3795373,3.35413043 C24.5455459,3.35413043 24.6878389,3.20934783 24.6878389,3.04043478 C24.6878389,2.87152174 24.5455459,2.72673913 24.3795373,2.72673913 Z" id="Shape" stroke="#A7A7A7" stroke-width="0.65" fill="#A7A7A7"></path>
                    <path d="M19.9447382,2.72673913 L18.047498,2.72673913 C17.8814894,2.72673913 17.7391964,2.87152174 17.7391964,3.04043478 C17.7391964,3.20934783 17.8814894,3.35413043 18.047498,3.35413043 L19.9447382,3.35413043 C20.1107468,3.35413043 20.2530398,3.20934783 20.2530398,3.04043478 C20.2530398,2.87152174 20.1107468,2.72673913 19.9447382,2.72673913 Z" id="Shape" stroke="#A7A7A7" stroke-width="0.65" fill="#A7A7A7"></path>
                    <path d="M15.5099391,2.72673913 L13.6126989,2.72673913 C13.4466903,2.72673913 13.3043973,2.87152174 13.3043973,3.04043478 C13.3043973,3.20934783 13.4466903,3.35413043 13.6126989,3.35413043 L15.5099391,3.35413043 C15.6759476,3.35413043 15.8182407,3.20934783 15.8182407,3.04043478 C15.8182407,2.87152174 15.6759476,2.72673913 15.5099391,2.72673913 Z" id="Shape" stroke="#A7A7A7" stroke-width="0.65" fill="#A7A7A7"></path>
                    <path d="M11.07514,2.72673913 L9.17789976,2.72673913 C9.01189123,2.72673913 8.86959821,2.87152174 8.86959821,3.04043478 C8.86959821,3.20934783 9.01189123,3.35413043 9.17789976,3.35413043 L11.07514,3.35413043 C11.2411485,3.35413043 11.3834416,3.20934783 11.3834416,3.04043478 C11.3834416,2.87152174 11.264864,2.72673913 11.07514,2.72673913 Z" id="Shape" stroke="#A7A7A7" stroke-width="0.65" fill="#A7A7A7"></path>
                    <path d="M6.64034091,2.72673913 L4.74310065,2.72673913 C4.57709213,2.72673913 4.43479911,2.87152174 4.43479911,3.04043478 C4.43479911,3.20934783 4.57709213,3.35413043 4.74310065,3.35413043 L6.64034091,3.35413043 C6.80634943,3.35413043 6.94864245,3.20934783 6.94864245,3.04043478 C6.94864245,2.87152174 6.83006494,2.72673913 6.64034091,2.72673913 Z" id="Shape" stroke="#A7A7A7" stroke-width="0.65" fill="#A7A7A7"></path>
                    <path d="M3.48617898,0.168913043 C2.96443791,0.168913043 2.53755885,0.60326087 2.53755885,1.13413043 L2.53755885,4.995 C2.53755885,5.52586957 2.96443791,5.96021739 3.48617898,5.96021739 C4.00792005,5.96021739 4.43479911,5.52586957 4.43479911,4.995 L4.43479911,1.13413043 C4.43479911,0.60326087 4.00792005,0.168913043 3.48617898,0.168913043 Z M3.79448052,4.995 C3.79448052,5.16391304 3.6521875,5.30869565 3.48617898,5.30869565 C3.32017045,5.30869565 3.17787744,5.16391304 3.17787744,4.995 L3.17787744,1.13413043 C3.17787744,0.965217391 3.32017045,0.820434783 3.48617898,0.820434783 C3.6521875,0.820434783 3.79448052,0.965217391 3.79448052,1.13413043 L3.79448052,4.995 Z" id="Shape" stroke="#A7A7A7" stroke-width="0.65" fill="#A7A7A7" fill-rule="nonzero"></path>
                    <path d="M7.92097808,0.168913043 C7.39923701,0.168913043 6.97235795,0.60326087 6.97235795,1.13413043 L6.97235795,4.995 C6.97235795,5.52586957 7.39923701,5.96021739 7.92097808,5.96021739 C8.44271916,5.96021739 8.86959821,5.52586957 8.86959821,4.995 L8.86959821,1.13413043 C8.86959821,0.60326087 8.44271916,0.168913043 7.92097808,0.168913043 Z M8.22927963,4.995 C8.22927963,5.16391304 8.08698661,5.30869565 7.92097808,5.30869565 C7.75496956,5.30869565 7.61267654,5.16391304 7.61267654,4.995 L7.61267654,1.13413043 C7.61267654,0.965217391 7.75496956,0.820434783 7.92097808,0.820434783 C8.08698661,0.820434783 8.22927963,0.965217391 8.22927963,1.13413043 L8.22927963,4.995 Z" id="Shape" stroke="#A7A7A7" stroke-width="0.65" fill="#A7A7A7" fill-rule="nonzero"></path>
                    <path d="M12.3557772,0.168913043 C11.8340361,0.168913043 11.4071571,0.60326087 11.4071571,1.13413043 L11.4071571,4.995 C11.4071571,5.52586957 11.8340361,5.96021739 12.3557772,5.96021739 C12.8775183,5.96021739 13.3043973,5.52586957 13.3043973,4.995 L13.3043973,1.13413043 C13.3043973,0.60326087 12.8775183,0.168913043 12.3557772,0.168913043 Z M12.6640787,4.995 C12.6640787,5.16391304 12.5217857,5.30869565 12.3557772,5.30869565 C12.1897687,5.30869565 12.0474756,5.16391304 12.0474756,4.995 L12.0474756,1.13413043 C12.0474756,0.965217391 12.1897687,0.820434783 12.3557772,0.820434783 C12.5217857,0.820434783 12.6640787,0.965217391 12.6640787,1.13413043 L12.6640787,4.995 Z" id="Shape" stroke="#A7A7A7" stroke-width="0.65" fill="#A7A7A7" fill-rule="nonzero"></path>
                    <path d="M16.7668608,0.168913043 C16.2451197,0.168913043 15.8182407,0.60326087 15.8182407,1.13413043 L15.8182407,4.995 C15.8182407,5.52586957 16.2451197,5.96021739 16.7668608,5.96021739 C17.2886019,5.96021739 17.7154809,5.52586957 17.7154809,4.995 L17.7154809,1.13413043 C17.7154809,0.60326087 17.3123174,0.168913043 16.7668608,0.168913043 Z M17.0988778,4.995 C17.0988778,5.16391304 16.9565848,5.30869565 16.7905763,5.30869565 C16.6245678,5.30869565 16.4822748,5.16391304 16.4822748,4.995 L16.4822748,1.13413043 C16.4822748,0.965217391 16.6245678,0.820434783 16.7905763,0.820434783 C16.9565848,0.820434783 17.0988778,0.965217391 17.0988778,1.13413043 L17.0988778,4.995 Z" id="Shape" stroke="#A7A7A7" stroke-width="0.65" fill="#A7A7A7" fill-rule="nonzero"></path>
                    <path d="M21.2016599,0.168913043 C20.6799188,0.168913043 20.2530398,0.60326087 20.2530398,1.13413043 L20.2530398,4.995 C20.2530398,5.52586957 20.6799188,5.96021739 21.2016599,5.96021739 C21.723401,5.96021739 22.15028,5.52586957 22.15028,4.995 L22.15028,1.13413043 C22.15028,0.60326087 21.723401,0.168913043 21.2016599,0.168913043 Z M21.5336769,4.995 C21.5336769,5.16391304 21.3913839,5.30869565 21.2253754,5.30869565 C21.0593669,5.30869565 20.9170739,5.16391304 20.9170739,4.995 L20.9170739,1.13413043 C20.9170739,0.965217391 21.0593669,0.820434783 21.2253754,0.820434783 C21.3913839,0.820434783 21.5336769,0.965217391 21.5336769,1.13413043 L21.5336769,4.995 Z" id="Shape" stroke="#A7A7A7" stroke-width="0.65" fill="#A7A7A7" fill-rule="nonzero"></path>
                    <path d="M25.636459,0.168913043 C25.1147179,0.168913043 24.6878389,0.60326087 24.6878389,1.13413043 L24.6878389,4.995 C24.6878389,5.52586957 25.1147179,5.96021739 25.636459,5.96021739 C26.1582001,5.96021739 26.5850791,5.52586957 26.5850791,4.995 L26.5850791,1.13413043 C26.5850791,0.60326087 26.1582001,0.168913043 25.636459,0.168913043 Z M25.9684761,4.995 C25.9684761,5.16391304 25.826183,5.30869565 25.6601745,5.30869565 C25.494166,5.30869565 25.351873,5.16391304 25.351873,4.995 L25.351873,1.13413043 C25.351873,0.965217391 25.494166,0.820434783 25.6601745,0.820434783 C25.826183,0.820434783 25.9684761,0.965217391 25.9684761,1.13413043 L25.9684761,4.995 Z" id="Shape" stroke="#A7A7A7" stroke-width="0.65" fill="#A7A7A7" fill-rule="nonzero"></path>
                    <path d="M6.30239499,14.399837 L5.04547332,13.1209239 C4.9268958,13.0002717 4.71345627,13.0002717 4.59487875,13.1209239 C4.47630124,13.2415761 4.47630124,13.45875 4.59487875,13.5794022 L5.85180043,14.8583152 C5.92294694,14.9307065 5.99409345,14.954837 6.06523996,14.954837 C6.13638647,14.954837 6.23124848,14.9307065 6.27867948,14.8583152 C6.4209725,14.737663 6.4209725,14.5204891 6.30239499,14.399837 Z" id="Shape" stroke="#F73435" stroke-width="0.65" fill="#F73435"></path>
                    <path d="M9.00596236,11.9144022 C8.88738484,11.79375 8.67394531,11.79375 8.5553678,11.9144022 L6.01780895,14.4963587 C5.89923143,14.6170109 5.89923143,14.8341848 6.01780895,14.954837 C6.08895546,15.0272283 6.16010197,15.0513587 6.23124848,15.0513587 C6.30239499,15.0513587 6.397257,15.0272283 6.44468801,14.954837 L9.00596236,12.3728804 C9.12453987,12.2522283 9.12453987,12.0350543 9.00596236,11.9144022 Z" id="Shape" stroke="#F73435" stroke-width="0.65" fill="#F73435"></path>
                    <path d="M24.3795373,11.1241304 L11.7154586,11.1241304 C11.5494501,11.1241304 11.4071571,11.268913 11.4071571,11.4378261 C11.4071571,11.6067391 11.5494501,11.7515217 11.7154586,11.7515217 L24.3795373,11.7515217 C24.5455459,11.7515217 24.6878389,11.6067391 24.6878389,11.4378261 C24.6878389,11.2447826 24.5455459,11.1241304 24.3795373,11.1241304 Z" id="Shape" stroke="#A7A7A7" stroke-width="0.65" fill="#A7A7A7"></path>
                    <path d="M24.3795373,13.0545652 L11.7154586,13.0545652 C11.5494501,13.0545652 11.4071571,13.1993478 11.4071571,13.3682609 C11.4071571,13.5371739 11.5494501,13.6819565 11.7154586,13.6819565 L24.3795373,13.6819565 C24.5455459,13.6819565 24.6878389,13.5371739 24.6878389,13.3682609 C24.6878389,13.1993478 24.5455459,13.0545652 24.3795373,13.0545652 Z" id="Shape" stroke="#A7A7A7" stroke-width="0.65" fill="#A7A7A7"></path>
                    <path d="M18.047498,14.985 L11.7154586,14.985 C11.5494501,14.985 11.4071571,15.1297826 11.4071571,15.2986957 C11.4071571,15.4676087 11.5494501,15.6123913 11.7154586,15.6123913 L18.047498,15.6123913 C18.2135065,15.6123913 18.3557995,15.4676087 18.3557995,15.2986957 C18.3557995,15.1297826 18.2135065,14.985 18.047498,14.985 Z" id="Shape" stroke="#A7A7A7" stroke-width="0.65" fill="#A7A7A7"></path>
                    <path d="M24.3795373,19.4973913 L11.7154586,19.4973913 C11.5494501,19.4973913 11.4071571,19.6421739 11.4071571,19.811087 C11.4071571,19.98 11.5494501,20.1247826 11.7154586,20.1247826 L24.3795373,20.1247826 C24.5455459,20.1247826 24.6878389,19.98 24.6878389,19.811087 C24.6878389,19.6421739 24.5455459,19.4973913 24.3795373,19.4973913 Z" id="Shape" stroke="#A7A7A7" stroke-width="0.65" fill="#A7A7A7"></path>
                    <path d="M24.3795373,21.4278261 L11.7154586,21.4278261 C11.5494501,21.4278261 11.4071571,21.5726087 11.4071571,21.7415217 C11.4071571,21.9104348 11.5494501,22.0552174 11.7154586,22.0552174 L24.3795373,22.0552174 C24.5455459,22.0552174 24.6878389,21.9104348 24.6878389,21.7415217 C24.6878389,21.5726087 24.5455459,21.4278261 24.3795373,21.4278261 Z" id="Shape" stroke="#A7A7A7" stroke-width="0.65" fill="#A7A7A7"></path>
                    <path d="M18.047498,23.3582609 L11.7154586,23.3582609 C11.5494501,23.3582609 11.4071571,23.5030435 11.4071571,23.6719565 C11.4071571,23.8408696 11.5494501,23.9856522 11.7154586,23.9856522 L18.047498,23.9856522 C18.2135065,23.9856522 18.3557995,23.8408696 18.3557995,23.6719565 C18.3557995,23.5030435 18.2135065,23.3582609 18.047498,23.3582609 Z" id="Shape" stroke="#A7A7A7" stroke-width="0.65" fill="#A7A7A7"></path>
                    <path d="M24.3795373,27.8706522 L11.7154586,27.8706522 C11.5494501,27.8706522 11.4071571,28.0154348 11.4071571,28.1843478 C11.4071571,28.3532609 11.5494501,28.4980435 11.7154586,28.4980435 L24.3795373,28.4980435 C24.5455459,28.4980435 24.6878389,28.3532609 24.6878389,28.1843478 C24.6878389,28.0154348 24.5455459,27.8706522 24.3795373,27.8706522 Z" id="Shape" stroke="#A7A7A7" stroke-width="0.65" fill="#A7A7A7"></path>
                    <path d="M24.3795373,29.801087 L11.7154586,29.801087 C11.5494501,29.801087 11.4071571,29.9458696 11.4071571,30.1147826 C11.4071571,30.2836957 11.5494501,30.4284783 11.7154586,30.4284783 L24.3795373,30.4284783 C24.5455459,30.4284783 24.6878389,30.2836957 24.6878389,30.1147826 C24.6878389,29.9458696 24.5455459,29.801087 24.3795373,29.801087 Z" id="Shape" stroke="#A7A7A7" stroke-width="0.65" fill="#A7A7A7"></path>
                    <path d="M18.047498,31.7315217 L11.7154586,31.7315217 C11.5494501,31.7315217 11.4071571,31.8763043 11.4071571,32.0452174 C11.4071571,32.2141304 11.5494501,32.358913 11.7154586,32.358913 L18.047498,32.358913 C18.2135065,32.358913 18.3557995,32.2141304 18.3557995,32.0452174 C18.3557995,31.8763043 18.2135065,31.7315217 18.047498,31.7315217 Z" id="Shape" stroke="#A7A7A7" stroke-width="0.65" fill="#A7A7A7"></path>
                    <rect id="Rectangle-path" fill="#FFFFFF" x="17.4140645" y="25.2971739" width="15.3844765" height="16.376087"></rect>
                </g>
                <path d="M6.30239499,22.8454891 L5.04547332,21.5665761 C4.9268958,21.4459239 4.71345627,21.4459239 4.59487875,21.5665761 C4.47630124,21.6872283 4.47630124,21.9044022 4.59487875,22.0250543 L5.85180043,23.3039674 C5.92294694,23.3763587 5.99409345,23.4004891 6.06523996,23.4004891 C6.13638647,23.4004891 6.23124848,23.3763587 6.27867948,23.3039674 C6.4209725,23.1833152 6.4209725,22.9661413 6.30239499,22.8454891 Z" id="Shape-Copy-6" stroke="#F73435" stroke-width="0.65" fill="#F73435"></path>
                <path d="M9.00596236,20.11875 C8.88738484,19.9980978 8.67394531,19.9980978 8.5553678,20.11875 L6.01780895,22.7007065 C5.89923143,22.8213587 5.89923143,23.0385326 6.01780895,23.1591848 C6.08895546,23.2315761 6.16010197,23.2557065 6.23124848,23.2557065 C6.30239499,23.2557065 6.397257,23.2315761 6.44468801,23.1591848 L9.00596236,20.5772283 C9.12453987,20.4565761 9.12453987,20.2394022 9.00596236,20.11875 Z" id="Shape-Copy-7" stroke="#F73435" stroke-width="0.65" fill="#F73435"></path>
                <path d="M6.30239499,31.2911413 L5.04547332,30.0122283 C4.9268958,29.8915761 4.71345627,29.8915761 4.59487875,30.0122283 C4.47630124,30.1328804 4.47630124,30.3500543 4.59487875,30.4707065 L5.85180043,31.7496196 C5.92294694,31.8220109 5.99409345,31.8461413 6.06523996,31.8461413 C6.13638647,31.8461413 6.23124848,31.8220109 6.27867948,31.7496196 C6.4209725,31.6289674 6.4209725,31.4117935 6.30239499,31.2911413 Z" id="Shape-Copy-8" stroke="#F73435" stroke-width="0.65" fill="#F73435"></path>
                <path d="M9.00596236,28.5644022 C8.88738484,28.44375 8.67394531,28.44375 8.5553678,28.5644022 L6.01780895,31.1463587 C5.89923143,31.2670109 5.89923143,31.4841848 6.01780895,31.604837 C6.08895546,31.6772283 6.16010197,31.7013587 6.23124848,31.7013587 C6.30239499,31.7013587 6.397257,31.6772283 6.44468801,31.604837 L9.00596236,29.0228804 C9.12453987,28.9022283 9.12453987,28.6850543 9.00596236,28.5644022 Z" id="Shape-Copy-9" stroke="#F73435" stroke-width="0.65" fill="#F73435"></path>
            </g>
            <g id="Group-5" transform="translate(17.671875, 26.400000)" fill="#F73435" fill-rule="nonzero">
                <path d="M17.4709084,10.8774324 C17.4709084,12.4371081 16.6008054,13.8395676 15.2002073,14.5371081 L14.1845172,15.0428108 L14.1845172,17.1850946 C14.1845172,17.636027 13.8167035,18.003527 13.3631331,18.003527 L12.541464,18.003527 L12.541464,14.7300811 L10.8984109,14.7300811 L10.8984109,18.003527 L9.2553577,18.003527 L9.2553577,14.7300811 L7.61201963,14.7300811 L7.61201963,18.003527 L6.79035059,18.003527 C6.33706507,18.003527 5.96896646,17.636027 5.96896646,17.1850946 L5.96896646,15.0428108 L4.95356132,14.5371081 C3.55267829,13.8395676 2.68257522,12.4371081 2.68257522,10.8774324 L2.68257522,9.00190541 C2.68257522,4.94124324 5.99945141,1.63658108 10.0767418,1.63658108 C14.1543172,1.63658108 17.4709084,4.94124324 17.4709084,9.00190541 L17.4709084,10.8774324 Z M2.68257522,14.8733919 C3.12303997,15.3209189 3.63245198,15.7088514 4.21821881,16.0000135 L4.3259133,16.0542162 L4.3259133,17.1850946 C4.3259133,18.5387432 5.43163366,19.6401081 6.79035059,19.6401081 L13.3631331,19.6401081 C14.72185,19.6401081 15.8278553,18.5387432 15.8278553,17.1850946 L15.8278553,16.0542162 L15.9352648,16.0008649 C17.8965581,15.0237973 19.1139616,13.0605811 19.1139616,10.8774324 L19.1139616,9.00190541 C19.1139616,4.03852703 15.0594637,1.42108547e-14 10.0767418,1.42108547e-14 C5.09402,1.42108547e-14 1.03952206,4.03852703 1.03952206,9.00190541 L1.03952206,10.8774324 C1.03952206,12.3397703 1.59565866,13.6956892 2.54553542,14.7300811 L2.68257522,14.8733919 Z" id="Fill-14"></path>
                <path d="M6.63821076,8.94912162 C6.18464034,8.94912162 5.81654173,8.58162162 5.81654173,8.13068919 C5.81654173,7.67975676 6.18464034,7.31225676 6.63821076,7.31225676 C7.09178119,7.31225676 7.4598798,7.67975676 7.4598798,8.13068919 C7.4598798,8.58162162 7.09178119,8.94912162 6.63821076,8.94912162 M6.63821076,5.67567568 C5.27920893,5.67567568 4.17348856,6.77732432 4.17348856,8.13068919 C4.17348856,9.48433784 5.27920893,10.5857027 6.63821076,10.5857027 C7.9972126,10.5857027 9.10293297,9.48433784 9.10293297,8.13068919 C9.10293297,6.77732432 7.9972126,5.67567568 6.63821076,5.67567568" id="Fill-15"></path>
                <path d="M13.290482,9.08108108 C12.8186681,9.08108108 12.4357639,8.69879953 12.4357639,8.22972973 C12.4357639,7.76065993 12.8186681,7.37837838 13.290482,7.37837838 C13.7622959,7.37837838 14.1452002,7.76065993 14.1452002,8.22972973 C14.1452002,8.69879953 13.7622959,9.08108108 13.290482,9.08108108 M13.148029,5.67567568 C11.812748,5.67567568 10.7263276,6.75809546 10.7263276,8.08783784 C10.7263276,9.41785905 11.812748,10.5 13.148029,10.5 C14.48331,10.5 15.5697304,9.41785905 15.5697304,8.08783784 C15.5697304,6.75809546 14.48331,5.67567568 13.148029,5.67567568" id="Fill-16"></path>
            </g>
        </g>
    </g>
</svg>