<?xml version="1.0" encoding="UTF-8"?>
<svg width="38px" height="45px" viewBox="0 0 38 45" version="1.1" xmlns="http://www.w3.org/2000/svg" xmlns:xlink="http://www.w3.org/1999/xlink">
    <!-- Generator: Sketch 52.2 (67145) - http://www.bohemiancoding.com/sketch -->
    <title>Total_Compromised_Records</title>
    <desc>Created with Sketch.</desc>
    <g id="Page-1" stroke="none" stroke-width="1" fill="none" fill-rule="evenodd">
        <g id="Total_Compromised_Records" transform="translate(1.000000, 1.000000)">
            <g id="20VerificacioÌn_cierre">
                <path d="M29.0628,2.70296 L27.1492,2.70296 C26.98176,2.70296 26.83824,2.84648 26.83824,3.01392 C26.83824,3.18136 26.98176,3.32488 27.1492,3.32488 L28.75184,3.32488 L28.75184,37.81752 L0.64584,37.81752 L0.64584,3.3488 L2.24848,3.3488 C2.41592,3.3488 2.55944,3.20528 2.55944,3.03784 C2.55944,2.8704 2.41592,2.72688 2.24848,2.72688 L0.33488,2.72688 C0.16744,2.72688 0.02392,2.8704 0.02392,3.03784 L0.02392,38.1524 C0.02392,38.31984 0.16744,38.46336 0.33488,38.46336 L29.0628,38.46336 C29.23024,38.46336 29.37376,38.31984 29.37376,38.1524 L29.37376,3.03784 C29.37376,2.84648 29.23024,2.70296 29.0628,2.70296 Z" id="Shape" stroke="#A7A7A7" stroke-width="0.7176" fill="#A7A7A7"></path>
                <path d="M24.58976,2.70296 L22.67616,2.70296 C22.50872,2.70296 22.3652,2.84648 22.3652,3.01392 C22.3652,3.18136 22.50872,3.32488 22.67616,3.32488 L24.58976,3.32488 C24.7572,3.32488 24.90072,3.18136 24.90072,3.01392 C24.90072,2.84648 24.7572,2.70296 24.58976,2.70296 Z" id="Shape" stroke="#A7A7A7" stroke-width="0.7176" fill="#A7A7A7"></path>
                <path d="M20.11672,2.70296 L18.20312,2.70296 C18.03568,2.70296 17.89216,2.84648 17.89216,3.01392 C17.89216,3.18136 18.03568,3.32488 18.20312,3.32488 L20.11672,3.32488 C20.28416,3.32488 20.42768,3.18136 20.42768,3.01392 C20.42768,2.84648 20.28416,2.70296 20.11672,2.70296 Z" id="Shape" stroke="#A7A7A7" stroke-width="0.7176" fill="#A7A7A7"></path>
                <path d="M15.64368,2.70296 L13.73008,2.70296 C13.56264,2.70296 13.41912,2.84648 13.41912,3.01392 C13.41912,3.18136 13.56264,3.32488 13.73008,3.32488 L15.64368,3.32488 C15.81112,3.32488 15.95464,3.18136 15.95464,3.01392 C15.95464,2.84648 15.81112,2.70296 15.64368,2.70296 Z" id="Shape" stroke="#A7A7A7" stroke-width="0.7176" fill="#A7A7A7"></path>
                <path d="M11.17064,2.70296 L9.25704,2.70296 C9.0896,2.70296 8.94608,2.84648 8.94608,3.01392 C8.94608,3.18136 9.0896,3.32488 9.25704,3.32488 L11.17064,3.32488 C11.33808,3.32488 11.4816,3.18136 11.4816,3.01392 C11.4816,2.84648 11.362,2.70296 11.17064,2.70296 Z" id="Shape" stroke="#A7A7A7" stroke-width="0.7176" fill="#A7A7A7"></path>
                <path d="M6.6976,2.70296 L4.784,2.70296 C4.61656,2.70296 4.47304,2.84648 4.47304,3.01392 C4.47304,3.18136 4.61656,3.32488 4.784,3.32488 L6.6976,3.32488 C6.86504,3.32488 7.00856,3.18136 7.00856,3.01392 C7.00856,2.84648 6.88896,2.70296 6.6976,2.70296 Z" id="Shape" stroke="#A7A7A7" stroke-width="0.7176" fill="#A7A7A7"></path>
                <path d="M3.51624,0.16744 C2.99,0.16744 2.55944,0.598 2.55944,1.12424 L2.55944,4.95144 C2.55944,5.47768 2.99,5.90824 3.51624,5.90824 C4.04248,5.90824 4.47304,5.47768 4.47304,4.95144 L4.47304,1.12424 C4.47304,0.598 4.04248,0.16744 3.51624,0.16744 Z M3.8272,4.95144 C3.8272,5.11888 3.68368,5.2624 3.51624,5.2624 C3.3488,5.2624 3.20528,5.11888 3.20528,4.95144 L3.20528,1.12424 C3.20528,0.9568 3.3488,0.81328 3.51624,0.81328 C3.68368,0.81328 3.8272,0.9568 3.8272,1.12424 L3.8272,4.95144 Z" id="Shape" stroke="#A7A7A7" stroke-width="0.7176" fill="#A7A7A7" fill-rule="nonzero"></path>
                <path d="M7.98928,0.16744 C7.46304,0.16744 7.03248,0.598 7.03248,1.12424 L7.03248,4.95144 C7.03248,5.47768 7.46304,5.90824 7.98928,5.90824 C8.51552,5.90824 8.94608,5.47768 8.94608,4.95144 L8.94608,1.12424 C8.94608,0.598 8.51552,0.16744 7.98928,0.16744 Z M8.30024,4.95144 C8.30024,5.11888 8.15672,5.2624 7.98928,5.2624 C7.82184,5.2624 7.67832,5.11888 7.67832,4.95144 L7.67832,1.12424 C7.67832,0.9568 7.82184,0.81328 7.98928,0.81328 C8.15672,0.81328 8.30024,0.9568 8.30024,1.12424 L8.30024,4.95144 Z" id="Shape" stroke="#A7A7A7" stroke-width="0.7176" fill="#A7A7A7" fill-rule="nonzero"></path>
                <path d="M12.46232,0.16744 C11.93608,0.16744 11.50552,0.598 11.50552,1.12424 L11.50552,4.95144 C11.50552,5.47768 11.93608,5.90824 12.46232,5.90824 C12.98856,5.90824 13.41912,5.47768 13.41912,4.95144 L13.41912,1.12424 C13.41912,0.598 12.98856,0.16744 12.46232,0.16744 Z M12.77328,4.95144 C12.77328,5.11888 12.62976,5.2624 12.46232,5.2624 C12.29488,5.2624 12.15136,5.11888 12.15136,4.95144 L12.15136,1.12424 C12.15136,0.9568 12.29488,0.81328 12.46232,0.81328 C12.62976,0.81328 12.77328,0.9568 12.77328,1.12424 L12.77328,4.95144 Z" id="Shape" stroke="#A7A7A7" stroke-width="0.7176" fill="#A7A7A7" fill-rule="nonzero"></path>
                <path d="M16.91144,0.16744 C16.3852,0.16744 15.95464,0.598 15.95464,1.12424 L15.95464,4.95144 C15.95464,5.47768 16.3852,5.90824 16.91144,5.90824 C17.43768,5.90824 17.86824,5.47768 17.86824,4.95144 L17.86824,1.12424 C17.86824,0.598 17.4616,0.16744 16.91144,0.16744 Z M17.24632,4.95144 C17.24632,5.11888 17.1028,5.2624 16.93536,5.2624 C16.76792,5.2624 16.6244,5.11888 16.6244,4.95144 L16.6244,1.12424 C16.6244,0.9568 16.76792,0.81328 16.93536,0.81328 C17.1028,0.81328 17.24632,0.9568 17.24632,1.12424 L17.24632,4.95144 Z" id="Shape" stroke="#A7A7A7" stroke-width="0.7176" fill="#A7A7A7" fill-rule="nonzero"></path>
                <path d="M21.38448,0.16744 C20.85824,0.16744 20.42768,0.598 20.42768,1.12424 L20.42768,4.95144 C20.42768,5.47768 20.85824,5.90824 21.38448,5.90824 C21.91072,5.90824 22.34128,5.47768 22.34128,4.95144 L22.34128,1.12424 C22.34128,0.598 21.91072,0.16744 21.38448,0.16744 Z M21.71936,4.95144 C21.71936,5.11888 21.57584,5.2624 21.4084,5.2624 C21.24096,5.2624 21.09744,5.11888 21.09744,4.95144 L21.09744,1.12424 C21.09744,0.9568 21.24096,0.81328 21.4084,0.81328 C21.57584,0.81328 21.71936,0.9568 21.71936,1.12424 L21.71936,4.95144 Z" id="Shape" stroke="#A7A7A7" stroke-width="0.7176" fill="#A7A7A7" fill-rule="nonzero"></path>
                <path d="M25.85752,0.16744 C25.33128,0.16744 24.90072,0.598 24.90072,1.12424 L24.90072,4.95144 C24.90072,5.47768 25.33128,5.90824 25.85752,5.90824 C26.38376,5.90824 26.81432,5.47768 26.81432,4.95144 L26.81432,1.12424 C26.81432,0.598 26.38376,0.16744 25.85752,0.16744 Z M26.1924,4.95144 C26.1924,5.11888 26.04888,5.2624 25.88144,5.2624 C25.714,5.2624 25.57048,5.11888 25.57048,4.95144 L25.57048,1.12424 C25.57048,0.9568 25.714,0.81328 25.88144,0.81328 C26.04888,0.81328 26.1924,0.9568 26.1924,1.12424 L26.1924,4.95144 Z" id="Shape" stroke="#A7A7A7" stroke-width="0.7176" fill="#A7A7A7" fill-rule="nonzero"></path>
                <path d="M24.58976,11.02712 L11.81648,11.02712 C11.64904,11.02712 11.50552,11.17064 11.50552,11.33808 C11.50552,11.50552 11.64904,11.64904 11.81648,11.64904 L24.58976,11.64904 C24.7572,11.64904 24.90072,11.50552 24.90072,11.33808 C24.90072,11.14672 24.7572,11.02712 24.58976,11.02712 Z" id="Shape" stroke="#A7A7A7" stroke-width="0.65" fill="#A7A7A7"></path>
                <path d="M24.58976,12.94072 L11.81648,12.94072 C11.64904,12.94072 11.50552,13.08424 11.50552,13.25168 C11.50552,13.41912 11.64904,13.56264 11.81648,13.56264 L24.58976,13.56264 C24.7572,13.56264 24.90072,13.41912 24.90072,13.25168 C24.90072,13.08424 24.7572,12.94072 24.58976,12.94072 Z" id="Shape" stroke="#A7A7A7" stroke-width="0.65" fill="#A7A7A7"></path>
                <path d="M18.20312,14.85432 L11.81648,14.85432 C11.64904,14.85432 11.50552,14.99784 11.50552,15.16528 C11.50552,15.33272 11.64904,15.47624 11.81648,15.47624 L18.20312,15.47624 C18.37056,15.47624 18.51408,15.33272 18.51408,15.16528 C18.51408,14.99784 18.37056,14.85432 18.20312,14.85432 Z" id="Shape" stroke="#A7A7A7" stroke-width="0.65" fill="#A7A7A7"></path>
                <path d="M24.58976,19.32736 L11.81648,19.32736 C11.64904,19.32736 11.50552,19.47088 11.50552,19.63832 C11.50552,19.80576 11.64904,19.94928 11.81648,19.94928 L24.58976,19.94928 C24.7572,19.94928 24.90072,19.80576 24.90072,19.63832 C24.90072,19.47088 24.7572,19.32736 24.58976,19.32736 Z" id="Shape" stroke="#A7A7A7" stroke-width="0.65" fill="#A7A7A7"></path>
                <path d="M24.58976,21.24096 L11.81648,21.24096 C11.64904,21.24096 11.50552,21.38448 11.50552,21.55192 C11.50552,21.71936 11.64904,21.86288 11.81648,21.86288 L24.58976,21.86288 C24.7572,21.86288 24.90072,21.71936 24.90072,21.55192 C24.90072,21.38448 24.7572,21.24096 24.58976,21.24096 Z" id="Shape" stroke="#A7A7A7" stroke-width="0.65" fill="#A7A7A7"></path>
                <path d="M18.20312,23.15456 L11.81648,23.15456 C11.64904,23.15456 11.50552,23.29808 11.50552,23.46552 C11.50552,23.63296 11.64904,23.77648 11.81648,23.77648 L18.20312,23.77648 C18.37056,23.77648 18.51408,23.63296 18.51408,23.46552 C18.51408,23.29808 18.37056,23.15456 18.20312,23.15456 Z" id="Shape" stroke="#A7A7A7" stroke-width="0.65" fill="#A7A7A7"></path>
                <path d="M24.58976,27.6276 L11.81648,27.6276 C11.64904,27.6276 11.50552,27.77112 11.50552,27.93856 C11.50552,28.106 11.64904,28.24952 11.81648,28.24952 L24.58976,28.24952 C24.7572,28.24952 24.90072,28.106 24.90072,27.93856 C24.90072,27.77112 24.7572,27.6276 24.58976,27.6276 Z" id="Shape" stroke="#A7A7A7" stroke-width="0.65" fill="#A7A7A7"></path>
                <path d="M24.58976,29.5412 L11.81648,29.5412 C11.64904,29.5412 11.50552,29.68472 11.50552,29.85216 C11.50552,30.0196 11.64904,30.16312 11.81648,30.16312 L24.58976,30.16312 C24.7572,30.16312 24.90072,30.0196 24.90072,29.85216 C24.90072,29.68472 24.7572,29.5412 24.58976,29.5412 Z" id="Shape" stroke="#A7A7A7" stroke-width="0.65" fill="#A7A7A7"></path>
                <path d="M18.20312,31.4548 L11.81648,31.4548 C11.64904,31.4548 11.50552,31.59832 11.50552,31.76576 C11.50552,31.9332 11.64904,32.07672 11.81648,32.07672 L18.20312,32.07672 C18.37056,32.07672 18.51408,31.9332 18.51408,31.76576 C18.51408,31.59832 18.37056,31.4548 18.20312,31.4548 Z" id="Shape" stroke="#A7A7A7" stroke-width="0.65" fill="#A7A7A7"></path>
                <rect id="Rectangle-path" fill="#FFFFFF" x="22.31736" y="31.02424" width="10.764" height="10.2856"></rect>
                <path d="M29.11064,37.674 L24.8768,33.488 C24.44624,33.08136 23.77648,33.08136 23.36984,33.488 C22.9632,33.91856 22.9632,34.58832 23.36984,34.99496 L26.83824,38.43944 L23.22632,42.0992 C22.81968,42.52976 22.81968,43.19952 23.22632,43.60616 C23.65688,44.0128 24.32664,44.0128 24.73328,43.60616 L29.11064,39.18096 C29.5412,38.77432 29.51728,38.10456 29.11064,37.674 Z" id="Shape" fill="#F73435"></path>
                <path d="M36.28664,37.674 L32.0528,33.488 C31.62224,33.08136 30.95248,33.08136 30.54584,33.488 C30.1392,33.91856 30.1392,34.58832 30.54584,34.99496 L34.01424,38.43944 L30.40232,42.0992 C29.99568,42.52976 29.99568,43.19952 30.40232,43.60616 C30.83288,44.0128 31.50264,44.0128 31.90928,43.60616 L36.28664,39.18096 C36.7172,38.77432 36.69328,38.10456 36.28664,37.674 Z" id="Shape" fill="#F73435"></path>
                <g id="1" transform="translate(5.501600, 9.328800)" fill="#F73435" font-family="Montserrat-Black, Montserrat" font-size="5.7408" font-weight="700">
                    <text>
                        <tspan x="0.04123808" y="6.06905704">1</tspan>
                    </text>
                </g>
                <g id="2" transform="translate(4.305600, 17.700800)" fill="#F73435" font-family="Montserrat-Black, Montserrat" font-size="5.7408" font-weight="700">
                    <text>
                        <tspan x="0.1005836" y="6.06905704">2</tspan>
                    </text>
                </g>
                <g id="3" transform="translate(4.305600, 26.312000)" fill="#F73435" font-family="Montserrat-Black, Montserrat" font-size="5.7408" font-weight="700">
                    <text>
                        <tspan x="0.08907808" y="6.06905704">3</tspan>
                    </text>
                </g>
            </g>
        </g>
    </g>
</svg>