<?xml version="1.0" encoding="utf-8"?>
<!-- Generator: Adobe Illustrator 18.0.0, SVG Export Plug-In . SVG Version: 6.00 Build 0)  -->
<!DOCTYPE svg PUBLIC "-//W3C//DTD SVG 1.1//EN" "http://www.w3.org/Graphics/SVG/1.1/DTD/svg11.dtd">
<svg version="1.1" id="Capa_1" xmlns="http://www.w3.org/2000/svg" xmlns:xlink="http://www.w3.org/1999/xlink" x="0px" y="0px"
	 viewBox="0 0 45 45" enable-background="new 0 0 45 45" xml:space="preserve">
<g id="Open_Vulnerabilities">
	<g>
		<path id="Fill-4" fill="#A8A9A8" d="M32,37.6H13.1c-0.6,0-1.2-0.4-1.4-1h21.7C33.2,37.2,32.6,37.6,32,37.6 M33.9,35.5H11.1
			c-0.3,0-0.5,0.2-0.5,0.5c0,1.4,1.1,2.5,2.5,2.5H32c1.4,0,2.5-1.1,2.5-2.5C34.4,35.8,34.2,35.5,33.9,35.5"/>
		<path id="Fill-6" fill="#A8A9A8" d="M13.7,20.1c-0.8,0-1.5,0.7-1.5,1.5v14.2h1V21.7c0-0.3,0.2-0.5,0.5-0.5h2.7v-1h-2.7V20.1z"/>
		<path id="Fill-8" fill="#A8A9A8" d="M31.5,20.1h-2.7v1h2.7c0.3,0,0.5,0.2,0.5,0.5v14.2h1V21.7C33,20.8,32.3,20.1,31.5,20.1"/>
		<polygon id="Fill-10" fill="#A8A9A8" points="20.6,37 24.6,37 24.6,36 20.6,36 		"/>
	</g>
	<path id="Fill-12" fill="#F73435" d="M23.3,24.1l3.3-3.3c0.3-0.3,0.3-0.8,0-1.2c-0.3-0.3-0.9-0.3-1.2,0l-2.7,2.7l-2.9-2.8
		c-0.3-0.3-0.9-0.3-1.2,0c-0.3,0.3-0.3,0.8,0,1.2l3.5,3.4C22.4,24.4,22.9,24.4,23.3,24.1"/>
	<g id="Group-5" transform="translate(11.945946, 0.000000)">
		<path id="Fill-14" fill="#F73435" d="M15.6,11.7c0,1-0.6,1.9-1.5,2.4l-0.7,0.3v1.4c0,0.3-0.2,0.5-0.5,0.5h-0.5v-2.1h-1.1v2.1h-1.1
			v-2.1H9.1v2.1H8.5c-0.3,0-0.5-0.2-0.5-0.5v-1.4l-0.7-0.3c-0.9-0.5-1.5-1.4-1.5-2.4v-1.2c0-2.6,2.2-4.8,4.9-4.8s4.9,2.1,4.9,4.8
			V11.7z M5.8,14.3c0.3,0.3,0.6,0.5,1,0.7h0.1v0.7c0,0.9,0.7,1.6,1.6,1.6h4.4c0.9,0,1.6-0.7,1.6-1.6V15h0.1c1.3-0.6,2.1-1.9,2.1-3.3
			v-1.2c0-3.2-2.7-5.8-6-5.8s-6,2.6-6,5.8v1.2C4.7,12.6,5.1,13.5,5.8,14.3L5.8,14.3z"/>
		<path id="Fill-15" fill="#F73435" d="M8.4,10.4c-0.3,0-0.5-0.2-0.5-0.5s0.2-0.5,0.5-0.5s0.5,0.2,0.5,0.5S8.7,10.4,8.4,10.4
			 M8.4,8.3C7.5,8.3,6.8,9,6.8,9.9s0.7,1.6,1.6,1.6S10,10.8,10,9.9C10,9,9.3,8.3,8.4,8.3"/>
		<path id="Fill-16" fill="#F73435" d="M12.8,10.5c-0.3,0-0.6-0.2-0.6-0.6c0-0.3,0.3-0.6,0.6-0.6s0.6,0.2,0.6,0.6
			C13.4,10.3,13.1,10.5,12.8,10.5 M12.7,8.3c-0.9,0-1.6,0.7-1.6,1.6c0,0.9,0.7,1.6,1.6,1.6s1.6-0.7,1.6-1.6S13.6,8.3,12.7,8.3"/>
	</g>
</g>
<path id="Shape_5_" fill="#A7A7A7" d="M22.4,0.7c-12.1,0-22,9.8-22,21.8s9.9,21.7,22,21.7s22-9.8,22-21.8S34.5,0.7,22.4,0.7z
	 M22.4,42c-11,0-19.8-8.8-19.8-19.6S11.4,2.7,22.4,2.7s19.8,8.8,19.8,19.6C42.2,33.2,33.4,42,22.4,42z"/>
</svg>
