<?xml version="1.0" encoding="utf-8"?>
<!-- Generator: Adobe Illustrator 18.0.0, SVG Export Plug-In . SVG Version: 6.00 Build 0)  -->
<!DOCTYPE svg PUBLIC "-//W3C//DTD SVG 1.1//EN" "http://www.w3.org/Graphics/SVG/1.1/DTD/svg11.dtd">
<svg version="1.1" id="Capa_1" xmlns="http://www.w3.org/2000/svg" xmlns:xlink="http://www.w3.org/1999/xlink" x="0px" y="0px"
	 viewBox="0 0 45 45" enable-background="new 0 0 45 45" xml:space="preserve">
<g id="Open_Vulnerabilities">
	<g>
		<path fill="#A8A9A8" d="M35.2,33.2H20.5l0,0l0,0l0,0l0,0l0,0h-6.2c-0.3,0-0.5,0.2-0.5,0.5c0,1.3,1,2.3,2.3,2.3h17.4
			c1.3,0,2.3-1.1,2.3-2.3C35.6,33.4,35.4,33.2,35.2,33.2z M33.3,35.1H15.9c-0.6,0-1.1-0.4-1.3-0.9h20C34.4,34.7,33.9,35.1,33.3,35.1
			z"/>
		<path id="Fill-8" fill="#A8A9A8" d="M32.9,19.6h-2.5v0.9h2.5c0.3,0,0.5,0.2,0.5,0.4v12.6h0.9V21C34.3,20.2,33.6,19.6,32.9,19.6"/>
		<polygon id="Fill-10" fill="#A8A9A8" points="22.9,34.6 26.5,34.6 26.5,33.6 22.9,33.6 		"/>
		<path fill="#A8A9A8" d="M16.1,29.2v-2.5c0-0.2-0.1-0.7,0-0.9v-5c0-0.2,0.2-0.4,0.5-0.4h2.5v-0.9h-2.5c-0.8,0-1.4,0.6-1.4,1.3v12.6
			h0.9V30C16.1,29.8,16,29.4,16.1,29.2z"/>
	</g>
	<path id="Fill-12" fill="#F73435" d="M25.4,23l3.2-3.2c0.3-0.3,0.3-0.8,0-1.1c-0.3-0.3-0.8-0.3-1.2,0l-2.7,2.6l-2.8-2.7
		c-0.3-0.3-0.8-0.3-1.2,0c-0.3,0.3-0.3,0.8,0,1.1l3.4,3.3C24.5,23.3,25,23.3,25.4,23"/>
	<g>
		<g>
			<path fill="#A7A7A7" d="M20.8,33.2c-0.1,0-0.2,0-0.2-0.1l0,0c0,0.1,0,0.1,0,0.1l0,0v0.1l0,0H9v-2.6c0-1,0.8-1.9,1.9-1.9
				c0,0,0.6,0,1.1-0.2l2.1,2.9c0.2,0.2,0.4,0.4,0.7,0.4s0.5-0.1,0.7-0.4l0.6-0.8c0-0.1,0-0.1,0-0.2s0-0.2,0-0.3c0-0.1,0-0.4,0-0.7
				L15,31c0,0,0,0-0.1,0c0,0,0,0-0.1,0l-2-2.9c0.6-0.4,1-1.1,1.1-1.8c0.3,0.1,0.6,0.2,1,0.2c0.3,0,0.6-0.1,1-0.2
				c0,0.2,0.1,0.4,0.2,0.6v-0.1c0-0.2-0.1-0.9,0-0.9l0,0c0-0.2,0-0.4,0-0.6c-0.3,0.2-0.7,0.3-1.1,0.3c-0.7,0-1.3-0.3-1.8-1
				c-0.5-0.6-0.8-1.4-0.9-2.3c0.5-0.4,0.9-1,1.1-1.6l0.1,0.1c0.3,0.2,0.6,0.3,0.9,0.3H16c0-0.3,0-0.7,0-0.7h-1.9
				c-0.2,0-0.3,0-0.4-0.1c-0.1-0.1-0.2-0.2-0.2-0.3c-0.1-0.2-0.3-0.3-0.5-0.3s-0.4,0.2-0.4,0.4c-0.2,0.6-0.5,1.1-0.9,1.6
				c-0.4-1.6,0.3-3.2,1.6-3.5c0.1,0,0.3-0.1,0.4-0.1c0.1,0,0.1,0,0.2,0c0.4-0.2,0.8-0.3,1.2-0.3c1.3,0,2.4,1,2.7,2.3
				c0.2-0.3,0.6-0.3,0.8,0c-0.4-1.7-1.8-3-3.5-3c-0.5,0-1,0.1-1.5,0.4c-0.2,0-0.4,0-0.5,0.1c-0.8,0.2-1.5,0.8-1.9,1.7
				C10.8,20,10.7,21,11,22c0.1,0.2,0.1,0.4,0.2,0.6c0,0.1,0.1,0.1,0.1,0.1c0.2,1.5,0.9,2.7,1.8,3.4c-0.3,2.1-2.3,2.1-2.3,2.1
				c-1.4,0-2.5,1.2-2.5,2.6v3c0,0.2,0.2,0.4,0.4,0.4h12.2c0.2,0,0.4-0.2,0.4-0.4v-0.6C21.3,33.2,20.8,33.2,20.8,33.2z"/>
		</g>
	</g>
	<g id="Group-5" transform="translate(11.945946, 0.000000)">
		<path id="Fill-14" fill="#F73435" d="M17.2,11.9c0,0.9-0.5,1.8-1.4,2.2l-0.6,0.3v1.3c0,0.3-0.2,0.5-0.5,0.5h-0.5v-1.9h-1v1.9h-1
			v-1.9h-1v1.9h-0.5c-0.3,0-0.5-0.2-0.5-0.5v-1.3l-0.6-0.3c-0.9-0.4-1.4-1.2-1.4-2.2v-1.1c0-2.4,2-4.4,4.5-4.4s4.5,2,4.5,4.4V11.9z
			 M8.2,14.3c0.3,0.3,0.6,0.5,0.9,0.7h0.1v0.7c0,0.8,0.7,1.5,1.5,1.5h4c0.8,0,1.5-0.7,1.5-1.5V15h0.1c1.2-0.6,1.9-1.7,1.9-3v-1.1
			c0-3-2.5-5.4-5.5-5.4s-5.5,2.4-5.5,5.4V12C7.2,12.8,7.5,13.6,8.2,14.3L8.2,14.3z"/>
		<path id="Fill-15" fill="#F73435" d="M10.6,10.8c-0.3,0-0.5-0.2-0.5-0.5s0.2-0.5,0.5-0.5s0.5,0.2,0.5,0.5S10.9,10.8,10.6,10.8
			 M10.6,8.8c-0.8,0-1.5,0.7-1.5,1.5s0.7,1.5,1.5,1.5s1.5-0.7,1.5-1.5S11.4,8.8,10.6,8.8"/>
		<path id="Fill-16" fill="#F73435" d="M14.6,10.8c-0.3,0-0.5-0.2-0.5-0.5s0.2-0.5,0.5-0.5s0.5,0.2,0.5,0.5
			C15.2,10.6,14.9,10.8,14.6,10.8 M14.6,8.8c-0.8,0-1.5,0.6-1.5,1.4c0,0.8,0.7,1.4,1.5,1.4s1.5-0.6,1.5-1.4
			C16,9.5,15.4,8.8,14.6,8.8"/>
	</g>
</g>
<path id="Shape_5_" fill="#A7A7A7" d="M22.4,0.7c-12.1,0-22,9.8-22,21.8s9.9,21.7,22,21.7s22-9.8,22-21.8S34.5,0.7,22.4,0.7z
	 M22.4,42c-11,0-19.8-8.8-19.8-19.6S11.4,2.7,22.4,2.7s19.8,8.8,19.8,19.6C42.2,33.2,33.4,42,22.4,42z"/>
</svg>
