<?xml version="1.0" encoding="utf-8"?>
<!-- Generator: Adobe Illustrator 18.0.0, SVG Export Plug-In . SVG Version: 6.00 Build 0)  -->
<!DOCTYPE svg PUBLIC "-//W3C//DTD SVG 1.1//EN" "http://www.w3.org/Graphics/SVG/1.1/DTD/svg11.dtd">
<svg version="1.1" id="Capa_1" xmlns="http://www.w3.org/2000/svg" xmlns:xlink="http://www.w3.org/1999/xlink" x="0px" y="0px"
	 viewBox="0 0 45 45" enable-background="new 0 0 45 45" xml:space="preserve">
<g>
	<path id="Fill-4" fill="#A8A9A8" d="M39,35.7H5.7c-1.1,0-2.1-0.7-2.5-1.8h38.2C41.1,35,40.1,35.7,39,35.7 M42.5,32.2H2.2
		c-0.5,0-0.9,0.4-0.9,0.9c0,2.4,2,4.4,4.4,4.4H39c2.4,0,4.4-2,4.4-4.4C43.3,32.6,42.9,32.2,42.5,32.2"/>
	<path id="Fill-6" fill="#A8A9A8" d="M6.7,7C5.3,7,4.1,8.1,4.1,9.5v23.3h1.7V9.5c0-0.5,0.4-0.8,0.9-0.8h4.7V7H6.7z"/>
	<path id="Fill-8" fill="#A8A9A8" d="M38.1,7h-4.7v1.7h4.7c0.5,0,0.9,0.4,0.9,0.8v23.3h1.7V9.5C40.7,8.1,39.6,7,38.1,7"/>
	<path fill="#A8A9A8" d="M10.9,8.7h24.3V7H11C11,7.6,10.9,8.2,10.9,8.7z"/>
	<polygon id="Fill-10" fill="#A8A9A8" points="19,34.8 26,34.8 26,33.1 19,33.1 	"/>
</g>
<g id="Group-5" transform="translate(11.945946, 0.000000)">
	<path id="Fill-14" fill="#F73435" d="M17.9,21.3c0,1.5-0.9,2.9-2.3,3.6l-1,0.5v2.1c0,0.4-0.4,0.8-0.8,0.8H13v-3.2h-1.7v3.2H9.6
		v-3.2H7.9v3.2H7.1c-0.5,0-0.8-0.4-0.8-0.8v-2.1l-1-0.5C3.9,24.2,3,22.8,3,21.3v-1.9c0-4,3.4-7.3,7.5-7.3s7.5,3.3,7.5,7.3v1.9H17.9z
		 M2.9,25.2c0.4,0.4,1,0.8,1.6,1.1l0.1,0.1v1.1c0,1.3,1.1,2.4,2.5,2.4h6.7c1.4,0,2.5-1.1,2.5-2.4v-1.1l0.1-0.1c2-1,3.2-2.9,3.2-5.1
		v-1.9c0-4.9-4.1-8.9-9.2-8.9s-9.2,4-9.2,8.9v1.9c0,1.4,0.6,2.8,1.5,3.8L2.9,25.2z"/>
	<path id="Fill-15" fill="#F73435" d="M6.9,19.4c-0.5,0-0.8-0.4-0.8-0.8s0.4-0.8,0.8-0.8c0.5,0,0.8,0.4,0.8,0.8S7.4,19.4,6.9,19.4
		 M6.9,16.1c-1.4,0-2.5,1.1-2.5,2.4s1.1,2.4,2.5,2.4s2.5-1.1,2.5-2.4S8.3,16.1,6.9,16.1"/>
	<path id="Fill-16" fill="#F73435" d="M13.7,19.5c-0.5,0-0.9-0.4-0.9-0.8c0-0.5,0.4-0.8,0.9-0.8s0.9,0.4,0.9,0.8
		C14.6,19.1,14.2,19.5,13.7,19.5 M13.5,16.1c-1.4,0-2.5,1.1-2.5,2.4s1.1,2.4,2.5,2.4s2.5-1.1,2.5-2.4S14.9,16.1,13.5,16.1"/>
</g>
</svg>
