<?xml version="1.0" encoding="utf-8"?>
<!-- Generator: Adobe Illustrator 18.0.0, SVG Export Plug-In . SVG Version: 6.00 Build 0)  -->
<!DOCTYPE svg PUBLIC "-//W3C//DTD SVG 1.1//EN" "http://www.w3.org/Graphics/SVG/1.1/DTD/svg11.dtd">
<svg version="1.1" id="Capa_1" xmlns="http://www.w3.org/2000/svg" xmlns:xlink="http://www.w3.org/1999/xlink" x="0px" y="0px"
	 viewBox="0 0 45 45" enable-background="new 0 0 45 45" xml:space="preserve">
<path fill="#434343" d="M32.6,34.5v-3.2h-1v3.2C31.9,34.5,32.2,34.5,32.6,34.5z"/>
<path fill="#434343" d="M9.4,34.2v-4.8H8.5v4.8C8.8,34.2,9.2,34.2,9.4,34.2z"/>
<g>
	<path id="Fill-4" fill="#A8A9A8" d="M41.1,30.8H23.3c-0.6,0-1.2-0.4-1.4-1h20.5C42.3,30.5,41.7,30.8,41.1,30.8 M43,29H21.4
		c-0.3,0-0.5,0.2-0.5,0.5c0,1.3,1,2.4,2.3,2.4h17.9c1.3,0,2.3-1,2.3-2.4C43.5,29.1,43.3,29,43,29"/>
	<path id="Fill-6" fill="#A8A9A8" d="M23.9,15.4c-0.8,0-1.4,0.6-1.4,1.4v12.5h1V16.6c0-0.3,0.2-0.5,0.5-0.5h2.6v-0.8
		C26.6,15.3,23.9,15.3,23.9,15.4z"/>
	<path id="Fill-8" fill="#A8A9A8" d="M40.7,15.4h-2.6v0.9h2.6c0.3,0,0.5,0.2,0.5,0.5v12.5h1V16.6C42.1,15.9,41.5,15.4,40.7,15.4"/>
	<path fill="#A8A9A8" d="M26.1,16.3h13.1v-0.9H26.1C26.1,15.6,26.1,15.9,26.1,16.3z"/>
	<polygon id="Fill-10" fill="#A8A9A8" points="30.4,30.3 34.2,30.3 34.2,29.4 30.4,29.4 	"/>
</g>
<path fill="#434343" d="M5.5,34.5h29.6v-0.9H5.5C5.5,33.8,5.5,34.3,5.5,34.5z"/>
<path fill="#FF3435" d="M16.1,22.7c-0.2-2.7-2.4-4.9-5.1-4.9c-1.6,0-3.2,0.8-4.2,2.1c0,0,0,0-0.1,0c-0.1,0-0.1-0.1-0.2-0.1
	c0,0-0.1,0-0.1,0c-0.1,0-0.1,0-0.2-0.1c0,0-0.1,0-0.1,0c-0.1,0-0.1,0-0.2,0c0,0-0.1,0-0.1,0c-0.1,0-0.2,0-0.3,0
	c-1.5,0-2.7,1.2-2.7,2.7c0,0,0,0.1,0,0.1v0c-1.2,0.7-2.1,2.1-2.1,3.5c0,2.1,1.7,3.9,3.9,3.9H12c0,0,0.1,0,0.1,0l0,0l0,0
	c0,0,0.1,0,0.1,0h2.9c2,0,3.6-1.6,3.6-3.6C18.8,24.6,17.7,23.1,16.1,22.7z M15.2,29.3h-2.9c0,0,0,0-0.1,0l-0.1,0l-0.1,0
	c0,0,0,0-0.1,0H4.7c-1.8,0-3.3-1.5-3.3-3.3c0-1.2,0.8-2.5,1.9-3.1l0.2-0.1v-0.2c0,0,0-0.1,0-0.1l0,0l0-0.1c0,0,0,0,0-0.1
	c0-1.2,0.9-2.1,2.1-2.1c0.1,0,0.2,0,0.3,0c0,0,0,0,0.1,0c0.1,0,0.2,0,0.2,0.1c0,0,0,0,0,0c0.1,0,0.2,0.1,0.3,0.1c0,0,0,0,0.1,0
	c0.1,0,0.1,0.1,0.2,0.1c0.6,0.4,1,1,1,1.8c0,0.2,0.1,0.3,0.3,0.3c0.2,0,0.3-0.1,0.3-0.3c0-0.8-0.4-1.6-1-2.1
	c0.9-1.1,2.3-1.8,3.7-1.8c2.3,0,4.3,1.8,4.5,4.2c-0.3,0-0.8,0-1.2,0c-0.2,0-0.3,0.2-0.3,0.3c0,0.1,0.2,0.3,0.3,0.3c0,0,0,0,0,0
	c0.7-0.1,1.4,0,1.4,0c1.4,0.3,2.4,1.6,2.4,3C18.2,27.9,16.9,29.3,15.2,29.3z"/>
</svg>
