<?xml version="1.0" encoding="utf-8"?>
<!-- Generator: Adobe Illustrator 18.0.0, SVG Export Plug-In . SVG Version: 6.00 Build 0)  -->
<!DOCTYPE svg PUBLIC "-//W3C//DTD SVG 1.1//EN" "http://www.w3.org/Graphics/SVG/1.1/DTD/svg11.dtd">
<svg version="1.1" id="Capa_1" xmlns="http://www.w3.org/2000/svg" xmlns:xlink="http://www.w3.org/1999/xlink" x="0px" y="0px"
	 viewBox="0 2.2 45 40.5" enable-background="new 0 2.2 45 40.5" xml:space="preserve">
<path fill="#434343" d="M32.6,31.7v-3.2h-1v3.2C31.9,31.7,32.2,31.7,32.6,31.7z"/>
<path fill="#434343" d="M9.4,31.4v-6.4H8.5v6.4C8.8,31.4,9.2,31.4,9.4,31.4z"/>
<g>
	<path id="Fill-4" fill="#A8A9A8" d="M41.1,28H23.3c-0.6,0-1.2-0.4-1.4-1h20.5C42.3,27.7,41.7,28,41.1,28 M43,26.2H21.4
		c-0.3,0-0.5,0.2-0.5,0.5c0,1.3,1,2.4,2.3,2.4h17.9c1.3,0,2.3-1,2.3-2.4C43.5,26.4,43.3,26.2,43,26.2"/>
	<path id="Fill-6" fill="#A8A9A8" d="M23.9,12.6c-0.8,0-1.4,0.6-1.4,1.4v12.5h1V13.9c0-0.3,0.2-0.5,0.5-0.5h2.6v-0.8H23.9z"/>
	<path id="Fill-8" fill="#A8A9A8" d="M40.7,12.6h-2.6v0.9h2.6c0.3,0,0.5,0.2,0.5,0.5v12.5h1V13.9C42.1,13.2,41.5,12.6,40.7,12.6"/>
	<path fill="#A8A9A8" d="M26.1,13.5h13.1v-0.9H26.1C26.1,12.9,26.1,13.2,26.1,13.5z"/>
	<polygon id="Fill-10" fill="#A8A9A8" points="30.4,27.5 34.2,27.5 34.2,26.6 30.4,26.6 	"/>
</g>
<g id="Group-5" transform="translate(11.945946, 0.000000)">
	<path id="Fill-14" fill="#F73435" d="M1.7,20.2c0,1-0.5,1.8-1.4,2.3l-0.6,0.3v1.3c0,0.3-0.3,0.5-0.5,0.5h-0.5v-2h-1v2h-1v-2h-1v2
		H-5c-0.3,0-0.5-0.2-0.5-0.5v-1.3l-0.6-0.3c-0.9-0.5-1.4-1.3-1.4-2.3v-1.2c0-2.4,2.1-4.5,4.6-4.5c2.5,0,4.6,2,4.6,4.5V20.2z
		 M-7.5,22.7c0.3,0.3,0.6,0.5,1,0.7l0.1,0.1v0.7c0,0.8,0.7,1.5,1.5,1.5h4.1c0.8,0,1.5-0.6,1.5-1.5v-0.7l0.1-0.1c1.2-0.6,2-1.8,2-3.1
		v-1.2c-0.1-3-2.6-5.5-5.7-5.5s-5.6,2.5-5.6,5.5v1.2C-8.6,21.2-8.2,22-7.5,22.7L-7.5,22.7z"/>
	<path id="Fill-15" fill="#F73435" d="M-5.1,19.1c-0.3,0-0.5-0.2-0.5-0.5c0-0.3,0.3-0.5,0.5-0.5s0.5,0.2,0.5,0.5S-4.8,19.1-5.1,19.1
		 M-5.1,17.1c-0.8,0-1.5,0.6-1.5,1.5c0,0.8,0.7,1.5,1.5,1.5s1.5-0.6,1.5-1.5C-3.5,17.8-4.2,17.1-5.1,17.1"/>
	<path id="Fill-16" fill="#F73435" d="M-1,19.1c-0.3,0-0.5-0.3-0.5-0.5c0-0.3,0.3-0.5,0.5-0.5s0.6,0.3,0.6,0.5
		C-0.4,19-0.6,19.1-1,19.1 M-1,17.1c-0.8,0-1.5,0.6-1.5,1.5c0,0.8,0.7,1.5,1.5,1.5s1.5-0.6,1.5-1.5C0.5,17.7-0.2,17.1-1,17.1"/>
</g>
<path fill="#434343" d="M5.5,31.8h29.6v-0.9H5.5C5.5,31.1,5.5,31.5,5.5,31.8z"/>
</svg>
