<?xml version="1.0" encoding="utf-8"?>
<!-- Generator: Adobe Illustrator 18.0.0, SVG Export Plug-In . SVG Version: 6.00 Build 0)  -->
<!DOCTYPE svg PUBLIC "-//W3C//DTD SVG 1.1//EN" "http://www.w3.org/Graphics/SVG/1.1/DTD/svg11.dtd">
<svg version="1.1" id="Capa_1" xmlns="http://www.w3.org/2000/svg" xmlns:xlink="http://www.w3.org/1999/xlink" x="0px" y="0px"
	 viewBox="0 0 45 45" enable-background="new 0 0 45 45" xml:space="preserve">
<g>
	<path id="Fill-4" fill="#A8A9A8" d="M40.7,31.4H19.3c-0.7,0-1.4-0.5-1.6-1.2h24.6C42,30.9,41.4,31.4,40.7,31.4 M42.9,29.1H17
		c-0.3,0-0.6,0.3-0.6,0.6c0,1.5,1.3,2.8,2.8,2.8h21.4c1.5,0,2.8-1.3,2.8-2.8C43.5,29.4,43.3,29.1,42.9,29.1"/>
	<path id="Fill-6" fill="#A8A9A8" d="M19.9,12.9c-0.9,0-1.7,0.7-1.7,1.6v15h1.1v-15c0-0.3,0.3-0.5,0.6-0.5h3v-1.1H19.9z"/>
	<path id="Fill-8" fill="#A8A9A8" d="M40.1,12.9h-3V14h3c0.3,0,0.6,0.3,0.6,0.5v15h1.1v-15C41.8,13.6,41.1,12.9,40.1,12.9"/>
	<path fill="#A8A9A8" d="M22.6,14h15.7v-1.1H22.6C22.6,13.3,22.6,13.7,22.6,14z"/>
	<polygon id="Fill-10" fill="#A8A9A8" points="27.8,30.8 32.3,30.8 32.3,29.7 27.8,29.7 	"/>
</g>
<g id="Group-5" transform="translate(11.945946, 0.000000)">
	<path id="Fill-14" fill="#F73435" d="M1.6,22.2c0,1-0.6,1.9-1.5,2.3l-0.6,0.3v1.4c0,0.3-0.3,0.5-0.5,0.5h-0.6v-2.1h-1v2.1h-1.1
		v-2.1h-1.1v2.1h-0.5c-0.3,0-0.5-0.3-0.5-0.5v-1.4l-0.6-0.3c-1-0.5-1.5-1.4-1.5-2.3V21c0-2.6,2.2-4.7,4.8-4.7s4.8,2.1,4.8,4.7V22.2z
		 M-8,24.8c0.3,0.3,0.6,0.5,1,0.7l0.1,0.1v0.7c0,0.8,0.7,1.5,1.6,1.5H-1c0.9,0,1.6-0.7,1.6-1.5v-0.7l0.1-0.1
		c1.3-0.6,2.1-1.9,2.1-3.3V21c0-3.2-2.6-5.7-5.9-5.7s-5.9,2.6-5.9,5.7v1.2c0,0.9,0.4,1.8,1,2.4L-8,24.8z"/>
	<path id="Fill-15" fill="#F73435" d="M-5.5,21C-5.8,21-6,20.8-6,20.5c0-0.3,0.3-0.5,0.5-0.5c0.3,0,0.5,0.3,0.5,0.5
		C-5,20.8-5.1,21-5.5,21 M-5.5,18.9c-0.9,0-1.6,0.7-1.6,1.5c0,0.8,0.7,1.5,1.6,1.5s1.6-0.7,1.6-1.5C-3.9,19.6-4.6,18.9-5.5,18.9"/>
	<path id="Fill-16" fill="#F73435" d="M-1.1,21.1c-0.3,0-0.6-0.3-0.6-0.5c0-0.3,0.3-0.6,0.6-0.6s0.6,0.3,0.6,0.5
		C-0.6,20.8-0.8,21.1-1.1,21.1 M-1.2,18.9c-0.9,0-1.6,0.7-1.6,1.5c0,0.8,0.7,1.5,1.6,1.5s1.6-0.7,1.6-1.5
		C0.4,19.6-0.3,18.9-1.2,18.9"/>
</g>
</svg>
