<?xml version="1.0" encoding="UTF-8" standalone="no"?>
<!-- Generator: Adobe Illustrator 18.0.0, SVG Export Plug-In . SVG Version: 6.00 Build 0)  -->

<svg
   xmlns:dc="http://purl.org/dc/elements/1.1/"
   xmlns:cc="http://creativecommons.org/ns#"
   xmlns:rdf="http://www.w3.org/1999/02/22-rdf-syntax-ns#"
   xmlns:svg="http://www.w3.org/2000/svg"
   xmlns="http://www.w3.org/2000/svg"
   xmlns:sodipodi="http://sodipodi.sourceforge.net/DTD/sodipodi-0.dtd"
   xmlns:inkscape="http://www.inkscape.org/namespaces/inkscape"
   version="1.1"
   id="Capa_1"
   x="0px"
   y="0px"
   viewBox="0 0 45 45"
   enable-background="new 0 0 45 45"
   xml:space="preserve"
   sodipodi:docname="verified.svg"
   inkscape:version="0.92.3 (2405546, 2018-03-11)"><metadata
   id="metadata12"><rdf:RDF><cc:Work
       rdf:about=""><dc:format>image/svg+xml</dc:format><dc:type
         rdf:resource="http://purl.org/dc/dcmitype/StillImage" /></cc:Work></rdf:RDF></metadata><defs
   id="defs10" /><sodipodi:namedview
   pagecolor="#ffffff"
   bordercolor="#666666"
   borderopacity="1"
   objecttolerance="10"
   gridtolerance="10"
   guidetolerance="10"
   inkscape:pageopacity="0"
   inkscape:pageshadow="2"
   inkscape:window-width="2505"
   inkscape:window-height="1040"
   id="namedview8"
   showgrid="false"
   inkscape:zoom="5.2444444"
   inkscape:cx="-10.201271"
   inkscape:cy="12.966102"
   inkscape:window-x="55"
   inkscape:window-y="0"
   inkscape:window-maximized="1"
   inkscape:current-layer="Capa_1" />

<g
   id="g5"
   transform="matrix(2.1404997,0,0,2.1404997,-25.149893,-28.042549)">
	<path
   id="Shape_12_"
   d="m 21.6,28.3 -4.8,-4.9 c -0.5,-0.5 -1.3,-0.5 -1.7,0 -0.5,0.5 -0.5,1.3 0,1.8 l 4.8,4.9 c 0.3,0.3 0.5,0.4 0.8,0.4 0.3,0 0.6,-0.1 0.8,-0.4 0.6,-0.5 0.6,-1.3 0.1,-1.8 z"
   inkscape:connector-curvature="0"
   style="fill:#f73435;stroke:#f73435;stroke-width:0.64999998" />
	<path
   id="Shape_13_"
   d="m 29.5,16.7 c -0.4,-0.5 -1,-0.5 -1.4,0 l -7.7,11.7 c -0.4,0.5 -0.4,1.5 0,2.1 0.2,0.3 0.4,0.4 0.6,0.4 0.2,0 0.5,-0.1 0.6,-0.4 l 7.7,-11.7 c 0.6,-0.6 0.6,-1.6 0.2,-2.1 z"
   inkscape:connector-curvature="0"
   style="fill:#f73435;stroke:#f73435;stroke-width:0.64999998" />
</g>
</svg>