<?xml version="1.0" encoding="UTF-8"?>
<svg width="45px" height="45px" viewBox="0 0 45 45" version="1.1" xmlns="http://www.w3.org/2000/svg" xmlns:xlink="http://www.w3.org/1999/xlink">
    <!-- Generator: Sketch 52.2 (67145) - http://www.bohemiancoding.com/sketch -->
    <title>Maximum_Severity _Found</title>
    <desc>Created with Sketch.</desc>
    <g id="Page-1" stroke="none" stroke-width="1" fill="none" fill-rule="evenodd">
        <g id="Maximum_Severity-_Found" transform="translate(0.000000, -0.200000)">
            <g id="Group" transform="translate(0.120000, 0.424384)" fill="#A7A7A7">
                <path d="M22.5780192,3.16077476 C11.8324601,3.16077476 3.12383387,11.7520438 3.12383387,22.3527961 C3.12383387,32.9535483 11.8324601,41.5448173 22.5780192,41.5448173 C33.3235783,41.5448173 42.0026837,32.9535483 42.0322045,22.3527961 C42.0026837,11.7520438 33.2940575,3.16077476 22.5780192,3.16077476 Z M22.5780192,39.6809488 C12.8656869,39.6809488 4.98364217,31.9051223 4.98364217,22.3236731 C4.98364217,12.7422239 12.8656869,4.9663974 22.5780192,4.9663974 C32.2903514,4.9663974 40.1428754,12.7422239 40.1723962,22.3236731 C40.1428754,31.9342452 32.2903514,39.6809488 22.5780192,39.6809488 Z" id="Shape" fill-rule="nonzero"></path>
                <rect id="Rectangle-path" x="21.6333546" y="0.423217855" width="1.85980831" height="7.3098594"></rect>
                <rect id="Rectangle-path" x="21.6333546" y="36.9433919" width="1.85980831" height="7.3098594"></rect>
                <rect id="Rectangle-path" x="0.348881789" y="21.4208618" width="7.40971246" height="1.83474559"></rect>
                <rect id="Rectangle-path" x="37.3679233" y="21.4208618" width="7.40971246" height="1.83474559"></rect>
            </g>
            <g id="Group-5" transform="translate(13.200000, 11.973684)" fill="#F73435" fill-rule="nonzero">
                <path d="M17.454628,11.2735123 C17.454628,12.8899804 16.5303405,14.3435076 15.0425221,15.0664477 L13.9635813,15.5905645 L13.9635813,17.8108553 C13.9635813,18.2782075 13.5728625,18.6590893 13.0910467,18.6590893 L12.2182093,18.6590893 L12.2182093,15.2664474 L10.4728373,15.2664474 L10.4728373,18.6590893 L8.72746532,18.6590893 L8.72746532,15.2664474 L6.98179067,15.2664474 L6.98179067,18.6590893 L6.10895334,18.6590893 C5.6274401,18.6590893 5.23641866,18.2782075 5.23641866,17.8108553 L5.23641866,15.5905645 L4.15778058,15.0664477 C2.66965952,14.3435076 1.74537201,12.8899804 1.74537201,11.2735123 L1.74537201,9.32969169 C1.74537201,5.12116868 5.26880202,1.69617389 9.6,1.69617389 C13.9315006,1.69617389 17.454628,5.12116868 17.454628,9.32969169 L17.454628,11.2735123 Z M1.74537201,15.4149766 C2.21326608,15.8787994 2.75440101,16.2808576 3.37664565,16.5826218 L3.49104666,16.6387982 L3.49104666,17.8108553 C3.49104666,19.2137943 4.66562421,20.3552632 6.10895334,20.3552632 L13.0910467,20.3552632 C14.5343758,20.3552632 15.709256,19.2137943 15.709256,17.8108553 L15.709256,16.6387982 L15.8233544,16.5835042 C17.9067844,15.5708587 19.2,13.5361559 19.2,11.2735123 L19.2,9.32969169 C19.2,4.18558187 14.8930139,0 9.6,0 C4.30698613,0 0,4.18558187 0,9.32969169 L0,11.2735123 C0,12.7890982 0.590769231,14.1943902 1.59979823,15.2664474 L1.74537201,15.4149766 Z" id="Fill-14"></path>
                <path d="M6,9.17991683 C5.55834008,9.17991683 5.19990753,8.82143987 5.19990753,8.38157895 C5.19990753,7.94171802 5.55834008,7.58324106 6,7.58324106 C6.44165992,7.58324106 6.80009247,7.94171802 6.80009247,8.38157895 C6.80009247,8.82143987 6.44165992,9.17991683 6,9.17991683 M6,5.98684211 C4.67668478,5.98684211 3.6,7.06144255 3.6,8.38157895 C3.6,9.70199216 4.67668478,10.7763158 6,10.7763158 C7.32331522,10.7763158 8.4,9.70199216 8.4,8.38157895 C8.4,7.06144255 7.32331522,5.98684211 6,5.98684211" id="Fill-15"></path>
                <path d="M13.3411765,9.36764706 C12.8735906,9.36764706 12.4941176,8.98812709 12.4941176,8.52244582 C12.4941176,8.05676456 12.8735906,7.67724458 13.3411765,7.67724458 C13.8087623,7.67724458 14.1882353,8.05676456 14.1882353,8.52244582 C14.1882353,8.98812709 13.8087623,9.36764706 13.3411765,9.36764706 M13.2,5.98684211 C11.8766848,5.98684211 10.8,7.06144255 10.8,8.38157895 C10.8,9.70199216 11.8766848,10.7763158 13.2,10.7763158 C14.5233152,10.7763158 15.6,9.70199216 15.6,8.38157895 C15.6,7.06144255 14.5233152,5.98684211 13.2,5.98684211" id="Fill-16"></path>
            </g>
        </g>
    </g>
</svg>